<ttFont>
<head>
    <!-- Most of this table will be recalculated by the compiler -->
    <tableVersion value="1.0"/>
    <fontRevision value="2.004"/>
    <checkSumAdjustment value="0x170d9b88"/>
    <magicNumber value="0x5f0f3cf5"/>
    <flags value="00000000 00000011"/>
    <unitsPerEm value="1000"/>
    <created value="Thu Oct  8 09:56:49 2009"/>
    <modified value="Thu Oct  8 09:56:49 2009"/>
    <xMin value="-630"/>
    <yMin value="-325"/>
    <xMax value="2006"/>
    <yMax value="1163"/>
    <macStyle value="00000000 00000001"/>
    <lowestRecPPEM value="3"/>
    <fontDirectionHint value="2"/>
    <indexToLocFormat value="0"/>
    <glyphDataFormat value="0"/>
  </head>
          <CharString index="0">
            716 34 rmoveto
            33 -17 0 -21 vhcurveto
            -6 hlineto
            -13 -37 0 10 -21 hvcurveto
            213 vlineto
            80 -63 86 -213 -71 -148 0 -108 -48 35 -28 40 44 31 32 43 17 -5 16 -9 12 vhcurveto
            8 37 30 0 17 hhcurveto
            90 52 -34 -79 hvcurveto
            -19 vlineto
            -13 -1 -103 2 -99 -18 rrcurveto
            -119 -22 -76 -35 -74 vvcurveto
            -128 193 0 39 98 73 23 45 31 vhcurveto
            -60 8 70 0 75 hhcurveto
            64 7 0 34 hvcurveto
            -248 99 rmoveto
            -24 0 -26 -51 -19 vhcurveto
            -16 -41 -53 0 -6 hhcurveto
            -71 -55 27 46 89 229 8 48 2 hvcurveto
            return
          </CharString>
          <CharString index="1">
            1042 hmoveto
            67 -102 vlineto
            -290 609 rlineto
            25 -12 -5 10 -38 hhcurveto
            -76 hlineto
            -23 -16 0 -33 -16 hvcurveto
            -290 -611 rlineto
            -102 -67 hlineto
            3 46 45 1 46 hhcurveto
            152 -4 rlineto
            67 -83 vlineto
            69 146 rlineto
            360 hlineto
            70 -146 rlineto
            -83 -67 hlineto
            181 4 rlineto
            -199 276 rmoveto
            -297 hlineto
            148 312 rlineto
            return
          </CharString>
          <CharString index="2">
            70 callgsubr
            -176 136 -179 327 328 135 180 175 vhcurveto
            -172 17 rmoveto
            -184 -85 -124 -206 -220 -71 140 168 66 11 88 65 62 vhcurveto
            57 62 88 13 65 hhcurveto
            65 83 -12 -57 65 hvcurveto
            66 -58 12 -91 -68 vvcurveto
            return
          </CharString>
          <CharString index="3">
            1041 619 rmoveto
            67 vlineto
            -1 -30 -58 -3 -65 hhcurveto
            -65 -55 2 2 -33 hvcurveto
            -67 106 -385 vlineto
            -141 -122 -43 -136 -185 -44 81 100 vhcurveto
            388 -81 callsubr
            -387 vlineto
            -128 116 -121 266 264 91 133 115 vhcurveto
            388 vlineto
            return
          </CharString>
          <CharString index="4">
            hstemhm
            hintmask 11100000
            -106 callsubr
            return
          </CharString>
          <CharString index="5">
            635 110 rmoveto
            25 -24 0 -14 vhcurveto
            -7 hlineto
            -19 -8 0 -14 -9 hvcurveto
            -19 -10 -28 -48 -106 hhcurveto
            -127 -66 49 94 -9 hvcurveto
            389 hlineto
            20 18 0 32 58 -22 68 -42 38 hvcurveto
            40 -46 -60 23 -99 hhcurveto
            -224 -85 -123 -107 -106 85 -128 245 25 69 0 24 60 hvcurveto
            return
          </CharString>
          <CharString index="6">
            rmoveto
            48 -40 36 -46 -48 -38 -38 -45 -48 40 -36 46 48 38 38 45 vhcurveto
            return
          </CharString>
          <CharString index="7">
            1082 101 rmoveto
            29 -22 0 -20 -19 -20 0 -26 -2 vhcurveto
            -54 -5 -34 -11 -20 hhcurveto
            -51 -27 39 51 -10 hvcurveto
            -16 82 -5 29 -12 62 -85 38 rlinecurve
            119 33 52 60 63 vvcurveto
            109 -149 81 -218 vhcurveto
            -442 16 callsubr
            180 4 180 53 callsubr
            248 167 vlineto
            35 49 -5 -27 40 hvcurveto
            38 -26 0 -24 -59 vvcurveto
            -77 0 -52 79 -37 vhcurveto
            -17 38 63 -8 69 hhcurveto
            139 15 98 20 hvcurveto
            -349 394 rmoveto
            -77 -43 -47 -159 vhcurveto
            -181 248 181 hlineto
            157 45 -43 -81 hvcurveto
            return
          </CharString>
          <CharString index="8">
            rmoveto
            37 -31 41 -59 -24 -53 -5 -36 -56 vhcurveto
            30 -57 -66 2 -36 hhcurveto
            -192 -52 -93 -60 -57 37 -31 18 -16 hvcurveto
            -16 -20 -13 -28 -35 vvcurveto
            -41 16 -31 21 -23 vhcurveto
            hintmask 1110001011000000
            -48 -12 -53 -25 -52 vvcurveto
            -73 103 -58 219 147 175 29 105 30 -11 73 -99 34 vhcurveto
            23 -69 -62 0 -111 hhcurveto
            -58 hlineto
            -51 -9 0 14 -20 hvcurveto
            -14 11 -9 18 17 vvcurveto
            12 1 2 3 6 vhcurveto
            -21 46 57 -5 43 hhcurveto
            192 52 93 60 51 -33 34 -7 6 hvcurveto
            20 7 29 6 17 2 rrcurveto
            -4 -11 0 -2 -8 vvcurveto
            -37 29 -22 30 vhcurveto
            hintmask 1011000110100000
            24 34 18 41 hvcurveto
            -264 -84 rmoveto
            -44 -7 -54 -111 -110 -9 52 45 44 7 54 111 110 9 -52 -45 vhcurveto
            139 -370 rmoveto
            -34 -63 -42 -154 vhcurveto
            hintmask 0100001001000000
            -154 -63 42 34 47 83 0 37 hvcurveto
            57 hlineto
            113 144 0 -47 hvcurveto
            return
          </CharString>
          <CharString index="9">
            -58 -137 0 4 -51 hvcurveto
            -67 181 -81 vlineto
            -39 0 -33 -177 -219 -161 67 227 74 18 96 82 57 vhcurveto
            37 55 77 28 119 hhcurveto
            42 65 -5 -47 68 hvcurveto
            73 -52 13 -64 8 -34 rrcurveto
            -18 3 16 0 15 hhcurveto
            24 hlineto
            30 5 5 30 hvcurveto
            217 45 callgsubr
            -14 -2 -1 -10 -12 vhcurveto
            -69 -59 rlineto
            70 -113 -116 0 -34 hhcurveto
            -343 -152 -180 -180 -107 55 -91 70 -55 hvcurveto
            -107 137 179 0 78 hhcurveto
            101 109 3 45 56 hvcurveto
            -11 21 49 -20 8 hhcurveto
            22 0 21 14 hvcurveto
            168 vlineto
            return
          </CharString>
          <CharString index="10">
            540 140 rmoveto
            59 -42 35 -29 15 vhcurveto
            -50 27 -25 4 -120 16 rrcurveto
            -69 10 -59 8 37 vvcurveto
            26 30 29 118 103 19 -27 -36 4 vhcurveto
            -24 2 9 -2 24 hhcurveto
            13 hlineto
            30 5 5 30 hvcurveto
            69 45 callgsubr
            -12 -19 -8 -7 -15 vhcurveto
            15 -43 -53 0 -31 hhcurveto
            -37 -65 0 -25 -57 hvcurveto
            -62 -29 -14 -49 -30 vvcurveto
            -105 135 -18 75 -11 vhcurveto
            119 -16 65 -8 -50 vvcurveto
            -67 -125 0 -25 -90 -45 28 64 -25 vhcurveto
            19 -8 -3 2 -25 hhcurveto
            -12 hlineto
            -31 -5 -5 -31 hvcurveto
            -98 vlineto
            -21 0 -14 30 11 2 0 12 20 vhcurveto
            7 3 16 10 7 4 rrcurveto
            -29 56 65 0 28 hhcurveto
            40 193 0 148 hvcurveto
            return
          </CharString>
          <CharString index="11">
            13 callsubr
            hintmask 1010100110000000
            -102 callsubr
            hintmask 0101100110000000
            -85 callgsubr
            return
          </CharString>
          <CharString index="12">
            -20 -103 callsubr
            hintmask 00011000
            return
          </CharString>
          <CharString index="13">
            rmoveto
            -175 141 -175 -141 14 -24 160 58 160 -58 rlineto
            return
          </CharString>
          <CharString index="14">
            -1 callgsubr
            hintmask 0100100010000000
            776 64 callgsubr
            346 vlineto
            hintmask 1001000110000000
            -80 callgsubr
            hintmask 0000100100000000
            340 vlineto
            hintmask 1001000100000000
            -80 callsubr
            return
          </CharString>
          <CharString index="15">
            rmoveto
            -37 43 rlineto
            hintmask 00100000
            -20 -23 -45 -36 -45 hhcurveto
            -28 -27 15 11 -17 hvcurveto
            hintmask 00010000
            -90 callsubr
            hintmask 00100000
            37 -43 rlineto
            hintmask 00010000
            20 23 45 36 45 hhcurveto
            28 27 -15 -11 17 hvcurveto
            hintmask 00100000
            -91 callsubr
          </CharString>
          <CharString index="16">
            -82 callsubr
            24 19 -18 -12 64 53 rrcurveto
            endchar
          </CharString>
          <CharString index="17">
            18 -31 -22 12 -29 hhcurveto
            -45 -41 -34 -18 -22 hvcurveto
            -24 -19 18 12 -64 -53 rrcurveto
            return
          </CharString>
          <CharString index="18">
            rmoveto
            -166 105 rlineto
            6 -10 -10 7 -20 hhcurveto
            -38 -28 -36 -36 -45 37 -12 16 -5 hvcurveto
            184 -60 rlineto
            endchar
          </CharString>
          <CharString index="19">
            1061 619 rmoveto
            67 vlineto
            -151 -4 111 callsubr
            106 -423 vlineto
            -500 478 rlineto
            12 -13 -6 0 -18 hhcurveto
            -235 16 callsubr
            151 4 152 53 callsubr
            496 vlineto
            575 -549 rlineto
            -14 15 1 0 22 hhcurveto
            15 hlineto
            31 7 6 32 hvcurveto
            581 vlineto
            return
          </CharString>
          <CharString index="20">
            983 230 rmoveto
            28 -16 0 -19 vhcurveto
            -13 hlineto
            -26 -7 -2 -30 -2 hvcurveto
            -109 -7 -122 -67 -146 hhcurveto
            -219 -136 87 206 82 21 91 79 55 hvcurveto
            37 55 77 28 119 hhcurveto
            42 65 -5 -47 68 hvcurveto
            73 -52 13 -64 8 -34 rrcurveto
            -18 3 16 0 15 hhcurveto
            24 hlineto
            30 5 5 30 hvcurveto
            217 45 callgsubr
            -14 -2 -1 -10 -12 vhcurveto
            -69 -59 rlineto
            70 -113 -116 0 -34 hhcurveto
            -343 -152 -180 -180 return
          </CharString>
          <CharString index="21">
            973 463 rmoveto
            -27 206 rlineto
            -850 hlineto
            -27 -206 rlineto
            83 hlineto
            112 15 46 27 110 hhcurveto
            120 -535 -149 -67 hlineto
            4 48 125 0 54 hhcurveto
            54 125 0 -4 48 hvcurveto
            67 -149 535 120 vlineto
            110 46 -27 -112 15 hvcurveto
            return
          </CharString>
          <CharString index="22">
            1031 377 rmoveto
            67 vlineto
            -2 -21 -33 -2 -44 hhcurveto
            -39 -40 1 3 -39 hvcurveto
            -67 60 vlineto
            -135 -316 -134 316 rlineto
            52 67 hlineto
            -3 -40 -41 -1 -40 hhcurveto
            -34 -39 1 3 -33 hvcurveto
            -67 62 vlineto
            -121 -284 -120 284 rlineto
            52 67 hlineto
            -134 -4 rlineto
            -38 -44 1 3 -38 hvcurveto
            -67 66 vlineto
            150 -354 rlineto
            -31 13 20 0 19 43 callgsubr
            107 254 108 -254 44 callgsubr
            19 20 0 31 13 hvcurveto
            150 354 rlineto
            return
          </CharString>
          <CharString index="23">
            1467 619 rmoveto
            67 vlineto
            -4 -39 -46 0 -39 hhcurveto
            111 callsubr
            96 vlineto
            -215 -506 129 callsubr
            85 67 hlineto
            -178 -4 -157 -10 callgsubr
            89 vlineto
            18 -42 -197 -464 129 callsubr
            86 67 hlineto
            -179 -4 -157 -10 callgsubr
            90 vlineto
            256 -603 rlineto
            -33 14 18 0 21 43 callgsubr
            194 458 195 -458 44 callgsubr
            38 5 12 21 9 hvcurveto
            257 603 rlineto
            return
          </CharString>
          <CharString index="24">
            rmoveto
            -37 -23 0 -49 -48 -24 0 37 37 23 0 49 48 24 0 -37 vhcurveto
            89 1 rmoveto
            34 -37 49 -124 -126 -35 -50 -33 -41 43 -44 118 119 42 45 40 vhcurveto
            return
          </CharString>
          <CharString index="25">
            -18 31 22 -12 29 hhcurveto
            45 41 34 18 22 hvcurveto
            return
          </CharString>
          <CharString index="26">
            106 67 vlineto
            -184 -4 -184 26 callsubr
            return
          </CharString>
          <CharString index="27">
            -70 callgsubr
            -220 vlineto
            -116 121 -10 95 34 95 0 65 65 vhcurveto
            -65 vlineto
            hintmask 0010000000000000
            return
          </CharString>
          <CharString index="28">
            830 240 rmoveto
            -83 hlineto
            -162 -17 -148 -5 -85 hhcurveto
            -187 hlineto
            498 545 rlineto
            13 13 0 2 18 vvcurveto
            34 -14 1 -24 vhcurveto
            -649 hlineto
            -16 -206 rlineto
            83 hlineto
            139 14 181 0 42 hhcurveto
            173 hlineto
            -500 -547 rlineto
            -13 -13 0 -2 -20 vvcurveto
            -32 8 -5 30 vhcurveto
            671 hlineto
            return
          </CharString>
          <CharString index="29">
            hstemhm
            197 -75 callsubr
            return
          </CharString>
          <CharString index="30">
            846 490 rmoveto
            45 -26 43 -41 -44 -22 -34 -33 -26 13 -26 28 -10 vhcurveto
            -13 -11 -19 -6 -21 -4 rrcurveto
            25 vlineto
            -205 -9 rlineto
            -66 vlineto
            20 28 0 -5 12 hvcurveto
            8 -3 4 -10 -10 vvcurveto
            -203 vlineto
            -59 -1 -67 -41 -86 hhcurveto
            -52 -29 3 13 -21 hvcurveto
            -8 5 -4 13 30 vvcurveto
            342 vlineto
            return
          </CharString>
          <CharString index="31">
            122 123 32 62 64 20 -26 -72 vhcurveto
            -231 -66 callgsubr
            return
          </CharString>
          <CharString index="32">
            156 hintmask 11001000
            -91 callgsubr
            return
          </CharString>
          <CharString index="33">
            820 229 rmoveto
            -83 hlineto
            -145 -28 -115 -17 -88 hhcurveto
            -152 552 132 67 hlineto
            -4 -50 -102 0 -54 hhcurveto
            -188 4 rlineto
            19 callsubr
            689 vlineto
            return
          </CharString>
          <CharString index="34">
            rmoveto
            -89 callgsubr
            return
          </CharString>
          <CharString index="35">
            4 callsubr
            hintmask 11000100
            -81 callgsubr
            return
          </CharString>
          <CharString index="36">
            hstemhm
            173 -68 callsubr
            return
          </CharString>
          <CharString index="37">
            101 callsubr
            hintmask 01001000
            -56 callgsubr
            hintmask 11000011
            -76 callgsubr
            hintmask 00100001
            36 35 52 6 50 hhcurveto
            50 52 -6 -36 36 hvcurveto
            32 -32 0 -50 -46 vvcurveto
            return
          </CharString>
          <CharString index="38">
            -20 112 callsubr
            -102 16 callgsubr
            -68 133 hintmask 0100100000010000
            776 64 callgsubr
            346 vlineto
            hintmask 1001000010010000
            -80 callgsubr
            hintmask 0000100010000000
            340 vlineto
            hintmask 1001000010000000
            -80 callsubr
            hintmask 0000011101100000
            -6 callsubr
            return
          </CharString>
          <CharString index="39">
            125 -72 callsubr
            return
          </CharString>
          <CharString index="40">
            -197 -8 rlineto
            -67 vlineto
            64 8 0 -39 hvcurveto
            -513 -61 callgsubr
            return
          </CharString>
          <CharString index="41">
            1063 338 rmoveto
            99 -46 125 -135 73 vhcurveto
            70 79 -46 42 -82 -93 rlineto
            18 -49 -75 22 -119 hhcurveto
            -349 -134 -191 -174 -78 29 -128 150 -83 hvcurveto
            -68 -77 46 -42 81 92 rlineto
            -31 83 88 -8 73 hhcurveto
            351 132 186 169 hvcurveto
            -289 270 rmoveto
            -441 -496 rlineto
            -76 63 -3 118 45 vvcurveto
            118 27 64 48 47 vhcurveto
            49 49 80 31 122 hhcurveto
            56 74 -6 -33 64 hvcurveto
            133 -270 rmoveto
            -78 -12 -81 -56 -58 vhcurveto
            -54 -53 -89 -28 -116 hhcurveto
            -48 -81 3 35 -66 hvcurveto
            440 496 rlineto
            32 -29 49 -54 -152 vvcurveto
            return
          </CharString>
          <CharString index="42">
            -188 -8 rlineto
            -67 vlineto
            64 8 0 -39 hvcurveto
            -271 -63 callsubr
            return
          </CharString>
          <CharString index="43">
            rmoveto
            -101 callgsubr
            284 hmoveto
            -101 callgsubr
            endchar
          </CharString>
          <CharString index="44">
            0 callsubr
            -72 175 vlineto
            return
          </CharString>
          <CharString index="45">
            16 -8 56 6 56 83 51 -47 51 99 56 -3 56 hstemhm
            71 133 109 134 27 134 315 101 hintmask 0101100001000000
            1024 -51 callsubr
            hintmask 0000010000000000
            44 -54 -64 9 -59 hhcurveto
            -77 -76 -15 -47 -65 hvcurveto
            62 -69 -118 0 -41 hhcurveto
            -72 -148 0 -108 -48 35 -28 40 hvcurveto
            hintmask 0000100000000000
            44 31 32 43 17 -5 16 -9 12 hvcurveto
            hintmask 1110011111000000
            8 37 30 0 18 hhcurveto
            89 53 -34 -79 hvcurveto
            -43 -27 vlineto
            -64 -81 -8 -9 -51 hvcurveto
            -113 -20 -67 -27 -68 vvcurveto
            -120 173 0 69 105 102 4 58 45 vhcurveto
            -52 76 90 -10 66 hhcurveto
            19 73 0 28 56 hvcurveto
            59 30 20 48 12 vvcurveto
            -101 138 rmoveto
            hintmask 1001011011000000
            -315 hlineto
            61 3 24 91 142 hhcurveto
            119 23 -82 -70 4 hvcurveto
            -430 -125 rmoveto
            -70 -116 -5 -52 -78 -43 28 37 60 175 15 24 1 vhcurveto
            hintmask 0010000000000000
            3 33 36 1 5 hhcurveto
            2 -14 2 -8 7 -18 rrcurveto
            3 -10 2 -9 -11 vvcurveto
            endchar
          </CharString>
          <CharString index="46">
            -95 callsubr
            205 return
          </CharString>
          <CharString index="47">
            -83 callsubr
            endchar
          </CharString>
          <CharString index="48">
            -62 55 -59 87 61 46 32 43 30 vhcurveto
            -72 callgsubr
            return
          </CharString>
          <CharString index="49">
            rmoveto
            128 -4 -126 55 -99 hhcurveto
            -99 -126 -55 -128 -4 hvcurveto
            56 hlineto
            97 4 137 4 32 hhcurveto
            33 136 -4 -97 4 hvcurveto
            endchar
          </CharString>
          <CharString index="50">
            1282 229 rmoveto
            -83 hlineto
            -144 -35 -88 -18 -117 hhcurveto
            -192 230 95 hlineto
            69 52 -6 -77 3 hvcurveto
            83 233 -83 hlineto
            -77 -3 -52 -6 -69 hhcurveto
            -95 255 179 hlineto
            102 85 -11 -128 25 84 callgsubr
            -820 -67 47 hlineto
            -256 -552 rlineto
            -102 -67 hlineto
            30 callsubr
            151 -4 rlineto
            67 -83 vlineto
            106 230 rlineto
            235 -230 -79 -67 685 hlineto
            -606 364 rmoveto
            -203 hlineto
            118 255 rlineto
            85 hlineto
            return
          </CharString>
          <CharString index="51">
            621 110 rmoveto
            22 -19 0 -23 -29 -3 0 -16 -9 vhcurveto
            -27 -14 -28 -35 -85 hhcurveto
            -50 -52 10 30 -39 hvcurveto
            -35 26 -20 42 63 vvcurveto
            126 63 43 112 44 22 -3 -2 10 vhcurveto
            return
          </CharString>
          <CharString index="52">
            -94 callsubr
            endchar
          </CharString>
          <CharString index="53">
            -373 -8 62 0 56 25 62 0 51 152 56 return
          </CharString>
          <CharString index="54">
            40 22 callsubr
            vhcurveto
            hintmask 10100000
            -6 callgsubr
            hintmask 11010000
            21 121 85 147 hvcurveto
            293 hmoveto
            -27 callsubr
            28 20 13 0 vhcurveto
            hintmask 00100000
            -47 callsubr
            vhcurveto
            hintmask 00010000
            21 121 85 147 hvcurveto
            endchar
          </CharString>
          <CharString index="55">
            -104 callgsubr
            -93 157 -106 callgsubr
          </CharString>
          <CharString index="56">
            110 rmoveto
            25 -24 0 -14 vhcurveto
            -7 hlineto
            -25 -3 -1 -19 -11 hvcurveto
            -37 -18 -42 -24 -62 hhcurveto
            -31 -61 4 28 -48 hvcurveto
            -30 18 -31 29 -8 64 rrcurveto
            377 hlineto
            21 17 0 33 36 -9 86 -61 51 hvcurveto
            return
          </CharString>
          <CharString index="57">
            -327 -8 56 172 45 135 56 return
          </CharString>
          <CharString index="58">
            -104 callgsubr
            -93 111 rmoveto
            -35 -76 -184 60 rlineto
            -16 5 -37 12 45 vvcurveto
            36 28 36 38 20 10 -7 -6 10 vhcurveto
            endchar
          </CharString>
          <CharString index="59">
            206 rmoveto
            133 -111 87 -165 -67 -63 -28 -53 -41 vhcurveto
            4 90 3 53 50 55 rrcurveto
            31 29 59 31 78 hhcurveto
            11 35 0 -18 26 hvcurveto
            -8 -5 -27 -20 -40 vvcurveto
            -46 35 -29 40 34 41 23 54 51 -28 86 -159 -221 -159 -128 -214 return
          </CharString>
          <CharString index="60">
            -13 -98 -66 -43 -22 -15 rrcurveto
            -6 -4 -7 -5 -12 vvcurveto
            -12 16 -18 14 return
          </CharString>
          <CharString index="61">
            96 -8 56 6 56 87 51 152 56 hstem
            57 133 364 134 315 101 vstem
            1104 -51 callsubr
            44 -54 -64 9 -59 hhcurveto
            -70 -94 -12 -66 -74 hvcurveto
            38 -41 -76 40 -130 hhcurveto
            -228 -87 -122 -109 -105 83 -128 232 143 73 49 32 33 hvcurveto
            -62 69 94 -19 93 hhcurveto
            19 73 0 28 56 hvcurveto
            59 30 20 48 12 vvcurveto
            -101 138 rmoveto
            -315 hlineto
            61 3 24 91 142 hhcurveto
            119 23 -82 -70 4 hvcurveto
            -449 -19 rmoveto
            -58 -6 -123 -176 -178 -4 126 56 55 6 115 176 178 4 -117 -54 vhcurveto
            endchar
          </CharString>
          <CharString index="62">
            1290 126 callsubr
            -235 vlineto
            -18 -22 0 -29 -16 hvcurveto
            -302 -546 -302 546 rlineto
            29 -16 -22 0 -18 hhcurveto
            -235 16 callsubr
            151 4 152 53 callsubr
            535 1 vlineto
            317 -573 rlineto
            -29 16 22 0 16 hhcurveto
            16 22 0 29 16 hvcurveto
            325 587 rlineto
            1 -549 -106 -67 hlineto
            171 4 rlineto
            return
          </CharString>
          <CharString index="63">
            48 54 -6 -40 -47 -150 0 -38 hvcurveto
            -54 -56 69 hlineto
            64 64 2 13 63 hvcurveto
            61 12 54 23 53 vvcurveto
            return
          </CharString>
          <CharString index="64">
            -63 0 40 27 hvcurveto
            256 190 67 -190 191 -83 vlineto
            -2 -102 -54 -97 -102 -3 rrcurveto
            -56 vlineto
            return
          </CharString>
          <CharString index="65">
            776 hmoveto
            67 -72 228 vlineto
            148 -120 9 -74 return
          </CharString>
          <CharString index="66">
            602 rmoveto
            -101 callgsubr
            284 hmoveto
            -101 callgsubr
            return
          </CharString>
          <CharString index="67">
            rmoveto
            101 -79 113 -201 -60 -50 -10 -24 -46 vhcurveto
            110 vlineto
            hintmask 0001000000000000
            38 -4 42 0 0 vvcurveto
            152 90 73 43 42 hvcurveto
            hintmask 0000110000000000
            13 13 2 2 15 vvcurveto
            5 0 23 -22 vhcurveto
            0 -4 0 -7 -3 vhcurveto
            return
          </CharString>
          <CharString index="68">
            16 0 119 528 56 hstemhm
            98 172 541 172 -155 172 hintmask 10001000
            1000 188 rmoveto
            -83 hlineto
            -68 -16 -3 -1 -68 hhcurveto
            -84 hlineto
            17 26 26 29 39 37 rrcurveto
            hintmask 11110000
            81 75 74 68 102 vvcurveto
            111 -108 136 -334 -337 -106 -138 -109 -62 28 -69 93 -84 vhcurveto
            22 -19 65 -58 29 -45 rrcurveto
            -84 hlineto
            -68 -3 1 68 -16 hvcurveto
            -83 hlineto
            47 -188 rlineto
            255 hlineto
            20 18 0 32 79 -47 85 -30 55 hvcurveto
            -38 69 -36 65 72 vvcurveto
            135 118 55 152 112 159 -31 -159 -70 -34 -64 -35 -64 vhcurveto
            -37 -67 -45 -82 -78 vvcurveto
            -32 18 0 20 vhcurveto
            255 hlineto
            hintmask 00001000
            endchar
          </CharString>
          <CharString index="69">
            89 callsubr
            149 83 -42 83 return
          </CharString>
          <CharString index="70">
            -94 -21 107 56 -19 56 315 56 104 -20 hstemhm
            57 133 378 133 hintmask 10111100
            20 callgsubr
            42 -12 96 -118 62 vhcurveto
            85 107 -43 36 -98 -122 rlineto
            18 -57 -63 0 -16 hhcurveto
            -237 -85 -129 -110 -49 21 -89 110 -50 hvcurveto
            -86 -108 43 -36 98 123 rlineto
            hintmask 01000010
            -14 53 54 -2 29 hhcurveto
            235 87 119 106 hvcurveto
            -227 170 rmoveto
            hintmask 00110100
            -241 -302 rlineto
            -42 36 -1 59 39 vvcurveto
            88 13 93 176 18 40 0 -13 37 vhcurveto
            94 -168 rmoveto
            hintmask 01000010
            -92 -16 -79 -173 -21 -36 0 11 -37 vhcurveto
            239 300 rlineto
            40 -34 4 -59 -47 vvcurveto
            endchar
          </CharString>
          <CharString index="71">
            rrcurveto
            3 25 44 0 34 hhcurveto
            182 hlineto
            -71 -65 -27 -24 -32 -42 rrcurveto
            -100 -132 -11 -120 -54 vvcurveto
            -78 64 -4 11 30 17 15 5 6 vhcurveto
            22 21 0 26 18 vvcurveto
            2 243 66 61 66 62 return
          </CharString>
          <CharString index="72">
            565 357 rmoveto
            58 -58 37 -68 -88 -59 -62 -59 -27 vhcurveto
            -1 121 hlineto
            return
          </CharString>
          <CharString index="73">
            30 callsubr
            56 58 -2 -2 35 hvcurveto
            67 return
          </CharString>
          <CharString index="74">
            1073 732 rmoveto
            45 -26 42 -41 -44 -23 -33 -33 -27 14 -26 27 -10 vhcurveto
            -12 -10 -17 -7 -18 -3 rrcurveto
            16 vlineto
            return
          </CharString>
          <CharString index="75">
            rmoveto
            23 -19 20 -24 -16 -8 -7 -10 -10 vhcurveto
            -37 -41 -71 -54 -132 hhcurveto
            -86 -100 25 54 -101 hvcurveto
            13 -25 -29 16 -54 hhcurveto
            -128 -82 -84 -117 -123 87 -79 123 117 75 81 121 42 -11 35 -1 2 hvcurveto
            -23 67 63 -18 87 hhcurveto
            20 38 0 11 48 hvcurveto
            return
          </CharString>
          <CharString index="76">
            29 callsubr
            119 callsubr
            165 150 -142 150 -83 150 hintmask 01110100
            -56 callsubr
            hintmask 00000010
            -8 -12 -3 -15 -15 vvcurveto
            hintmask 00001000
            -43 32 -32 43 vhcurveto
            hintmask 00000010
            41 34 29 47 hvcurveto
            hintmask 00110100
            108 -149 0 -68 -275 -48 -158 -76 vhcurveto
            hintmask 10001000
            -102 79 -128 236 27 67 0 24 57 vhcurveto
            66 29 24 54 11 vvcurveto
            return
          </CharString>
          <CharString index="77">
            hstemhm
            -26 callsubr
            return
          </CharString>
          <CharString index="78">
            186 rmoveto
            77 -53 64 -101 40 vhcurveto
            91 40 22 54 46 vvcurveto
            146 -175 8 -82 -110 -155 -30 -151 -82 68 -47 35 -18 vhcurveto
            hintmask 10100100
            -76 -28 -68 -48 -95 vvcurveto
            -168 197 -11 102 49 256 0 203 vhcurveto
            -141 320 rmoveto
            -48 -31 -35 -57 -22 vhcurveto
            -141 63 rlineto
            hintmask 11011000
            -69 30 -24 11 30 vvcurveto
            45 36 25 119 62 105 -9 -90 vhcurveto
            25 -370 rmoveto
            -57 -46 -35 -136 vhcurveto
            hintmask 00100100
            -78 -112 16 103 62 40 43 70 28 hvcurveto
            200 -88 rlineto
            4 -2 58 -25 -45 vvcurveto
            endchar
          </CharString>
          <CharString index="79">
            -424 -2 callgsubr
            return
          </CharString>
          <CharString index="80">
            77 -45 57 -61 -53 -33 -40 -46 -46 33 -40 53 return
          </CharString>
          <CharString index="81">
            198 156 return
          </CharString>
          <CharString index="82">
            186 rmoveto
            77 -53 64 -101 40 vhcurveto
            91 40 22 54 46 vvcurveto
            146 -175 8 -82 -110 -155 -30 -151 -82 68 -47 35 -18 vhcurveto
            -76 -28 -68 -48 -95 vvcurveto
            -168 197 -11 102 49 256 0 203 vhcurveto
            -141 320 rmoveto
            -48 -31 -35 -57 -22 vhcurveto
            -141 63 rlineto
            -69 30 -24 11 30 vvcurveto
            45 36 25 119 62 105 -9 -90 vhcurveto
            25 -370 rmoveto
            -57 -46 -35 -136 -78 -112 16 103 62 40 43 70 28 vhcurveto
            200 -88 rlineto
            4 -2 58 -25 -45 vvcurveto
            endchar
          </CharString>
          <CharString index="83">
            134 -39 callgsubr
            hintmask 11001010
            0 30 21 41 vvcurveto
            46 -35 29 -40 -34 -41 -23 -54 -137 171 0 34 207 155 124 221 vhcurveto
            -160 104 rmoveto
            -101 -73 -56 -82 vhcurveto
            hintmask 00110100
            -132 0 81 83 78 0 88 147 126 14 -96 -77 hvcurveto
            endchar
          </CharString>
          <CharString index="84">
            -589 0 62 callgsubr
            85 173 hstemhm
            105 callgsubr
            26 125 -33 147 hintmask 11111000
            563 603 rmoveto
            49 -43 50 -95 -135 -117 -53 -114 vhcurveto
            -91 -100 -67 100 -310 47 callgsubr
            310 151 67 -159 89 vlineto
            16 0 41 34 28 vhcurveto
            25 32 41 3 17 hhcurveto
            12 0 -3 0 hvcurveto
            -1 -3 rlineto
            hintmask 00100100
            -6 -12 -3 50 callsubr
            endchar
          </CharString>
          <CharString index="85" raw="1">
            331dfba3 4348070b  
          </CharString>
          <CharString index="86">
            13 98 66 43 22 15 rrcurveto
            6 4 7 5 12 vvcurveto
            12 -16 18 -14 return
          </CharString>
          <CharString index="87">
            -20 hstemhm
            134 31 callgsubr
            hintmask 10011000
            -5 callgsubr
            return
          </CharString>
          <CharString index="88">
            178 rmoveto
            -74 hlineto
            -20 5 -37 -7 -24 hvcurveto
            hintmask 10110100
            -1 -7 -9 -1 -7 hhcurveto
            -153 hlineto
            184 62 rlineto
            58 20 47 34 67 vvcurveto
            145 -169 7 -131 -59 -69 0 -6 -22 vhcurveto
            -48 -6 -74 -17 -64 vvcurveto
            hintmask 00001000
            -43 29 -28 40 vhcurveto
            hintmask 00010000
            34 34 24 41 10 -1 10 -4 9 hvcurveto
            hintmask 01101100
            13 26 3 35 hhcurveto
            88 119 -2 -87 -64 -90 -36 -58 -26 hvcurveto
            -247 -109 rlineto
            -15 -7 -19 -5 -21 vvcurveto
            -43 548 vlineto
            endchar
          </CharString>
          <CharString index="89">
            644 rmoveto
            -249 hlineto
            -218 2 rlineto
            -26 -3 12 9 -1 hvcurveto
            -83 hlineto
            -43 -234 rlineto
            83 hlineto
            4 20 6 21 12 17 6 6 1 1 10 1 -36 callsubr
            62 55 rcurveline
            102 93 4 4 2 4 2 5 rlinecurve
            1 4 0 29 16 vvcurveto
            endchar
          </CharString>
          <CharString index="90">
            211 rmoveto
            -83 hlineto
            -7 -39 -14 -25 -9 -2 rrcurveto
            hintmask 10111000
            -3 -24 -43 0 -34 hhcurveto
            -149 hlineto
            64 41 61 38 43 23 rrcurveto
            112 62 83 46 104 vvcurveto
            124 -114 81 -198 -47 -221 -1 -147 -60 49 -24 33 40 43 28 55 36 -21 21 -5 5 vhcurveto
            18 36 37 2 23 hhcurveto
            98 88 -47 -92 -78 -61 -59 -64 -46 hvcurveto
            hintmask 01010000
            -279 -203 rlineto
            -17 -12 0 -4 -22 vvcurveto
            hintmask 10010000
            -31 541 vlineto
            hintmask 01001000
            endchar
          </CharString>
          <CharString index="91">
            462 rmoveto
            -249 hlineto
            -218 2 rlineto
            hintmask 10110000
            -26 -3 12 9 -1 hvcurveto
            -83 hlineto
            -43 -234 rlineto
            83 hlineto
            6 28 -1 35 34 3 -36 callsubr
            164 148 rcurveline
            4 4 2 4 2 5 rrcurveto
            hintmask 01000000
            1 4 0 29 16 vvcurveto
            endchar
          </CharString>
          <CharString index="92">
            -21 194 return
          </CharString>
          <CharString index="93">
            -629 0 62 callgsubr
            -67 75 return
          </CharString>
          <CharString index="94">
            -13 callgsubr
            -38 callsubr
            hintmask 11111010
            921 229 rmoveto
            -83 hlineto
            -148 -37 -103 -14 -121 hhcurveto
            -223 251 89 hlineto
            64 56 -4 -79 2 hvcurveto
            83 233 -83 hlineto
            -79 -2 -56 -4 -64 hhcurveto
            -89 226 209 hlineto
            hintmask 10110100
            111 96 -10 -129 27 84 callgsubr
            -749 -9 callsubr
            771 hlineto
            hintmask 00000010
            endchar
          </CharString>
          <CharString index="95">
            67 146 67 431 return
          </CharString>
          <CharString index="96">
            58 133 277 133 return
          </CharString>
          <CharString index="97">
            922 -91 rmoveto
            31 30 -31 31 -7 7 -273 273 rcurveline
            272 273 7 7 31 31 -30 30 rlinecurve
            -31 31 -31 -32 -7 -7 -272 -272 rcurveline
            -273 273 -7 7 -31 31 -31 -30 rlinecurve
            -30 -31 31 -31 7 -7 273 -273 rcurveline
            -273 -273 -7 -7 -31 -31 30 -30 rlinecurve
            31 -31 31 32 7 7 273 273 rcurveline
            273 -273 7 -7 31 -32 30 31 rlinecurve
            return
          </CharString>
          <CharString index="98">
            -67 106 58 callgsubr
            return
          </CharString>
          <CharString index="99">
            -48 0 67 215 61 276 117 callgsubr
            397 172 vstem
            919 481 rmoveto
            118 -130 87 -199 vhcurveto
            -494 16 callsubr
            184 4 184 53 callsubr
            215 244 vlineto
            167 150 74 125 hvcurveto
            -172 hmoveto
            -68 -13 -70 -173 vhcurveto
            -211 276 212 hlineto
            172 13 -68 -70 hvcurveto
            endchar
          </CharString>
          <CharString index="100">
            hstemhm
            98 172 557 156 hintmask 00100000
            1084 203 rmoveto
            67 vlineto
            hintmask 01000000
            -192 -4 rlineto
            return
          </CharString>
          <CharString index="101">
            -224 610 rmoveto
            -101 callgsubr
            284 hmoveto
            -101 callgsubr
            return
          </CharString>
          <CharString index="102">
            -211 97 -125 210 60 69 4 46 70 vhcurveto
            53 35 45 47 91 vvcurveto
            -157 1 rmoveto
            -83 0 -80 -140 vhcurveto
            return
          </CharString>
          <CharString index="103">
            37 21 3 34 14 vvcurveto
            49 -39 30 -40 -36 -43 -25 -56 -98 100 -72 159 222 99 108 110 vhcurveto
            endchar
          </CharString>
          <CharString index="104">
            -194 rmoveto
            67 -131 127 131 67 -131 380 vlineto
            31 -6 7 -32 vhcurveto
            -71 hlineto
            -26 -2 -1 -16 -14 hvcurveto
            -362 -401 rlineto
            -67 371 -127 -141 vlineto
            hintmask 10000000
            -67 vlineto
            hintmask 01000000
            4 49 107 0 54 hhcurveto
            hintmask 10100100
            56 95 0 -4 53 hvcurveto
            -256 261 rmoveto
            -301 hlineto
            301 329 rlineto
            endchar
          </CharString>
          <CharString index="105">
            hstemhm
            57 105 -67 125 237 125 14 105 -105 125 return
          </CharString>
          <CharString index="106">
            hmoveto
            67 -131 88 131 67 -131 409 vlineto
            31 -6 7 -32 vhcurveto
            -71 hlineto
            -26 -4 -2 -15 -12 hvcurveto
            -362 -430 rlineto
            -67 371 -88 -141 vlineto
            hintmask 10000000
            -67 vlineto
            hintmask 01000000
            4 49 107 0 54 hhcurveto
            hintmask 10101000
            56 95 0 -4 53 hvcurveto
            -256 222 rmoveto
            -301 hlineto
            301 358 rlineto
            endchar
          </CharString>
          <CharString index="107">
            -66 callgsubr
            67 return
          </CharString>
          <CharString index="108">
            -629 85 callsubr
            hstem
            112 192 vstem
            46 callgsubr
            -21 -121 -85 -147 -77 45 -57 61 53 33 40 46 vhcurveto
            endchar
          </CharString>
          <CharString index="109">
            hstemhm
            3 callgsubr
            return
          </CharString>
          <CharString index="110">
            rrcurveto
            10 -38 -39 6 -40 hhcurveto
            -112 -125 -14 -96 -76 87 -35 85 128 147 0 73 40 hvcurveto
            -41 99 98 -46 107 hhcurveto
            101 83 79 100 hvcurveto
            -614 -46 rmoveto
            -35 -24 -90 0 -75 hhcurveto
            -39 -49 0 27 26 88 0 65 43 41 -7 -11 40 hvcurveto
            endchar
          </CharString>
          <CharString index="111">
            hintmask 10100100
            -9 callgsubr
            return
          </CharString>
          <CharString index="112">
            38 0 67 248 56 248 67 return
          </CharString>
          <CharString index="113">
            rmoveto
            103 -236 5 -76 vhcurveto
            -53 hlineto
            -42 -6 -233 2 -103 vvcurveto
            -16 10 -10 17 vhcurveto
            27 hlineto
            33 -9 22 9 15 hvcurveto
            20 10 24 5 22 3 rrcurveto
            10 53 55 2 54 hhcurveto
            54 55 -2 -10 53 hvcurveto
            21 -4 25 -3 19 -11 rrcurveto
            return
          </CharString>
          <CharString index="114">
            -20 87 172 hstem
            98 150 50 83 89 150 vstem
            425 414 -38 callgsubr
            195 -486 rmoveto
            50 -37 26 -38 -41 -34 -29 -46 -36 24 -20 0 vhcurveto
            return
          </CharString>
          <CharString index="115">
            -72 callgsubr
            -42 return
          </CharString>
          <CharString index="116">
            hmoveto
            67 -72 388 vlineto
            -196 -8 -1 -3 rlineto
            -246 86 hlineto
            22 0 41 75 30 vhcurveto
            18 48 55 5 44 hhcurveto
            13 41 0 -15 35 hvcurveto
            -2 -2 -22 -19 -36 vvcurveto
            -54 43 -23 33 33 44 22 56 47 -36 80 -164 return
          </CharString>
          <CharString index="117">
            hmoveto
            67 -181 556 vlineto
            31 -6 7 -32 vhcurveto
            -21 hlineto
            -64 -85 -129 0 -23 hhcurveto
            -27 -67 27 hlineto
            12 77 0 25 73 hvcurveto
            -488 -181 -67 vlineto
            4 49 142 0 57 hhcurveto
            57 142 0 -4 49 hvcurveto
            endchar
          </CharString>
          <CharString index="118">
            1 vlineto
            -2 11 -18 16 -8 12 rrcurveto
            32 -26 -29 58 -45 hhcurveto
            -6 hlineto
            -36 -5 -30 -34 -35 vvcurveto
            -47 57 -22 36 -20 vhcurveto
            -9 16 25 -19 11 hhcurveto
            2 hlineto
            5 1 5 7 3 4 30 34 rcurveline
            3 4 7 5 6 vvcurveto
            return
          </CharString>
          <CharString index="119">
            -21 194 -20 -30 callsubr
            return
          </CharString>
          <CharString index="120">
            97 callsubr
            326 101 return
          </CharString>
          <CharString index="121">
            rmoveto
            43 -45 0 -13 vhcurveto
            -849 hlineto
            -13 -45 0 -43 -43 42 0 10 hvcurveto
            861 hlineto
            11 41 0 43 hvcurveto
            return
          </CharString>
          <CharString index="122">
            17 callgsubr
            63 -63 67 0 67 -63 63 return
          </CharString>
          <CharString index="123">
            19 callsubr
            hlineto
            return
          </CharString>
          <CharString index="124">
            -548 162 120 hstem
            33 386 vstem
            419 162 rmoveto
            120 -386 -120 vlineto
            endchar
          </CharString>
          <CharString index="125">
            -443 0 56 callgsubr
            return
          </CharString>
          <CharString index="126">
            -67 106 -552 -106 -67 return
          </CharString>
          <CharString index="127">
            1024 338 rmoveto
            return
          </CharString>
          <CharString index="128">
            721 383 rmoveto
            37 -31 41 -59 -24 -53 -5 -36 -56 vhcurveto
            30 -57 -66 2 -36 hhcurveto
            -192 -52 -93 -60 -57 37 -31 18 -16 hvcurveto
            -16 -20 -13 -28 -35 vvcurveto
            -41 16 -31 21 -23 vhcurveto
            return
          </CharString>
          <CharString index="129">
            rmoveto
            -27 callsubr
            return
          </CharString>
          <CharString index="130">
            370 52 callsubr
            return
          </CharString>
          <CharString index="131">
            -8 62 346 56 return
          </CharString>
          <CharString index="132">
            61 259 56 0 56 72 142 -138 142 28 -20 hstemhm
            return
          </CharString>
          <CharString index="133">
            -10 callgsubr
            106 return
          </CharString>
          <CharString index="134">
            67 552 67 return
          </CharString>
          <CharString index="135">
            130 475 -104 callgsubr
            return
          </CharString>
          <CharString index="136">
            -387 -8 62 0 62 278 62 return
          </CharString>
          <CharString index="137">
            3 46 46 1 46 hhcurveto
            return
          </CharString>
          <CharString index="138">
            50 callgsubr
            -46 78 61 94 hvcurveto
            123 hlineto
            return
          </CharString>
          <CharString index="139">
            -589 -202 56 50 75 398 75 return
          </CharString>
          <CharString index="140">
            0 -39 hvcurveto
            -271 -72 -67 vlineto
            return
          </CharString>
          <CharString index="141">
            rmoveto
            71 -270 -71 vlineto
            174 -78 0 174 hhcurveto
            endchar
          </CharString>
          <CharString index="142">
            -64 331 64 40 -141 vlineto
            -11 -13 0 -17 -10 hvcurveto
            -181 -328 -181 328 rlineto
            17 -10 -13 0 -11 hhcurveto
            -141 -40 64 -331 -64 return
          </CharString>
          <CharString index="143">
            55 callgsubr
            167 67 -67 75 return
          </CharString>
          <CharString index="144">
            rmoveto
            37 4 -32 30 -39 hhcurveto
            -39 -32 -30 -37 4 hvcurveto
            25 -214 rlineto
            84 hlineto
            return
          </CharString>
          <CharString index="145">
            hstemhm
            97 172 526 133 -79 172 return
          </CharString>
          <CharString index="146">
            91 callsubr
            rlineto
            return
          </CharString>
          <CharString index="147">
            vvcurveto
            36 -2 7 -33 vhcurveto
            -14 hlineto
            -29 -5 -4 -29 hvcurveto
            -10 vlineto
            -44 0 -73 -131 -69 vhcurveto
            -51 -27 -18 -38 -38 vvcurveto
            -35 17 -47 69 -27 vhcurveto
            return
          </CharString>
          <CharString index="148">
            -21 callsubr
            vhcurveto
            return
          </CharString>
          <CharString index="149">
            755 64 callgsubr
            588 vlineto
            return
          </CharString>
          <CharString index="150">
            -226 -8 75 -71 51 331 75 return
          </CharString>
          <CharString index="151">
            65 callsubr
            172 return
          </CharString>
          <CharString index="152">
            -14 callsubr
            68 167 120 callsubr
            363 hmoveto
            67 -65 385 vlineto
            return
          </CharString>
          <CharString index="153">
            -53 callgsubr
            -42 return
          </CharString>
          <CharString index="154">
            56 -56 75 -67 67 329 56 167 67 -67 75 119 callsubr
            return
          </CharString>
          <CharString index="155">
            0 67 256 67 return
          </CharString>
          <CharString index="156">
            rmoveto
            -14 17 rlineto
            -41 -49 -53 -30 -51 hhcurveto
            -40 -29 17 20 -35 hvcurveto
            17 -29 -31 17 -40 hhcurveto
            hintmask 00100000
            -25 -26 -8 -10 -22 hvcurveto
            return
          </CharString>
          <CharString index="157">
            -12 -13 vvcurveto
            -51 41 -23 32 37 37 26 48 vhcurveto
            return
          </CharString>
          <CharString index="158">
            2 callgsubr
            552 67 return
          </CharString>
          <CharString index="159">
            hmoveto
            67 -72 627 vlineto
            return
          </CharString>
          <CharString index="160">
            -4 rlineto
            67 -106 return
          </CharString>
          <CharString index="161">
            vvcurveto
            -62 55 -59 87 61 46 32 43 30 vhcurveto
            return
          </CharString>
          <CharString index="162">
            229 148 106 148 return
          </CharString>
          <CharString index="163">
            67 hstem
            -26 callsubr
            return
          </CharString>
          <CharString index="164">
            rmoveto
            -54 -41 -45 -53 -6 vhcurveto
            -9 hlineto
            -61 -44 49 54 54 41 45 53 6 hvcurveto
            9 hlineto
            61 44 -49 -54 hvcurveto
            return
          </CharString>
          <CharString index="165">
            hlineto
            80 201 rlineto
            4 9 2 6 8 vvcurveto
            24 -19 19 -24 -29 -9 -23 -10 -4 vhcurveto
            -93 -234 rlineto
            return
          </CharString>
          <CharString index="166">
            -197 -88 callgsubr
            -513 -72 return
          </CharString>
          <CharString index="167">
            9 55 0 15 53 hvcurveto
            -293 -130 -40 vlineto
            2 35 102 0 41 hhcurveto
            41 103 0 -2 35 hvcurveto
            return
          </CharString>
          <CharString index="168">
            71 49 callgsubr
            return
          </CharString>
          <CharString index="169">
            -47 -110 rlineto
            -149 hlineto
            -47 110 rlineto
            168 -176 rmoveto
            -46 -109 -47 109 rlineto
            return
          </CharString>
          <CharString index="170">
            vstem
            731 214 rmoveto
            82 -68 68 -82 -82 -68 -68 -82 -82 68 -68 82 82 68 68 82 vhcurveto
            return
          </CharString>
          <CharString index="171">
            hstem
            66 callgsubr
            return
          </CharString>
          <CharString index="172">
            69 75 callgsubr
            return
          </CharString>
          <CharString index="173">
            -8 61 338 56 -46 56 return
          </CharString>
          <CharString index="174">
            173 -132 162 -81 172 -31 162 -17 155 -131 172 hintmask 0000000010000000
            return
          </CharString>
          <CharString index="175">
            -105 -132 -67 vlineto
            4 52 94 0 55 hhcurveto
            55 95 0 -4 52 hvcurveto
            67 -132 104 vlineto
            return
          </CharString>
          <CharString index="176">
            -226 -8 56 return
          </CharString>
          <CharString index="177">
            -13 276 -94 callsubr
            return
          </CharString>
          <CharString index="178">
            76 304 -94 callsubr
            return
          </CharString>
          <CharString index="179">
            88 48 callsubr
            229 67 return
          </CharString>
          <CharString index="180">
            99 -43 99 hstemhm
            hintmask 01000000
            return
          </CharString>
          <CharString index="181">
            198 91 575 91 return
          </CharString>
          <CharString index="182">
            16 -17 67 586 67 return
          </CharString>
          <CharString index="183">
            202 148 return
          </CharString>
          <CharString index="184">
            -28 -27 15 11 -17 hvcurveto
            hintmask 00001000
            18 -31 -22 12 -29 hhcurveto
            -45 -41 -34 -18 -22 hvcurveto
            return
          </CharString>
          <CharString index="185">
            -490 -250 36 446 36 446 36 hstem
            232 111 cntrmask 11100000
            496 return
          </CharString>
          <CharString index="186">
            vmoveto
            48 -40 36 -46 -48 -38 -38 -45 -48 40 -36 46 48 38 38 45 vhcurveto
            endchar
          </CharString>
          <CharString index="187">
            -94 callsubr
            -23 return
          </CharString>
          <CharString index="188">
            635 56 -56 67 -56 56 hstemhm
            132 callgsubr
            232 125 -47 125 return
          </CharString>
          <CharString index="189">
            112 callsubr
            31 172 66 133 return
          </CharString>
          <CharString index="190">
            -168 -23 callgsubr
            return
          </CharString>
          <CharString index="191">
            150 312 150 vstem
            return
          </CharString>
          <CharString index="192">
            328 172 194 -20 return
          </CharString>
          <CharString index="193">
            521 -21 207 -20 hstem
            return
          </CharString>
          <CharString index="194">
            rmoveto
            42 -33 33 -42 -41 -34 -33 -42 -41 34 -34 41 42 33 34 41 vhcurveto
            return
          </CharString>
          <CharString index="195">
            217 hlineto
            75 86 -14 -43 59 hvcurveto
            51 -38 37 -55 -131 vvcurveto
            endchar
          </CharString>
          <CharString index="196">
            -30 callsubr
            211 83 return
          </CharString>
          <CharString index="197">
            hhcurveto
            63 hlineto
            19 20 0 return
          </CharString>
          <CharString index="198">
            -106 -67 vlineto
            184 4 return
          </CharString>
          <CharString index="199">
            69 -21 207 -20 hstemhm
            return
          </CharString>
          <CharString index="200">
            19 callgsubr
            hstemhm
            98 172 557 156 return
          </CharString>
          <CharString index="201">
            274 0 67 230 67 255 67 return
          </CharString>
          <CharString index="202">
            96 -49 -21 53 56 608 56 53 -20 return
          </CharString>
          <CharString index="203">
            hlineto
            -9 -8 -5 -9 -3 hvcurveto
            -9 -22 rlineto
            -14 -5 10 -16 16 hhcurveto
            return
          </CharString>
          <CharString index="204">
            hstemhm
            57 151 return
          </CharString>
          <CharString index="205">
            hhcurveto
            -41 -16 -30 -25 -29 20 -27 37 21 24 9 10 20 hvcurveto
            return
          </CharString>
          <CharString index="206">
            -56 56 -34 56 269 56 0 56 184 55 52 56 hstemhm
            return
          </CharString>
          <CharString index="207">
            39 48 62 10 42 hhcurveto
            164 0 -118 -54 hvcurveto
            endchar
          </CharString>
          <CharString index="208">
            -20 hstemhm
            57 150 340 150 return
          </CharString>
          <CharString index="209">
            349 -15 callsubr
            172 return
          </CharString>
          <CharString index="210">
            173 193 148 return
          </CharString>
          <CharString index="211">
            67 175 56 return
          </CharString>
          <CharString index="212">
            -24 19 -19 24 return
          </CharString>
          <CharString index="213">
            177 0 62 callgsubr
            -48 56 112 callsubr
            return
          </CharString>
          <CharString index="214">
            114 callsubr
            84 return
          </CharString>
          <CharString index="215">
            47 74 47 hstem
            -530 89 144 89 vstem
            -297 return
          </CharString>
          <CharString index="216">
            155 12 156 13 155 return
          </CharString>
          <CharString index="217">
            150 -138 rlineto
            -15 -67 hlineto
            return
          </CharString>
          <CharString index="218">
            -152 -10 callgsubr
            return
          </CharString>
          <CharString index="219">
            hstemhm
            169 133 return
          </CharString>
          <CharString index="220">
            -194 67 -63 63 127 67 418 -20 hstemhm
            return
          </CharString>
          <CharString index="221">
            -468 -8 62 48 callsubr
            191 -20 return
          </CharString>
          <CharString index="222">
            hstemhm
            98 172 205 172 205 172 return
          </CharString>
          <CharString index="223">
            -178 -21 519 142 -142 165 hstemhm
            return
          </CharString>
          <CharString index="224">
            83 49 callgsubr
            return
          </CharString>
          <CharString index="225">
            75 hstemhm
            132 callgsubr
            return
          </CharString>
          <CharString index="226">
            hstemhm
            65 150 return
          </CharString>
          <CharString index="227">
            hstemhm
            140 callsubr
            -131 125 hintmask 10100100
            return
          </CharString>
          <CharString index="228">
            hstemhm
            198 91 201 172 202 91 return
          </CharString>
          <CharString index="229">
            82 156 99 -69 82 -69 82 -69 99 hstemhm
            return
          </CharString>
          <CharString index="230">
            -17 callgsubr
            329 56 return
          </CharString>
          <CharString index="231">
            0 132 -132 178 222 67 hstemhm
            return
          </CharString>
          <CharString index="232">
            418 22 -21 207 86 207 -20 hstem
            return
          </CharString>
          <CharString index="233">
            hmoveto
            67 -106 552 106 67 return
          </CharString>
          <CharString index="234">
            -21 220 99 -43 99 hstemhm
            return
          </CharString>
          <CharString index="235">
            -290 -17 56 580 67 return
          </CharString>
          <CharString index="236">
            -216 506 rlineto
            return
          </CharString>
          <CharString index="237">
            131 callsubr
            hstemhm
            return
          </CharString>
          <CharString index="238">
            -21 188 -20 return
          </CharString>
          <CharString index="239">
            544 -21 22 -21 57 72 hstemhm
            hintmask 01100000
            return
          </CharString>
          <CharString index="240">
            -211 61 175 56 330 56 hstemhm
            return
          </CharString>
          <CharString index="241">
            hlineto
            -18 -15 -10 -13 -13 15 -10 18 hvcurveto
            return
          </CharString>
          <CharString index="242">
            29 -20 27 -37 -21 -24 -9 -10 -20 vhcurveto
            return
          </CharString>
          <CharString index="243">
            hlineto
            10 0 44 -43 -43 0 -44 -10 vhcurveto
            return
          </CharString>
          <CharString index="244">
            13 callgsubr
            55 150 return
          </CharString>
          <CharString index="245">
            hstemhm
            57 150 86 172 86 150 return
          </CharString>
          <CharString index="246">
            172 64 callsubr
            return
          </CharString>
          <CharString index="247">
            132 172 return
          </CharString>
        <CharString name=".notdef">
          -785 endchar
        </CharString>
        <CharString name="A">
          -41 callgsubr
          hstem
          -106 callsubr
          endchar
        </CharString>
        <CharString name="AE">
          94 callsubr
          hstem
          618 149 vstem
          -57 callsubr
          endchar
        </CharString>
        <CharString name="AE.dup">
          94 callsubr
          hstem
          618 149 vstem
          -57 callsubr
          endchar
        </CharString>
        <CharString name="AEacute">
          94 callsubr
          90 callgsubr
          618 149 hintmask 11100100
          -57 callsubr
          hintmask 00011000
          232 254 -106 callgsubr
        </CharString>
        <CharString name="Aacute">
          -41 callgsubr
          81 -21 194 -95 callsubr
          211 281 -106 callgsubr
        </CharString>
        <CharString name="Abreve">
          -41 callgsubr
          60 82 101 -95 callsubr
          29 callgsubr
          endchar
        </CharString>
        <CharString name="Abreveacute">
          -41 callgsubr
          60 82 330 -95 callsubr
          259 342 -52 callsubr
        </CharString>
        <CharString name="Abrevedotbelow">
          -41 callgsubr
          60 82 101 -20 hstemhm
          471 172 hintmask 11111000
          -106 callsubr
          29 callgsubr
          hintmask 00000100
          -143 -1051 -100 callgsubr
        </CharString>
        <CharString name="Abrevegrave">
          -41 callgsubr
          60 82 101 -95 callsubr
          259 342 -49 callsubr
        </CharString>
        <CharString name="Abrevehookabove">
          -41 callgsubr
          60 82 304 -95 callsubr
          29 callgsubr
          -88 138 -107 callgsubr
        </CharString>
        <CharString name="Abrevetilde">
          -41 callgsubr
          60 82 156 99 -69 82 -69 82 -69 99 -103 callsubr
          hintmask 00010001
          29 callgsubr
          12 167 rmoveto
          -37 43 rlineto
          hintmask 00001000
          -20 -23 -45 -36 -45 hhcurveto
          hintmask 00000010
          -28 -27 15 11 -17 hvcurveto
          hintmask 00000001
          18 -31 -22 12 -29 hhcurveto
          -45 -41 -34 -18 -22 hvcurveto
          hintmask 00000010
          -24 -19 18 12 -64 -53 rrcurveto
          hintmask 00001000
          37 -43 rlineto
          hintmask 00000001
          20 23 45 36 45 hhcurveto
          hintmask 00000100
          28 27 -15 -11 17 hvcurveto
          hintmask 00001000
          -82 callsubr
          hintmask 00000100
          24 19 -18 -12 64 53 rrcurveto
          endchar
        </CharString>
        <CharString name="Acaron">
          -41 callgsubr
          71 -21 165 -61 callsubr
          290 -62 callgsubr
        </CharString>
        <CharString name="Acircumflex">
          -41 callgsubr
          71 -21 165 -61 callsubr
          173 -55 callsubr
        </CharString>
        <CharString name="Acircumflexacute">
          -41 callgsubr
          71 -21 394 -61 callsubr
          173 80 callsubr
          322 -106 callgsubr
        </CharString>
        <CharString name="Acircumflexdotbelow">
          -41 callgsubr
          71 131 callgsubr
          hstemhm
          471 172 hintmask 11111000
          -106 callsubr
          205 173 -94 callsubr
          hintmask 00000100
          -73 -858 -100 callgsubr
        </CharString>
        <CharString name="Acircumflexgrave">
          -41 callgsubr
          71 -21 165 -61 callsubr
          173 -71 callgsubr
        </CharString>
        <CharString name="Acircumflexhookabove">
          -41 callgsubr
          71 -21 368 -61 callsubr
          173 -94 callsubr
          123 303 -107 callgsubr
        </CharString>
        <CharString name="Acircumflextilde">
          -41 callgsubr
          71 -21 220 99 -43 99 -103 callsubr
          hintmask 00010100
          205 173 -16 callgsubr
        </CharString>
        <CharString name="Adblgrave">
          -41 callgsubr
          81 -21 194 -95 callsubr
          177 221 rmoveto
          -92 callgsubr
        </CharString>
        <CharString name="Adieresis">
          -41 callgsubr
          50 150 hstemhm
          312 31 callgsubr
          hintmask 11100000
          -106 callsubr
          hintmask 00011100
          -60 223 -75 callgsubr
        </CharString>
        <CharString name="Adotbelow">
          -41 callgsubr
          hstemhm
          471 172 hintmask 11100000
          -106 callsubr
          hintmask 00010000
          116 -709 -100 callgsubr
        </CharString>
        <CharString name="Agrave">
          -41 callgsubr
          81 -21 194 -95 callsubr
          121 235 -89 callsubr
        </CharString>
        <CharString name="Ahookabove">
          -41 callgsubr
          88 -21 188 -95 callsubr
          171 289 -107 callgsubr
        </CharString>
        <CharString name="Alpha">
          -41 callgsubr
          hstem
          -106 callsubr
          endchar
        </CharString>
        <CharString name="Amacron">
          -41 callgsubr
          70 71 -103 callsubr
          hintmask 00010000
          291 169 -33 callgsubr
        </CharString>
        <CharString name="Aogonek">
          109 callgsubr
          hstemhm
          72 289 0 289 hintmask 01010100
          1042 hmoveto
          67 -102 vlineto
          -290 609 rlineto
          25 -12 -5 10 -38 hhcurveto
          -76 hlineto
          -23 -16 0 -33 -16 hvcurveto
          -290 -611 rlineto
          hintmask 11101000
          -102 -67 hlineto
          3 46 45 1 46 hhcurveto
          152 -4 rlineto
          67 -83 vlineto
          69 146 rlineto
          360 hlineto
          70 -146 rlineto
          -83 -67 hlineto
          1 34 48 4 41 hhcurveto
          -44 -34 -21 -40 -45 vvcurveto
          50 callgsubr
          -47 82 61 94 hvcurveto
          -243 276 rmoveto
          -297 hlineto
          148 312 rlineto
          endchar
        </CharString>
        <CharString name="Aogonekacute">
          109 callgsubr
          76 callgsubr
          72 289 0 289 hintmask 01010001
          1042 hmoveto
          67 -102 vlineto
          -290 609 rlineto
          25 -12 -5 10 -38 hhcurveto
          -76 hlineto
          -23 -16 0 -33 -16 hvcurveto
          -290 -611 rlineto
          hintmask 11100010
          -102 -67 hlineto
          3 46 45 1 46 hhcurveto
          152 -4 rlineto
          67 -83 vlineto
          69 146 rlineto
          360 hlineto
          70 -146 rlineto
          -83 -67 hlineto
          1 34 48 4 41 hhcurveto
          -44 -34 -21 -40 -45 vvcurveto
          50 callgsubr
          -47 82 61 94 hvcurveto
          -243 276 rmoveto
          -297 hlineto
          148 312 rlineto
          hintmask 00001100
          211 281 -106 callgsubr
        </CharString>
        <CharString name="Aring">
          49 0 -12 callsubr
          47 74 47 hstemhm
          396 89 144 89 hintmask 11100000
          -106 callsubr
          hintmask 00111100
          102 203 -60 callsubr
        </CharString>
        <CharString name="Aringacute">
          49 0 -12 callsubr
          47 74 47 229 -20 hstemhm
          396 89 144 89 hintmask 11100000
          -106 callsubr
          hintmask 00111110
          102 203 -83 callsubr
          -25 240 -106 callgsubr
        </CharString>
        <CharString name="Atilde">
          -41 callgsubr
          50 99 -43 99 -103 callsubr
          hintmask 00001000
          271 261 -87 callgsubr
        </CharString>
        <CharString name="B">
          -29 callgsubr
        </CharString>
        <CharString name="Beta">
          -29 callgsubr
        </CharString>
        <CharString name="C">
          75 callsubr
          hstem
          98 172 vstem
          -87 callsubr
          -175 145 -185 352 241 147 110 137 hvcurveto
          endchar
        </CharString>
        <CharString name="Cacute">
          75 callsubr
          44 callsubr
          hintmask 11001000
          -87 callsubr
          -175 145 -185 352 241 147 110 137 hvcurveto
          hintmask 00110000
          -208 643 -106 callgsubr
        </CharString>
        <CharString name="Ccaron">
          75 callsubr
          59 131 callgsubr
          hstemhm
          98 172 hintmask 11001000
          -87 callsubr
          -175 145 -185 352 241 147 110 137 hvcurveto
          hintmask 00110000
          -214 652 -62 callgsubr
        </CharString>
        <CharString name="Ccedilla">
          75 callsubr
          hstem
          98 172 vstem
          -87 callsubr
          -171 138 -180 332 -9 hvcurveto
          -49 19 vlineto
          -44 callsubr
          62 -50 29 -96 8 vhcurveto
          193 22 114 100 121 vvcurveto
          endchar
        </CharString>
        <CharString name="Ccircumflex">
          75 callsubr
          59 131 callgsubr
          hstemhm
          98 172 hintmask 11001000
          -87 callsubr
          -175 145 -185 352 241 147 110 137 hvcurveto
          hintmask 00110000
          -214 535 -55 callsubr
        </CharString>
        <CharString name="Cdotaccent">
          75 callsubr
          55 167 hstemhm
          98 172 238 172 hintmask 11010000
          -87 callsubr
          -175 145 -185 352 241 147 110 137 hvcurveto
          hintmask 00101000
          -303 611 -100 callgsubr
        </CharString>
        <CharString name="Chi">
          -26 callgsubr
        </CharString>
        <CharString name="D">
          73 0 67 552 117 callgsubr
          525 164 vstem
          -51 callgsubr
          endchar
        </CharString>
        <CharString name="Dcaron">
          73 -23 callgsubr
          52 callgsubr
          76 callsubr
          525 164 hintmask 11001100
          -51 callgsubr
          hintmask 00110000
          -240 544 -62 callgsubr
        </CharString>
        <CharString name="Dcroat">
          -12 callgsubr
        </CharString>
        <CharString name="Ddotbelow">
          73 -23 callgsubr
          hstemhm
          76 callsubr
          24 172 329 164 hintmask 11101000
          -51 callgsubr
          hintmask 00010000
          -329 -455 -100 callgsubr
        </CharString>
        <CharString name="Delta">
          177 0 136 575 -20 hstem
          1151 16 rmoveto
          5 -1 0 -6 10 vhcurveto
          -422 649 rlineto
          28 -18 -15 3 -27 hhcurveto
          -82 hlineto
          -27 -14 -2 -29 -19 hvcurveto
          -421 -647 rlineto
          -6 -10 -2 -2 -5 vvcurveto
          -16 16 0 14 vhcurveto
          1000 hlineto
          14 16 0 16 hvcurveto
          -261 120 rmoveto
          -612 hlineto
          306 470 rlineto
          endchar
        </CharString>
        <CharString name="Dlinebelow">
          73 -151 71 80 27 callsubr
          hstemhm
          76 callsubr
          525 164 hintmask 01111000
          -51 callgsubr
          hintmask 10000000
          -154 -489 -33 callgsubr
        </CharString>
        <CharString name="E">
          -13 callsubr
        </CharString>
        <CharString name="Eacute">
          -13 callgsubr
          94 -21 194 -20 -97 callgsubr
          hintmask 0001100000000000
          -193 873 -106 callgsubr
        </CharString>
        <CharString name="Ebreve">
          -13 callgsubr
          73 82 101 -20 -97 callgsubr
          hintmask 0001100000000000
          -145 934 -104 callgsubr
          endchar
        </CharString>
        <CharString name="Ecaron">
          -13 callgsubr
          84 131 callgsubr
          -97 callgsubr
          hintmask 0001100000000000
          -199 882 -62 callgsubr
        </CharString>
        <CharString name="Ecircumflex">
          -13 callgsubr
          84 131 callgsubr
          -97 callgsubr
          hintmask 0001101000000000
          69 callgsubr
          endchar
        </CharString>
        <CharString name="Ecircumflexacute">
          -13 callgsubr
          84 -21 394 -20 -97 callgsubr
          hintmask 0001101000000000
          69 callgsubr
          -23 322 -106 callgsubr
        </CharString>
        <CharString name="Ecircumflexdotbelow">
          -13 callgsubr
          84 131 callgsubr
          54 callgsubr
          hintmask 1110010101000000
          921 229 rmoveto
          -83 hlineto
          -148 -37 -103 -14 -121 hhcurveto
          -223 251 89 hlineto
          64 56 -4 -79 2 hvcurveto
          83 233 -83 hlineto
          -79 -2 -56 -4 -64 hhcurveto
          -89 226 209 hlineto
          hintmask 1010010010000000
          111 96 -10 -129 27 84 callgsubr
          -749 -9 callsubr
          771 hlineto
          hintmask 0001100101000000
          69 callgsubr
          hintmask 0000001000000000
          -73 -858 -100 callgsubr
        </CharString>
        <CharString name="Ecircumflexgrave">
          -13 callgsubr
          84 131 callgsubr
          -97 callgsubr
          hintmask 0001101000000000
          -199 765 -71 callgsubr
        </CharString>
        <CharString name="Ecircumflexhookabove">
          -13 callgsubr
          84 -21 368 -20 -97 callgsubr
          hintmask 0001101000000000
          69 callgsubr
          123 303 -107 callgsubr
        </CharString>
        <CharString name="Ecircumflextilde">
          -13 callgsubr
          84 -21 220 99 -43 99 -38 callsubr
          hintmask 1110001101000000
          921 229 rmoveto
          -83 hlineto
          -148 -37 -103 -14 -121 hhcurveto
          -223 251 89 hlineto
          64 56 -4 -79 2 hvcurveto
          83 233 -83 hlineto
          -79 -2 -56 -4 -64 hhcurveto
          -89 226 209 hlineto
          hintmask 1010001010000000
          111 96 -10 -129 27 84 callgsubr
          -749 -9 callsubr
          771 hlineto
          hintmask 0000000001000000
          hintmask 0001010100000000
          -199 765 -25 callgsubr
          hintmask 0000100000000000
          -20 -23 -45 -36 -45 hhcurveto
          -28 -27 15 11 -17 hvcurveto
          hintmask 0000010000000000
          -90 callsubr
          hintmask 0000100000000000
          37 -43 rlineto
          hintmask 0000010000000000
          20 23 45 36 45 hhcurveto
          28 27 -15 -11 17 hvcurveto
          hintmask 0000100000000000
          -91 callsubr
        </CharString>
        <CharString name="Edblgrave">
          -13 callgsubr
          94 -21 194 -20 -97 callgsubr
          hintmask 0001100000000000
          -186 813 rmoveto
          -92 callgsubr
        </CharString>
        <CharString name="Edieresis">
          -13 callgsubr
          63 150 -30 callsubr
          -110 155 166 83 -68 155 62 83 -42 83 hintmask 1110101001000000
          921 229 rmoveto
          -83 hlineto
          -148 -37 -103 -14 -121 hhcurveto
          -223 251 89 hlineto
          64 56 -4 -79 2 hvcurveto
          83 233 -83 hlineto
          -79 -2 -56 -4 -64 hhcurveto
          -89 226 209 hlineto
          hintmask 1010100010000000
          111 96 -10 -129 27 84 callgsubr
          -749 -9 callsubr
          771 hlineto
          hintmask 0000000001000000
          hintmask 0001010100000000
          -464 815 -75 callgsubr
        </CharString>
        <CharString name="Edotaccent">
          -13 callgsubr
          80 167 54 callgsubr
          hintmask 1110101010000000
          921 229 rmoveto
          -83 hlineto
          -148 -37 -103 -14 -121 hhcurveto
          -223 251 89 hlineto
          64 56 -4 -79 2 hvcurveto
          83 233 -83 hlineto
          -79 -2 -56 -4 -64 hhcurveto
          -89 226 209 hlineto
          hintmask 1010100100000000
          111 96 -10 -129 27 84 callgsubr
          -749 -9 callsubr
          771 hlineto
          hintmask 0000000010000000
          hintmask 0001010000000000
          -288 841 -100 callgsubr
        </CharString>
        <CharString name="Edotbelow">
          -13 callgsubr
          54 callgsubr
          hintmask 11110101
          921 229 rmoveto
          -83 hlineto
          -148 -37 -103 -14 -121 hhcurveto
          -223 251 89 hlineto
          64 56 -4 -79 2 hvcurveto
          83 233 -83 hlineto
          -79 -2 -56 -4 -64 hhcurveto
          -89 226 209 hlineto
          hintmask 10110010
          111 96 -10 -129 27 84 callgsubr
          -749 -9 callsubr
          771 hlineto
          hintmask 00000001
          hintmask 00001000
          -288 -117 -100 callgsubr
        </CharString>
        <CharString name="Egrave">
          -13 callgsubr
          94 -21 194 -20 -97 callgsubr
          hintmask 0001100000000000
          -283 827 -89 callsubr
        </CharString>
        <CharString name="Ehookabove">
          -13 callgsubr
          101 -21 188 -20 -97 callgsubr
          hintmask 0001100000000000
          -233 881 -107 callgsubr
        </CharString>
        <CharString name="Emacron">
          -13 callgsubr
          83 71 -38 callsubr
          hintmask 11101101
          921 229 rmoveto
          -83 hlineto
          -148 -37 -103 -14 -121 hhcurveto
          -223 251 89 hlineto
          64 56 -4 -79 2 hvcurveto
          83 233 -83 hlineto
          -79 -2 -56 -4 -64 hhcurveto
          -89 226 209 hlineto
          hintmask 10101010
          111 96 -10 -129 27 84 callgsubr
          -749 -9 callsubr
          771 hlineto
          hintmask 00000001
          hintmask 00010000
          -113 761 -33 callgsubr
        </CharString>
        <CharString name="Eng">
          88 -17 84 -84 150 -133 27 callsubr
          -67 84 hstemhm
          197 156 558 172 hintmask 00001100
          1083 343 rmoveto
          217 -216 143 -233 -102 -103 -19 -43 -76 vhcurveto
          hintmask 10010100
          45 vlineto
          -3 -26 -26 -1 -26 hhcurveto
          -61 -67 0 4 -61 hvcurveto
          -67 111 -552 -111 vlineto
          hintmask 00101110
          -67 vlineto
          4 61 67 0 61 hhcurveto
          61 67 0 -4 61 hvcurveto
          67 -111 482 vlineto
          55 58 115 15 108 hhcurveto
          153 124 -123 -153 -101 -17 -107 -57 -45 hvcurveto
          hintmask 01000010
          25 -12 -26 18 -30 hhcurveto
          -42 -33 -34 -41 -41 33 -34 42 182 132 169 191 hvcurveto
          endchar
        </CharString>
        <CharString name="Eogonek">
          -87 -235 96 139 -11 callgsubr
          89 callsubr
          66 83 0 83 -42 83 hintmask 0111111010000000
          921 229 rmoveto
          -83 hlineto
          -148 -37 -103 -14 -121 hhcurveto
          -223 251 89 hlineto
          64 56 -4 -79 2 hvcurveto
          83 233 -83 hlineto
          -79 -2 -56 -4 -64 hhcurveto
          -89 226 209 hlineto
          111 96 -10 -129 27 hvcurveto
          hintmask 0101100100000000
          63 callgsubr
          hintmask 1100001010000000
          31 callsubr
          endchar
        </CharString>
        <CharString name="Eogonekacute">
          -87 -235 96 139 -11 callgsubr
          94 12 callsubr
          211 83 66 83 0 83 -42 83 hintmask 0111001110100000
          921 229 rmoveto
          -83 hlineto
          -148 -37 -103 -14 -121 hhcurveto
          -223 251 89 hlineto
          64 56 -4 -79 2 hvcurveto
          83 233 -83 hlineto
          -79 -2 -56 -4 -64 hhcurveto
          -89 226 209 hlineto
          111 96 -10 -129 27 hvcurveto
          hintmask 0101001001000000
          63 callgsubr
          hintmask 1100000010100000
          31 callsubr
          hintmask 0000110000000000
          -193 873 -106 callgsubr
        </CharString>
        <CharString name="Epsilon">
          -13 callsubr
        </CharString>
        <CharString name="Ereversed">
          -13 callgsubr
          hstemhm
          92 83 -42 83 149 83 211 156 hintmask 11101110
          921 hmoveto
          67 -106 544 106 67 -749 vlineto
          -39 -206 rlineto
          83 hlineto
          129 27 96 10 111 hhcurveto
          209 -226 -89 hlineto
          -64 -56 4 79 -2 hvcurveto
          -83 -233 83 hlineto
          79 2 56 4 64 hhcurveto
          89 -251 -223 hlineto
          hintmask 10010000
          -121 -103 14 148 -37 hvcurveto
          -83 hlineto
          58 -229 rlineto
          endchar
        </CharString>
        <CharString name="Eta">
          88 0 67 256 67 229 67 hstem
          198 156 445 156 vstem
          -79 callgsubr
          endchar
        </CharString>
        <CharString name="Eth">
          -12 callgsubr
        </CharString>
        <CharString name="Etilde">
          -13 callgsubr
          63 99 -43 99 -97 callgsubr
          hintmask 0000100000000000
          -133 853 rmoveto
          -37 43 rlineto
          hintmask 0001000000000000
          -20 -23 -45 -36 -45 hhcurveto
          -28 -27 15 11 -17 hvcurveto
          hintmask 0000100000000000
          -90 callsubr
          hintmask 0001000000000000
          37 -43 rlineto
          hintmask 0000100000000000
          20 23 45 36 45 hhcurveto
          28 27 -15 -11 17 hvcurveto
          hintmask 0001000000000000
          -91 callsubr
        </CharString>
        <CharString name="Euro">
          -157 -17 66 193 66 70 66 193 66 hstem
          162 172 vstem
          828 5 rmoveto
          127 vlineto
          12 -10 10 -12 vhcurveto
          -50 hlineto
          -11 -9 -8 -10 -2 hvcurveto
          -57 -10 -61 -30 -62 hhcurveto
          -77 -78 20 57 -52 hvcurveto
          -29 33 -16 40 -8 43 rrcurveto
          304 hlineto
          9 137 callgsubr
          -11 11 -15 hhcurveto
          -318 hlineto
          -1 35 1 35 rlineto
          363 hlineto
          10 137 callgsubr
          -12 11 -14 hhcurveto
          -366 hlineto
          8 43 16 40 29 33 rrcurveto
          57 52 78 20 77 hhcurveto
          62 61 -29 -58 10 hvcurveto
          -10 2 9 -8 11 hhcurveto
          50 hlineto
          12 10 10 12 hvcurveto
          127 vlineto
          12 -10 10 -12 vhcurveto
          -15 hlineto
          -4 -4 -1 -2 -3 hvcurveto
          -49 -28 rlineto
          22 -47 -58 9 -57 hhcurveto
          -107 -107 -27 -71 -80 hvcurveto
          -49 -43 -34 -56 -17 -62 rrcurveto
          -68 96 callsubr
          65 hlineto
          -1 -12 -1 -11 -12 vvcurveto
          -12 1 -11 1 -12 vhcurveto
          -57 96 callsubr
          76 hlineto
          17 -62 34 -56 49 -43 rrcurveto
          -71 80 107 -27 107 hhcurveto
          57 58 9 22 47 hvcurveto
          49 -28 rlineto
          -2 3 4 -1 4 hhcurveto
          15 hlineto
          12 10 10 12 hvcurveto
          endchar
        </CharString>
        <CharString name="F">
          -127 0 67 239 67 238 67 -30 callsubr
          0 83 119 83 138 83 hintmask 11110000
          860 472 rmoveto
          -39 206 rlineto
          -729 79 callgsubr
          239 vlineto
          hintmask 01101110
          83 hlineto
          67 50 -6 -77 2 hvcurveto
          83 233 -83 hlineto
          -77 -2 -50 -6 -67 hhcurveto
          -83 238 197 hlineto
          105 96 -10 -129 25 hvcurveto
          endchar
        </CharString>
        <CharString name="G">
          104 -17 67 153 63 -63 67 366 67 -7 callsubr
          hintmask 10111100
          -98 callsubr
          endchar
        </CharString>
        <CharString name="Gacute">
          104 -17 19 callgsubr
          69 -21 194 -20 -7 callsubr
          hintmask 10110011
          -98 callsubr
          hintmask 00001100
          -217 670 -106 callgsubr
        </CharString>
        <CharString name="Gamma">
          -168 0 67 544 56 callsubr
          vstem
          820 472 rmoveto
          -39 206 rlineto
          -689 79 callgsubr
          544 172 vlineto
          103 83 -12 -127 25 hvcurveto
          endchar
        </CharString>
        <CharString name="Gbreve">
          104 -17 19 callgsubr
          48 82 101 -20 -7 callsubr
          hintmask 10110011
          -98 callsubr
          hintmask 00001100
          -169 731 -104 callgsubr
          endchar
        </CharString>
        <CharString name="Gcaron">
          104 -17 19 callgsubr
          59 131 callgsubr
          -7 callsubr
          hintmask 10110011
          -98 callsubr
          hintmask 00001100
          -223 679 -62 callgsubr
        </CharString>
        <CharString name="Gcedilla">
          26 callgsubr
          hintmask 11101111
          -98 callsubr
          -327 -354 -99 callgsubr
        </CharString>
        <CharString name="Gcircumflex">
          104 -17 19 callgsubr
          59 131 callgsubr
          -7 callsubr
          hintmask 10110011
          -98 callsubr
          hintmask 00001100
          -223 562 -55 callsubr
        </CharString>
        <CharString name="Gcommaaccent">
          26 callgsubr
          hintmask 00101111
          -98 callsubr
          hintmask 11000000
          -327 -354 -99 callgsubr
        </CharString>
        <CharString name="Gdotaccent">
          104 -17 19 callgsubr
          55 167 hstemhm
          98 172 229 172 156 156 hintmask 00100000
          1084 203 rmoveto
          67 vlineto
          hintmask 01000000
          -192 -4 rlineto
          hintmask 10110101
          -98 callsubr
          hintmask 00001010
          -312 638 -100 callgsubr
        </CharString>
        <CharString name="H">
          88 0 67 256 67 229 67 hstem
          198 156 445 156 vstem
          -79 callgsubr
          endchar
        </CharString>
        <CharString name="H_uni0303">
          72 callsubr
          55 99 -43 99 -30 callsubr
          445 156 hintmask 11100110
          -79 callgsubr
          hintmask 00001000
          -60 849 -87 callgsubr
        </CharString>
        <CharString name="Hbar">
          88 48 callsubr
          92 66 71 97 callgsubr
          415 106 66 -106 71 -81 callsubr
          -71 -445 71 -81 callsubr
          -71 -106 -66 106 -415 91 callsubr
          184 53 callsubr
          256 445 -256 39 callsubr
          -78 386 rmoveto
          -445 92 445 hlineto
          endchar
        </CharString>
        <CharString name="Hbrevebelow">
          88 -207 82 101 -20 44 67 256 67 229 67 -30 callsubr
          445 156 hintmask 00111110
          -79 callgsubr
          hintmask 11000000
          -72 -28 -104 callgsubr
          endchar
        </CharString>
        <CharString name="Hcircumflex">
          72 callsubr
          52 callgsubr
          198 156 445 156 hintmask 11100110
          -79 callgsubr
          hintmask 00011000
          -126 761 -55 callsubr
        </CharString>
        <CharString name="Hdieresis">
          72 callsubr
          55 150 -30 callsubr
          -23 31 callgsubr
          -23 156 hintmask 11101001
          -79 callgsubr
          hintmask 00010110
          -391 811 -75 callgsubr
        </CharString>
        <CharString name="Hdotbelow">
          72 callsubr
          -30 callsubr
          136 172 137 156 hintmask 11110100
          -79 callgsubr
          hintmask 00001000
          -215 -121 -100 callgsubr
        </CharString>
        <CharString name="I">
          13 callgsubr
          hstem
          197 156 vstem
          -91 callgsubr
          endchar
        </CharString>
        <CharString name="I_J">
          205 -17 56 -39 27 callsubr
          hstemhm
          197 156 208 103 callsubr
          hintmask 01110100
          -91 callgsubr
          690 619 rmoveto
          67 vlineto
          -163 -4 rlineto
          -54 -97 0 4 -50 hvcurveto
          -67 137 -467 vlineto
          hintmask 10101100
          -68 -36 -45 -89 -8 -43 0 14 -40 vhcurveto
          2 2 21 23 36 vvcurveto
          59 -47 28 -39 -40 -47 -27 -61 -130 191 0 51 180 92 69 98 vhcurveto
          469 vlineto
          endchar
        </CharString>
        <CharString name="Iacute">
          13 callgsubr
          86 -21 194 -20 -78 callsubr
          hintmask 00110000
          -8 873 -106 callgsubr
        </CharString>
        <CharString name="Ibreve">
          13 callgsubr
          65 82 101 -20 -78 callsubr
          hintmask 00110000
          40 934 -104 callgsubr
          endchar
        </CharString>
        <CharString name="Icaron">
          13 callgsubr
          76 -21 165 -20 -78 callsubr
          hintmask 00110000
          -14 882 -62 callgsubr
        </CharString>
        <CharString name="Icircumflex">
          13 callgsubr
          76 -21 165 -20 -78 callsubr
          hintmask 00110000
          -14 765 -55 callsubr
        </CharString>
        <CharString name="Idblgrave">
          13 callgsubr
          86 -21 194 -20 -78 callsubr
          hintmask 00110000
          -1 813 rmoveto
          -92 callgsubr
        </CharString>
        <CharString name="Idieresis">
          137 callsubr
          hstemhm
          30 109 callsubr
          hintmask 11001000
          -91 callgsubr
          hintmask 00110100
          -279 815 -75 callgsubr
        </CharString>
        <CharString name="Idieresisacute">
          137 callsubr
          76 callgsubr
          30 109 callsubr
          hintmask 11000010
          -91 callgsubr
          hintmask 00111101
          -279 815 rmoveto
          -101 callgsubr
          336 hmoveto
          -101 callgsubr
          -65 258 -106 callgsubr
        </CharString>
        <CharString name="Idotaccent">
          13 callgsubr
          72 167 hstemhm
          189 172 -164 -75 callsubr
          hintmask 00110000
          -103 841 -100 callgsubr
        </CharString>
        <CharString name="Idotbelow">
          13 callgsubr
          hstemhm
          189 172 -164 156 hintmask 11010000
          -91 callgsubr
          hintmask 00100000
          -103 -117 -100 callgsubr
        </CharString>
        <CharString name="Igrave">
          13 callgsubr
          86 -21 194 -20 -78 callsubr
          hintmask 00110000
          -98 827 -89 callsubr
        </CharString>
        <CharString name="Ihookabove">
          13 callgsubr
          93 -21 188 -20 -78 callsubr
          hintmask 00110000
          -48 881 -107 callgsubr
        </CharString>
        <CharString name="Imacron">
          13 callgsubr
          75 71 hstemhm
          197 156 hintmask 11010000
          -91 callgsubr
          hintmask 00100000
          72 761 -33 callgsubr
        </CharString>
        <CharString name="Imacron.alt">
          13 callgsubr
          75 71 hstemhm
          197 156 hintmask 11010000
          -91 callgsubr
          hintmask 00100000
          -54 761 34 callsubr
        </CharString>
        <CharString name="Iogonek">
          -515 -235 96 139 27 callsubr
          hstem
          197 156 vstem
          464 hmoveto
          67 -111 552 111 67 vlineto
          -4 -61 -67 0 -61 hhcurveto
          -61 -67 0 4 -61 hvcurveto
          -67 111 -552 -111 -67 vlineto
          3 53 57 1 54 hhcurveto
          -37 -34 -31 -45 -39 46 callsubr
          -34 39 44 16 hvcurveto
          10 27 20 21 26 12 rrcurveto
          endchar
        </CharString>
        <CharString name="Iogonekacute">
          -515 -235 96 139 27 callsubr
          90 callgsubr
          197 156 hintmask 11100100
          464 hmoveto
          67 -111 552 111 67 vlineto
          -4 -61 -67 0 -61 hhcurveto
          -61 -67 0 4 -61 hvcurveto
          -67 111 -552 -111 -67 vlineto
          3 53 57 1 54 hhcurveto
          -37 -34 -31 -45 -39 46 callsubr
          -34 39 44 16 hvcurveto
          10 27 20 21 26 12 rrcurveto
          hintmask 00011000
          98 869 -106 callgsubr
        </CharString>
        <CharString name="Iota">
          13 callgsubr
          hstem
          197 156 vstem
          -91 callgsubr
          endchar
        </CharString>
        <CharString name="Itilde">
          13 callgsubr
          55 99 -43 99 -78 callsubr
          hintmask 00010000
          52 853 -92 callsubr
        </CharString>
        <CharString name="J">
          128 callsubr
          hstem
          66 103 callsubr
          vstem
          -47 callgsubr
          endchar
        </CharString>
        <CharString name="J_uni030C.cap">
          -290 -17 56 394 -21 145 129 -67 67 hstemhm
          66 103 callsubr
          hintmask 10011100
          -47 callgsubr
          274 -33 rmoveto
          -8 callgsubr
        </CharString>
        <CharString name="Jacute">
          128 callsubr
          90 callgsubr
          66 103 callsubr
          hintmask 11001100
          -47 callgsubr
          hintmask 00110000
          78 254 -106 callgsubr
        </CharString>
        <CharString name="Jcircumflex">
          128 callsubr
          52 callgsubr
          66 103 callsubr
          hintmask 11001100
          -47 callgsubr
          hintmask 00110000
          72 146 -55 callsubr
        </CharString>
        <CharString name="K">
          89 0 101 callgsubr
          439 156 vstem
          -63 callgsubr
          endchar
        </CharString>
        <CharString name="Kappa">
          89 0 101 callgsubr
          439 156 vstem
          -63 callgsubr
          endchar
        </CharString>
        <CharString name="Kcedilla">
          89 51 callsubr
          hstem
          198 156 439 156 vstem
          -63 callgsubr
          -428 -151 -99 callgsubr
        </CharString>
        <CharString name="Kcommaaccent">
          89 51 callsubr
          -30 callsubr
          439 156 hintmask 00111100
          -63 callgsubr
          hintmask 11000000
          -428 -151 -99 callgsubr
        </CharString>
        <CharString name="L">
          -168 0 101 callgsubr
          vstem
          -74 callsubr
          endchar
        </CharString>
        <CharString name="L_uni0303">
          83 callsubr
          55 99 -43 99 -30 callsubr
          hintmask 11001000
          -74 callsubr
          hintmask 00010000
          -260 853 -92 callsubr
        </CharString>
        <CharString name="Lacute">
          83 callsubr
          86 12 callsubr
          hintmask 11001000
          -74 callsubr
          hintmask 00110000
          -320 873 -106 callgsubr
        </CharString>
        <CharString name="Lambda">
          -32 0 67 644 -20 hstem
          963 hmoveto
          67 -90 vlineto
          -266 612 rlineto
          32 -14 -18 0 -21 hhcurveto
          -75 hlineto
          -32 -9 -6 -26 -11 hvcurveto
          -267 -612 rlineto
          -90 -67 hlineto
          4 49 32 0 47 hhcurveto
          150 -4 rlineto
          67 -85 vlineto
          220 506 220 -506 rlineto
          -85 -67 hlineto
          182 4 rlineto
          endchar
        </CharString>
        <CharString name="Lcaron">
          -168 0 67 366 -21 145 129 -67 67 -30 callsubr
          hintmask 10011000
          -74 callsubr
          -73 586 rmoveto
          -8 callgsubr
        </CharString>
        <CharString name="Lcedilla">
          -168 51 callsubr
          hstem
          198 156 vstem
          -74 callsubr
          -262 -151 -99 callgsubr
        </CharString>
        <CharString name="Lcommaaccent">
          -168 51 callsubr
          -30 callsubr
          hintmask 00111000
          -74 callsubr
          hintmask 11000000
          -262 -151 -99 callgsubr
        </CharString>
        <CharString name="Ldot">
          -168 0 67 283 167 102 56 callsubr
          285 172 vstem
          -74 callsubr
          30 433 -100 callgsubr
        </CharString>
        <CharString name="Ldotbelow">
          83 callsubr
          -30 callsubr
          9 172 hintmask 11100000
          -74 callsubr
          hintmask 00010000
          -246 -117 -100 callgsubr
        </CharString>
        <CharString name="Ldotbelowmacron">
          83 callsubr
          75 71 -30 callsubr
          9 172 hintmask 11011000
          -74 callsubr
          -246 -117 -101 callsubr
          hintmask 00100000
          15 878 -33 callgsubr
        </CharString>
        <CharString name="Lslash">
          83 callsubr
          hstem
          208 156 vstem
          830 229 rmoveto
          -83 hlineto
          -145 -28 -115 -17 -88 hhcurveto
          -152 294 hlineto
          245 140 -38 60 -207 -119 rlineto
          177 132 67 vlineto
          -4 -50 -102 0 -54 hhcurveto
          -188 26 callsubr
          -267 vlineto
          -95 -55 37 -59 58 33 rlineto
          -204 -106 -67 689 vlineto
          endchar
        </CharString>
        <CharString name="M">
          329 -23 callgsubr
          hstem
          210 91 752 131 vstem
          -45 callsubr
          endchar
        </CharString>
        <CharString name="Mdotbelow">
          329 -23 callgsubr
          hstemhm
          210 91 310 172 270 131 hintmask 11101000
          -45 callsubr
          hintmask 00010000
          -335 -121 -100 callgsubr
        </CharString>
        <CharString name="Mu">
          329 -23 callgsubr
          hstem
          210 91 752 131 vstem
          -45 callsubr
          endchar
        </CharString>
        <CharString name="N">
          88 -23 callgsubr
          hstem
          74 callsubr
          vstem
          -88 callsubr
          endchar
        </CharString>
        <CharString name="Nacute">
          88 -23 callgsubr
          86 -21 194 -20 127 callgsubr
          hintmask 11001100
          -88 callsubr
          hintmask 00110000
          -198 254 -106 callgsubr
        </CharString>
        <CharString name="Ncaron">
          88 -23 callgsubr
          76 -21 165 -20 127 callgsubr
          hintmask 11001100
          -88 callsubr
          hintmask 00110000
          -204 263 -62 callgsubr
        </CharString>
        <CharString name="Ncedilla">
          88 51 callsubr
          hstem
          74 callsubr
          vstem
          -88 callsubr
          -308 -770 -99 callgsubr
        </CharString>
        <CharString name="Ncommaaccent">
          88 51 callsubr
          127 callgsubr
          hintmask 00111100
          -88 callsubr
          hintmask 11000000
          -308 -770 -99 callgsubr
        </CharString>
        <CharString name="Ndotaccent">
          88 -23 callgsubr
          55 167 121 callsubr
          hintmask 11010100
          -88 callsubr
          hintmask 00101000
          -293 205 -100 callgsubr
        </CharString>
        <CharString name="Ndotbelow">
          88 -23 callgsubr
          121 callsubr
          hintmask 11101000
          -88 callsubr
          hintmask 00010000
          -293 -736 -100 callgsubr
        </CharString>
        <CharString name="Ntilde">
          88 -23 callgsubr
          55 99 -43 99 127 callgsubr
          hintmask 11001100
          -88 callsubr
          hintmask 00010000
          -138 234 -92 callsubr
        </CharString>
        <CharString name="Nu">
          88 -23 callgsubr
          hstem
          74 callsubr
          vstem
          -88 callsubr
          endchar
        </CharString>
        <CharString name="O">
          6 callgsubr
          hstem
          3 callgsubr
          vstem
          -105 callsubr
          endchar
        </CharString>
        <CharString name="OE">
          -46 callgsubr
        </CharString>
        <CharString name="OE.dup">
          -46 callgsubr
        </CharString>
        <CharString name="Oacute">
          6 callgsubr
          69 -21 194 -95 callgsubr
          -110 518 -106 callgsubr
        </CharString>
        <CharString name="Obreve">
          6 callgsubr
          48 82 101 -95 callgsubr
          -62 579 -104 callgsubr
          endchar
        </CharString>
        <CharString name="Ocaron">
          6 callgsubr
          59 -21 165 -67 callgsubr
          527 -62 callgsubr
        </CharString>
        <CharString name="Ocircumflex">
          6 callgsubr
          59 -21 165 -67 callgsubr
          410 -55 callsubr
        </CharString>
        <CharString name="Ocircumflexacute">
          6 callgsubr
          59 -21 394 -67 callgsubr
          410 80 callsubr
          322 -106 callgsubr
        </CharString>
        <CharString name="Ocircumflexdotbelow">
          6 callgsubr
          59 131 callgsubr
          115 callsubr
          hintmask 11111010
          -105 callsubr
          -116 410 -94 callsubr
          hintmask 00000100
          -73 -858 -100 callgsubr
        </CharString>
        <CharString name="Ocircumflexgrave">
          6 callgsubr
          59 -21 165 -67 callgsubr
          410 -71 callgsubr
        </CharString>
        <CharString name="Ocircumflexhookabove">
          6 callgsubr
          59 -21 368 -67 callgsubr
          410 -94 callsubr
          123 303 -107 callgsubr
        </CharString>
        <CharString name="Ocircumflextilde">
          6 callgsubr
          59 -21 220 99 -43 99 2 callsubr
          hintmask 11000110
          -105 callsubr
          hintmask 00101000
          -116 410 rmoveto
          -175 141 -175 -141 14 -24 160 58 160 -58 rlineto
          82 332 -87 callgsubr
        </CharString>
        <CharString name="Odblgrave">
          6 callgsubr
          69 -21 194 -95 callgsubr
          -103 458 rmoveto
          -92 callgsubr
        </CharString>
        <CharString name="Odieresis">
          6 callgsubr
          38 150 hstemhm
          98 172 46 31 callgsubr
          45 172 hintmask 11010010
          -105 callsubr
          hintmask 00101100
          -381 460 -75 callgsubr
        </CharString>
        <CharString name="Odotbelow">
          6 callgsubr
          115 callsubr
          hintmask 11101000
          -105 callsubr
          hintmask 00010000
          -205 -472 -100 callgsubr
        </CharString>
        <CharString name="Ograve">
          6 callgsubr
          69 -21 194 -95 callgsubr
          -200 472 -89 callsubr
        </CharString>
        <CharString name="Ohookabove">
          6 callgsubr
          76 -21 188 -95 callgsubr
          -150 526 -107 callgsubr
        </CharString>
        <CharString name="Ohorn">
          92 callgsubr
          116 -20 38 callsubr
          hintmask 11111000
          -82 callgsubr
          hintmask 11010100
          -68 callgsubr
          endchar
        </CharString>
        <CharString name="Ohornacute">
          92 callgsubr
          69 -21 68 -20 146 -20 38 callsubr
          hintmask 11010110
          -82 callgsubr
          hintmask 11000101
          -68 callgsubr
          hintmask 00101000
          -147 516 -106 callgsubr
        </CharString>
        <CharString name="Ohorndotbelow">
          92 callgsubr
          116 -20 hstemhm
          97 172 206 172 148 133 -79 172 hintmask 11110100
          -82 callgsubr
          hintmask 11010010
          -68 callgsubr
          hintmask 00001000
          -202 -474 -100 callgsubr
        </CharString>
        <CharString name="Ohorngrave">
          92 callgsubr
          69 -21 68 -20 146 -20 38 callsubr
          hintmask 11010110
          -82 callgsubr
          hintmask 11000101
          -68 callgsubr
          hintmask 00101000
          -197 470 -89 callsubr
        </CharString>
        <CharString name="Ohornhookabove">
          92 callgsubr
          76 -21 61 -20 147 -20 38 callsubr
          hintmask 11010110
          -82 callgsubr
          hintmask 11000101
          -68 callgsubr
          hintmask 00101000
          -147 524 -107 callgsubr
        </CharString>
        <CharString name="Ohorntilde">
          92 callgsubr
          38 99 -43 99 38 callsubr
          hintmask 11001100
          -82 callgsubr
          hintmask 11001010
          -68 callgsubr
          hintmask 00010000
          -47 496 -92 callsubr
        </CharString>
        <CharString name="Ohungarumlaut">
          6 callgsubr
          69 -21 194 -95 callgsubr
          -279 517 -77 callgsubr
        </CharString>
        <CharString name="Omacron">
          6 callgsubr
          58 71 2 callsubr
          hintmask 11011000
          -105 callsubr
          hintmask 00100000
          -30 406 -33 callgsubr
        </CharString>
        <CharString name="Omega">
          -39 callsubr
        </CharString>
        <CharString name="Omicron">
          6 callgsubr
          hstem
          3 callgsubr
          vstem
          -105 callsubr
          endchar
        </CharString>
        <CharString name="Oogonek">
          57 -15 62 594 62 hstem
          123 callgsubr
          vstem
          -32 callgsubr
          endchar
        </CharString>
        <CharString name="Oogonekacute">
          57 -15 62 594 62 69 -21 194 -20 hstemhm
          123 callgsubr
          hintmask 11001110
          -32 callgsubr
          hintmask 00110000
          -110 518 -106 callgsubr
        </CharString>
        <CharString name="Orogate">
          57 98 172 263 56 263 172 vstem
          20 callsubr
          176 -128 178 -307 11 vhcurveto
          178 -56 -178 vlineto
          -308 -11 -127 -179 -175 vvcurveto
          -171 128 -174 307 -10 vhcurveto
          -177 56 177 vlineto
          308 10 127 175 170 vvcurveto
          -172 17 rmoveto
          -184 -85 -124 -206 -220 -71 140 168 66 11 88 65 62 vhcurveto
          57 62 88 13 65 hhcurveto
          65 83 -12 -57 65 hvcurveto
          66 -58 12 -91 -68 vvcurveto
          endchar
        </CharString>
        <CharString name="Oslash">
          95 callsubr
          hstem
          98 156 653 156 vstem
          -66 callsubr
          endchar
        </CharString>
        <CharString name="Oslash.dup">
          95 callsubr
          hstem
          98 156 653 156 vstem
          -66 callsubr
          endchar
        </CharString>
        <CharString name="Oslashacute">
          95 callsubr
          36 75 callgsubr
          156 653 156 hintmask 11110011
          -66 callsubr
          hintmask 00001100
          -146 535 -106 callgsubr
        </CharString>
        <CharString name="Otilde">
          6 callgsubr
          38 99 -43 99 -96 callgsubr
          hintmask 00010000
          -50 498 -92 callsubr
        </CharString>
        <CharString name="P">
          -8 callsubr
        </CharString>
        <CharString name="Phi">
          16 0 67 104 56 232 56 104 67 hstem
          98 164 201 139 217 164 vstem
          983 343 rmoveto
          95 -143 68 -238 9 vhcurveto
          104 81 callgsubr
          -105 vlineto
          -143 -3 -222 -48 -120 vvcurveto
          -120 222 -48 143 -3 vhcurveto
          68 callsubr
          237 9 144 68 95 vvcurveto
          -520 -116 rmoveto
          -79 4 -122 13 99 vvcurveto
          98 119 14 82 4 vhcurveto
          356 -116 rmoveto
          -101 -130 -15 -87 vhcurveto
          232 vlineto
          88 129 -15 -101 hvcurveto
          endchar
        </CharString>
        <CharString name="Pi">
          88 0 67 544 97 callgsubr
          544 106 67 -969 -67 106 -544 91 callsubr
          184 53 callsubr
          544 445 -544 39 callsubr
          endchar
        </CharString>
        <CharString name="Psi">
          96 0 67 411 59 82 67 hstem
          189 139 175 139 191 139 vstem
          1063 509 rmoveto
          28 -21 0 -17 vhcurveto
          -69 hlineto
          -34 -27 -7 -32 -31 hvcurveto
          -29 -32 -1 -42 -1 -23 -3 -111 -84 -50 -104 -11 rrcurveto
          390 81 callgsubr
          -389 vlineto
          -107 12 -66 60 -2 100 rrcurveto
          91 -2 -52 44 -69 hhcurveto
          -69 hlineto
          -17 -21 0 -28 -25 16 -2 16 -1 hvcurveto
          39 -5 19 -36 1 -23 2 -71 21 -71 88 -52 43 -25 70 -22 90 -4 rrcurveto
          68 callsubr
          92 5 69 18 55 29 86 47 26 81 2 50 1 22 2 52 60 6 rrcurveto
          10 1 18 2 25 vvcurveto
          endchar
        </CharString>
        <CharString name="Q">
          57 -194 172 5 62 -54 62 56 56 476 62 hstemhm
          98 164 598 164 hintmask 11001110
          1032 -6 rmoveto
          5 0 26 -25 -7 -14 -4 -18 -4 vhcurveto
          -12 -2 -2 -13 -91 hhcurveto
          -36 -28 0 39 -42 hvcurveto
          159 55 84 126 140 vvcurveto
          181 -136 184 -327 -328 -135 -185 -180 -176 136 -179 327 vhcurveto
          hintmask 10111110
          10 49 0 8 59 hvcurveto
          -101 43 36 -84 101 hhcurveto
          108 65 103 85 hvcurveto
          -172 344 rmoveto
          -91 -22 -116 -117 -54 vhcurveto
          47 -48 -42 41 -72 hhcurveto
          -64 -63 -29 -60 -5 0 -3 1 -4 hvcurveto
          -132 45 -39 109 120 vvcurveto
          88 21 79 46 49 vhcurveto
          60 58 77 27 97 hhcurveto
          81 82 -18 -64 64 hvcurveto
          61 -62 11 -95 -64 vvcurveto
          -213 -285 rmoveto
          hintmask 01010000
          -8 -40 -28 0 -18 hhcurveto
          -23 -50 0 31 27 51 6 20 hvcurveto
          hintmask 00100000
          27 33 -8 -48 28 hvcurveto
          endchar
        </CharString>
        <CharString name="R">
          5 callsubr
          hstem
          202 148 181 30 callgsubr
          -100 callsubr
          endchar
        </CharString>
        <CharString name="Racute">
          60 callgsubr
          181 30 callgsubr
          -100 callsubr
          hintmask 11101000
          -1 378 -106 callgsubr
        </CharString>
        <CharString name="Rcaron">
          60 callgsubr
          181 30 callgsubr
          -100 callsubr
          hintmask 11100000
          -7 387 -62 callgsubr
        </CharString>
        <CharString name="Rcedilla">
          5 callsubr
          hstem
          202 148 181 30 callgsubr
          -100 callsubr
          -111 -646 -99 callgsubr
        </CharString>
        <CharString name="Rcommaaccent">
          60 callgsubr
          181 30 callgsubr
          -100 callsubr
          hintmask 11100000
          -111 -646 -99 callgsubr
        </CharString>
        <CharString name="Rdblgrave">
          60 callgsubr
          181 30 callgsubr
          -100 callsubr
          hintmask 11100000
          -34 318 rmoveto
          -92 callgsubr
        </CharString>
        <CharString name="Rdotaccent">
          60 callgsubr
          115 172 -106 30 callgsubr
          hintmask 11110110
          -100 callsubr
          hintmask 11101000
          -96 346 -100 callgsubr
        </CharString>
        <CharString name="Rdotbelow">
          60 callgsubr
          115 172 -106 30 callgsubr
          hintmask 11110110
          -100 callsubr
          hintmask 11101000
          -96 -612 -100 callgsubr
        </CharString>
        <CharString name="Rdotbelowmacron">
          60 callgsubr
          115 172 -106 30 callgsubr
          hintmask 11110110
          -100 callsubr
          -96 -612 rmoveto
          48 -40 36 -46 vhcurveto
          hintmask 11101000
          -48 -38 -38 -45 -48 40 -36 46 48 38 38 45 hvcurveto
          hintmask 11100000
          175 878 -33 callgsubr
        </CharString>
        <CharString name="Rho">
          -8 callsubr
        </CharString>
        <CharString name="S">
          85 callgsubr
          hstem
          129 callgsubr
          vstem
          741 197 rmoveto
          -102 callgsubr
          rrcurveto
          -38 68 100 -11 88 hhcurveto
          246 42 147 67 hvcurveto
          endchar
        </CharString>
        <CharString name="S_S">
          613 -17 67 592 61 hstem
          129 callgsubr
          196 100 443 100 vstem
          741 197 rmoveto
          -102 callgsubr
          rrcurveto
          -38 68 100 -11 88 hhcurveto
          246 42 147 67 hvcurveto
          839 hmoveto
          -102 callgsubr
          rrcurveto
          -38 68 100 -11 88 hhcurveto
          246 42 147 67 hvcurveto
          endchar
        </CharString>
        <CharString name="Sacute">
          85 callgsubr
          65 callsubr
          100 443 100 hintmask 11001100
          741 197 rmoveto
          -102 callgsubr
          rrcurveto
          -38 68 100 -11 88 hhcurveto
          246 42 147 67 hvcurveto
          hintmask 00110000
          -141 676 -106 callgsubr
        </CharString>
        <CharString name="Scaron">
          85 callgsubr
          59 131 callgsubr
          hstemhm
          129 callgsubr
          hintmask 11001100
          741 197 rmoveto
          -102 callgsubr
          rrcurveto
          -38 68 100 -11 88 hhcurveto
          246 42 147 67 hvcurveto
          hintmask 00110000
          -147 685 -62 callgsubr
        </CharString>
        <CharString name="Scedilla">
          85 callgsubr
          hstem
          98 100 215 100 128 100 vstem
          741 197 rmoveto
          -102 callgsubr
          53 -30 72 -13 72 -4 rrcurveto
          -51 19 vlineto
          -44 callsubr
          59 -47 30 -88 9 vhcurveto
          193 22 35 128 61 vvcurveto
          endchar
        </CharString>
        <CharString name="Scircumflex">
          85 callgsubr
          59 131 callgsubr
          hstemhm
          129 callgsubr
          hintmask 11001100
          741 197 rmoveto
          -102 callgsubr
          rrcurveto
          -38 68 100 -11 88 hhcurveto
          246 42 147 67 hvcurveto
          hintmask 00110000
          -147 568 -55 callsubr
        </CharString>
        <CharString name="Sdotbelow">
          85 callgsubr
          hstemhm
          98 100 135 172 136 100 hintmask 11101000
          741 197 rmoveto
          -102 callgsubr
          rrcurveto
          -38 68 100 -11 88 hhcurveto
          246 42 147 67 hvcurveto
          hintmask 00010000
          -236 -314 -100 callgsubr
        </CharString>
        <CharString name="Sigma">
          16 0 84 535 67 hstem
          98 527 vstem
          983 223 rmoveto
          -83 hlineto
          -15 -75 -61 -37 -36 -10 rrcurveto
          -11 -41 -68 -6 -70 hhcurveto
          -299 hlineto
          299 234 rlineto
          11 9 5 4 12 vvcurveto
          11 -3 3 -10 9 vhcurveto
          -270 253 rlineto
          256 hlineto
          18 106 -1 -15 59 hvcurveto
          39 -11 63 -36 17 -76 rrcurveto
          83 hlineto
          -39 206 rlineto
          -808 hlineto
          -22 -16 0 -34 -18 2 -3 12 -11 hvcurveto
          333 -311 -333 -260 rlineto
          -9 -7 -5 -9 -8 vvcurveto
          -25 24 0 14 vhcurveto
          808 hlineto
          endchar
        </CharString>
        <CharString name="T">
          91 callgsubr
          hstem
          443 156 vstem
          -86 callsubr
          endchar
        </CharString>
        <CharString name="T_uni0303">
          91 callgsubr
          72 99 -43 99 hstemhm
          443 156 hintmask 11001000
          -86 callsubr
          hintmask 00010000
          -128 390 -92 callsubr
        </CharString>
        <CharString name="T_uni0308">
          91 callgsubr
          72 150 hstemhm
          276 109 callsubr
          hintmask 11001000
          -86 callsubr
          hintmask 00110100
          -459 352 -75 callgsubr
        </CharString>
        <CharString name="Tau">
          91 callgsubr
          hstem
          443 156 vstem
          -86 callsubr
          endchar
        </CharString>
        <CharString name="Tcaron">
          91 callgsubr
          93 131 callgsubr
          hstemhm
          443 156 hintmask 11001000
          -86 callsubr
          hintmask 00110000
          -194 419 -62 callgsubr
        </CharString>
        <CharString name="Tcedilla">
          -23 -215 56 93 56 10 141 callgsubr
          hstem
          443 156 22 133 vstem
          -86 callsubr
          -136 -575 23 callgsubr
          -44 callsubr
          endchar
        </CharString>
        <CharString name="Tdotbelow">
          91 callgsubr
          hstemhm
          435 172 -164 156 hintmask 11010000
          -86 callsubr
          hintmask 00100000
          -283 -580 -100 callgsubr
        </CharString>
        <CharString name="Theta">
          96 -17 59 235 136 234 56 hstem
          98 155 82 83 325 83 82 155 vstem
          1063 338 rmoveto
          177 -138 188 -344 -349 -134 -191 -174 -172 136 -183 346 351 132 186 169 vhcurveto
          -155 1 rmoveto
          -219 -146 -78 -181 -190 -138 84 213 219 140 89 187 197 131 -96 -212 vhcurveto
          -82 -96 rmoveto
          204 -83 -34 -325 34 -83 -204 83 34 325 -34 vlineto
          endchar
        </CharString>
        <CharString name="Thorn">
          -127 1 66 111 67 262 67 45 66 hstem
          206 139 330 164 vstem
          839 376 rmoveto
          110 -108 88 -185 vhcurveto
          -201 45 105 66 hlineto
          -174 -3 -175 3 rlineto
          -66 105 -552 -105 -66 vlineto
          174 3 175 -3 rlineto
          66 -105 111 186 vlineto
          246 62 120 78 hvcurveto
          -164 1 rmoveto
          -53 -34 -79 -154 vhcurveto
          -142 262 169 hlineto
          121 40 -70 -60 hvcurveto
          endchar
        </CharString>
        <CharString name="Tlinebelow">
          -23 -151 71 80 141 callgsubr
          hstemhm
          443 156 hintmask 01110000
          -86 callsubr
          hintmask 10000000
          -108 -614 -33 callgsubr
        </CharString>
        <CharString name="U">
          17 callgsubr
          56 callsubr
          487 94 vstem
          -104 callsubr
          endchar
        </CharString>
        <CharString name="U_uni032F">
          68 -186 -21 101 82 7 67 569 67 -30 callsubr
          487 94 hintmask 00111100
          -104 callsubr
          hintmask 11000000
          -105 -826 -58 callsubr
        </CharString>
        <CharString name="Uacute">
          17 callgsubr
          67 86 12 callsubr
          487 94 hintmask 11001100
          -104 callsubr
          hintmask 00110000
          -153 254 -106 callgsubr
        </CharString>
        <CharString name="Ubreve">
          17 callgsubr
          67 65 82 101 -20 -30 callsubr
          487 94 hintmask 11001100
          -104 callsubr
          hintmask 00110000
          -105 315 -104 callgsubr
          endchar
        </CharString>
        <CharString name="Ucaron">
          17 callgsubr
          67 52 callgsubr
          198 156 487 94 hintmask 11001100
          -104 callsubr
          hintmask 00110000
          -159 263 -62 callgsubr
        </CharString>
        <CharString name="Ucircumflex">
          17 callgsubr
          67 52 callgsubr
          198 156 487 94 hintmask 11001100
          -104 callsubr
          hintmask 00110000
          -159 146 -55 callsubr
        </CharString>
        <CharString name="Udblgrave">
          17 callgsubr
          67 86 12 callsubr
          487 94 hintmask 11001100
          -104 callsubr
          hintmask 00110000
          -146 194 rmoveto
          -92 callgsubr
        </CharString>
        <CharString name="Udieresis">
          17 callgsubr
          67 55 150 -30 callsubr
          2 31 callgsubr
          -6 94 hintmask 11010010
          -104 callsubr
          hintmask 00101100
          -28 callsubr
          endchar
        </CharString>
        <CharString name="Udieresisacute">
          17 callgsubr
          67 55 150 81 12 callsubr
          2 31 callgsubr
          -6 94 hintmask 1100010010000000
          -104 callsubr
          hintmask 0011101100000000
          -28 callsubr
          -65 258 -106 callgsubr
        </CharString>
        <CharString name="Udieresiscaron">
          17 callgsubr
          67 55 150 71 131 callgsubr
          -30 callsubr
          2 31 callgsubr
          -6 94 hintmask 1100010010000000
          -104 callsubr
          hintmask 0011101100000000
          -28 callsubr
          -71 267 -62 callgsubr
        </CharString>
        <CharString name="Udieresisgrave">
          17 callgsubr
          67 55 150 81 12 callsubr
          2 31 callgsubr
          -6 94 hintmask 1100010010000000
          -104 callsubr
          hintmask 0011101100000000
          -28 callsubr
          -155 212 -89 callsubr
        </CharString>
        <CharString name="Udotbelow">
          17 callgsubr
          67 -30 callsubr
          161 172 154 94 hintmask 11101000
          -104 callsubr
          hintmask 00010000
          -248 -736 -100 callgsubr
        </CharString>
        <CharString name="Ugrave">
          17 callgsubr
          67 86 12 callsubr
          487 94 hintmask 11001100
          -104 callsubr
          hintmask 00110000
          -243 208 -89 callsubr
        </CharString>
        <CharString name="Uhookabove">
          17 callgsubr
          67 93 -21 188 -20 -30 callsubr
          487 94 hintmask 11001100
          -104 callsubr
          hintmask 00110000
          -193 262 -107 callgsubr
        </CharString>
        <CharString name="Uhorn">
          15 callsubr
          66 -20 39 callgsubr
          hintmask 0010110110000000
          -33 callsubr
          hintmask 1101001110000000
          -83 callgsubr
          endchar
        </CharString>
        <CharString name="Uhornacute">
          15 callsubr
          19 -21 68 -20 146 -20 39 callgsubr
          hintmask 0010101001100000
          -33 callsubr
          hintmask 1101000011100000
          -83 callgsubr
          hintmask 0000010100000000
          -332 141 -106 callgsubr
        </CharString>
        <CharString name="Uhorndotbelow">
          15 callsubr
          66 -20 hstemhm
          196 156 128 172 186 95 6 134 hintmask 0010110011000000
          -33 callsubr
          hintmask 1101001011000000
          -83 callgsubr
          hintmask 0000000100000000
          -421 -849 -100 callgsubr
        </CharString>
        <CharString name="Uhorngrave">
          15 callsubr
          19 -21 68 -20 146 -20 39 callgsubr
          hintmask 0010101001100000
          -33 callsubr
          hintmask 1101000011100000
          -83 callgsubr
          hintmask 0000010100000000
          -382 95 -89 callsubr
        </CharString>
        <CharString name="Uhornhookabove">
          15 callsubr
          26 -21 61 -20 147 -20 39 callgsubr
          hintmask 0010101001100000
          -33 callsubr
          hintmask 1101000011100000
          -83 callgsubr
          hintmask 0000010100000000
          -332 149 -107 callgsubr
        </CharString>
        <CharString name="Uhorntilde">
          15 callsubr
          -12 99 -43 99 39 callgsubr
          hintmask 0010100011000000
          -33 callsubr
          hintmask 1101000111000000
          -83 callgsubr
          hintmask 0000001000000000
          -232 121 rmoveto
          -37 43 rlineto
          hintmask 0000010000000000
          -20 -23 -45 -36 -45 hhcurveto
          -28 -27 15 11 -17 hvcurveto
          hintmask 0000001000000000
          -90 callsubr
          hintmask 0000010000000000
          37 -43 rlineto
          hintmask 0000001000000000
          20 23 45 36 45 hhcurveto
          28 27 -15 -11 17 hvcurveto
          hintmask 0000010000000000
          -91 callsubr
        </CharString>
        <CharString name="Uhungarumlaut">
          17 callgsubr
          67 86 12 callsubr
          487 94 hintmask 11001100
          -104 callsubr
          hintmask 00110000
          -322 253 -77 callgsubr
        </CharString>
        <CharString name="Umacron">
          17 callgsubr
          67 75 71 -30 callsubr
          487 94 hintmask 11011000
          -104 callsubr
          hintmask 00100000
          -73 142 -33 callgsubr
        </CharString>
        <CharString name="Uogonek">
          68 -235 96 26 96 0 67 569 67 -30 callsubr
          0 156 269 156 -94 94 hintmask 00111001
          1041 619 rmoveto
          67 vlineto
          -1 -30 -58 -3 -65 hhcurveto
          -65 -55 2 2 -33 hvcurveto
          -67 106 -385 vlineto
          -141 -122 -43 -136 -185 -44 81 100 vhcurveto
          388 -81 callsubr
          -387 vlineto
          -124 109 -118 250 -7 vhcurveto
          hintmask 11010110
          -27 -30 -20 -36 -31 46 callsubr
          -34 39 44 16 hvcurveto
          6 17 10 15 14 11 rrcurveto
          203 25 72 116 103 vvcurveto
          388 vlineto
          endchar
        </CharString>
        <CharString name="Upsilon">
          96 0 67 507 129 hstem
          98 98 307 156 306 98 vstem
          1063 552 rmoveto
          87 -96 64 -116 -120 -104 -83 -156 -46 vhcurveto
          107 -29 -87 132 -155 hhcurveto
          -116 -96 -64 -87 -28 21 0 16 hvcurveto
          20 hlineto
          24 8 1 26 5 hvcurveto
          23 5 65 0 33 hhcurveto
          32 65 0 -65 53 hvcurveto
          52 -63 6 -69 -35 vvcurveto
          -275 -132 -67 vlineto
          4 50 105 0 55 hhcurveto
          55 105 0 -4 50 hvcurveto
          67 -132 275 vlineto
          52 14 60 41 52 vhcurveto
          68 54 65 0 33 hhcurveto
          98 2 -14 -15 3 hvcurveto
          -21 5 16 0 16 hhcurveto
          20 hlineto
          16 21 0 28 hvcurveto
          endchar
        </CharString>
        <CharString name="Uring">
          17 callgsubr
          67 25 47 74 47 -30 callsubr
          86 89 144 89 79 94 hintmask 11001001
          -104 callsubr
          hintmask 00110110
          -262 176 -60 callsubr
        </CharString>
        <CharString name="Utilde">
          17 callgsubr
          67 55 99 -43 99 -30 callsubr
          487 94 hintmask 11001100
          -104 callsubr
          hintmask 00010000
          -93 234 -92 callsubr
        </CharString>
        <CharString name="V">
          49 130 callgsubr
          hstem
          53 1008 vstem
          1061 619 rmoveto
          67 vlineto
          -3 -43 -47 -1 -43 hhcurveto
          -151 -10 callgsubr
          80 vlineto
          -270 -523 -270 523 rlineto
          81 67 hlineto
          -181 -4 -164 -10 callgsubr
          98 vlineto
          311 -603 rlineto
          -32 17 15 -1 24 hhcurveto
          78 hlineto
          21 17 0 30 16 hvcurveto
          313 606 rlineto
          endchar
        </CharString>
        <CharString name="W">
          103 callgsubr
          hstem
          -84 callsubr
          endchar
        </CharString>
        <CharString name="Wacute">
          103 callgsubr
          90 callgsubr
          hintmask 11000000
          -84 callsubr
          hintmask 00110000
          -438 254 -106 callgsubr
        </CharString>
        <CharString name="Wcircumflex">
          103 callgsubr
          52 callgsubr
          hintmask 11000000
          -84 callsubr
          hintmask 00110000
          -444 146 -55 callsubr
        </CharString>
        <CharString name="Wdieresis">
          103 callgsubr
          55 150 hstemhm
          513 31 callgsubr
          hintmask 11000000
          -84 callsubr
          hintmask 00111000
          -709 25 callgsubr
        </CharString>
        <CharString name="Wgrave">
          103 callgsubr
          90 callgsubr
          hintmask 11000000
          -84 callsubr
          hintmask 00110000
          -528 208 -89 callsubr
        </CharString>
        <CharString name="X">
          -26 callgsubr
        </CharString>
        <CharString name="Xi">
          -65 0 125 160 125 134 125 hstemhm
          77 83 -75 83 -71 83 38 83 398 83 -46 83 13 83 -75 83 hintmask 0010010000000000
          915 482 rmoveto
          -12 187 rlineto
          -806 hlineto
          hintmask 0010100001000000
          -12 -187 rlineto
          83 hlineto
          0 2 55 21 4 vhcurveto
          4 39 3 32 hhcurveto
          468 hlineto
          15 51 -1 -3 12 hvcurveto
          9 -2 10 -24 1 -32 rrcurveto
          91 -288 rmoveto
          hintmask 1000010010100000
          -83 hlineto
          -1 -45 -12 -18 -8 -2 rrcurveto
          -4 -17 -38 0 -28 hhcurveto
          -472 hlineto
          -32 -45 2 3 -7 hvcurveto
          hintmask 1101001100100000
          0 -18 10 -2 54 vhcurveto
          -83 hlineto
          12 -194 rlineto
          822 hlineto
          -129 237 rmoveto
          221 -83 -48 -398 48 -83 -221 83 48 398 -48 vlineto
          endchar
        </CharString>
        <CharString name="Y">
          104 callgsubr
          hstem
          55 callsubr
          vstem
          -86 callgsubr
          endchar
        </CharString>
        <CharString name="Yacute">
          104 callgsubr
          90 callgsubr
          55 callsubr
          hintmask 11001100
          -86 callgsubr
          hintmask 00110000
          -213 254 -106 callgsubr
        </CharString>
        <CharString name="Ycircumflex">
          104 callgsubr
          52 callgsubr
          55 callsubr
          hintmask 11001100
          -86 callgsubr
          hintmask 00110000
          -219 146 -55 callsubr
        </CharString>
        <CharString name="Ydieresis">
          104 callgsubr
          55 150 hstemhm
          229 148 -65 155 16 148 17 155 hintmask 11010100
          -86 callgsubr
          hintmask 00101010
          -484 25 callgsubr
        </CharString>
        <CharString name="Ydotbelow">
          104 callgsubr
          hstemhm
          229 148 94 172 -160 148 hintmask 11101000
          -86 callgsubr
          hintmask 00010000
          -308 -736 -100 callgsubr
        </CharString>
        <CharString name="Ygrave">
          104 callgsubr
          90 callgsubr
          55 callsubr
          hintmask 11001100
          -86 callgsubr
          hintmask 00110000
          -303 208 -89 callsubr
        </CharString>
        <CharString name="Yhookabove">
          104 callgsubr
          93 130 callsubr
          55 callsubr
          hintmask 11001100
          -86 callgsubr
          hintmask 00110000
          -253 262 -107 callgsubr
        </CharString>
        <CharString name="Ytilde">
          104 callgsubr
          55 99 -43 99 hstemhm
          55 callsubr
          hintmask 11001100
          -86 callgsubr
          hintmask 00010000
          -153 234 -92 callsubr
        </CharString>
        <CharString name="Z">
          67 callgsubr
          hstem
          98 732 vstem
          -79 callsubr
          endchar
        </CharString>
        <CharString name="Zacute">
          67 callgsubr
          86 75 callgsubr
          732 hintmask 11001000
          -79 callsubr
          hintmask 00110000
          -166 873 -106 callgsubr
        </CharString>
        <CharString name="Zcaron">
          67 callgsubr
          52 callgsubr
          98 732 hintmask 11001000
          -79 callsubr
          hintmask 00110000
          -172 882 -62 callgsubr
        </CharString>
        <CharString name="Zdotaccent">
          67 callgsubr
          72 167 hstemhm
          98 732 -456 172 hintmask 11010000
          -79 callsubr
          hintmask 00101000
          -261 841 -100 callgsubr
        </CharString>
        <CharString name="Zdotbelow">
          67 callgsubr
          hstemhm
          98 732 -456 172 hintmask 11100000
          -79 callsubr
          hintmask 00010000
          -261 -117 -100 callgsubr
        </CharString>
        <CharString name="Zeta">
          67 callgsubr
          hstem
          98 732 vstem
          -79 callsubr
          endchar
        </CharString>
        <CharString name="a">
          -50 callsubr
          hstem
          -11 callsubr
          vstem
          -107 callsubr
          endchar
        </CharString>
        <CharString name="aacute">
          -50 callsubr
          71 -21 194 -103 callgsubr
          82 408 -106 callgsubr
        </CharString>
        <CharString name="abreve">
          -50 callsubr
          56 82 101 -103 callgsubr
          28 callsubr
          endchar
        </CharString>
        <CharString name="abreveacute">
          -50 callsubr
          56 82 330 -103 callgsubr
          130 475 -52 callsubr
        </CharString>
        <CharString name="abrevedotbelow">
          -50 callsubr
          56 82 101 -20 hstemhm
          58 133 92 172 13 133 hintmask 11111101
          -107 callsubr
          28 callsubr
          hintmask 00000010
          -143 -812 -100 callgsubr
        </CharString>
        <CharString name="abrevegrave">
          -50 callsubr
          56 82 101 -103 callgsubr
          130 475 -49 callsubr
        </CharString>
        <CharString name="abrevehookabove">
          -50 callsubr
          56 82 304 -103 callgsubr
          28 callsubr
          -88 138 -107 callgsubr
        </CharString>
        <CharString name="abrevetilde">
          -50 callsubr
          56 122 callsubr
          58 133 277 133 hintmask 1110000011000000
          -107 callsubr
          hintmask 0001000100000000
          28 callsubr
          12 167 rmoveto
          -37 43 rlineto
          hintmask 0000100000000000
          -20 -23 -45 -36 -45 hhcurveto
          hintmask 0000001000000000
          -28 -27 15 11 -17 hvcurveto
          hintmask 0000000100000000
          18 -31 -22 12 -29 hhcurveto
          -45 -41 -34 -18 -22 hvcurveto
          hintmask 0000001000000000
          -24 -19 18 12 -64 -53 rrcurveto
          hintmask 0000100000000000
          37 -43 rlineto
          hintmask 0000000100000000
          20 23 45 36 45 hhcurveto
          hintmask 0000010000000000
          28 27 -15 -11 17 hvcurveto
          hintmask 0000100000000000
          -82 callsubr
          hintmask 0000010000000000
          24 19 -18 -12 64 53 rrcurveto
          endchar
        </CharString>
        <CharString name="acaron">
          -50 callsubr
          65 -21 207 -103 callgsubr
          78 465 -55 callgsubr
        </CharString>
        <CharString name="acircumflex">
          -50 callsubr
          65 -21 207 -103 callgsubr
          78 302 -65 callgsubr
          endchar
        </CharString>
        <CharString name="acircumflexacute">
          -50 callsubr
          65 -21 394 -103 callgsubr
          71 callsubr
          -23 322 -106 callgsubr
        </CharString>
        <CharString name="acircumflexdotbelow">
          -50 callsubr
          65 -21 207 -20 hstemhm
          58 133 92 172 13 133 hintmask 11111101
          -107 callsubr
          78 302 -65 callgsubr
          hintmask 00000010
          -71 -617 -100 callgsubr
        </CharString>
        <CharString name="acircumflexgrave">
          -50 callsubr
          65 -21 165 -103 callgsubr
          76 304 -71 callgsubr
        </CharString>
        <CharString name="acircumflexhookabove">
          -50 callsubr
          65 -21 368 -103 callgsubr
          71 callsubr
          123 303 -107 callgsubr
        </CharString>
        <CharString name="acircumflextilde">
          -50 callsubr
          65 -21 220 99 -43 99 5 callgsubr
          hintmask 11100011
          -107 callsubr
          hintmask 00010100
          76 304 -16 callgsubr
        </CharString>
        <CharString name="acute">
          527 40 callgsubr
          hstem
          560 628 -106 callgsubr
        </CharString>
        <CharString name="acute.cap">
          530 40 callgsubr
          hstem
          560 631 -106 callgsubr
        </CharString>
        <CharString name="acute.dup">
          527 40 callgsubr
          hstem
          560 628 -106 callgsubr
        </CharString>
        <CharString name="acute.ts1">
          529 -21 193 -20 hstem
          589 628 rmoveto
          36 -27 37 -38 vhcurveto
          -3 hlineto
          -26 -1 -22 -18 -21 -13 -89 -56 rcurveline
          -15 -9 -15 -11 -16 -8 35 -77 rcurveline
          59 17 58 22 60 16 rrcurveto
          34 11 26 17 37 vvcurveto
          endchar
        </CharString>
        <CharString name="adblgrave">
          -50 callsubr
          71 -21 194 -103 callgsubr
          89 348 rmoveto
          -92 callgsubr
        </CharString>
        <CharString name="adieresis">
          -50 callsubr
          72 150 hstemhm
          58 133 -41 16 callgsubr
          -121 133 hintmask 11101001
          -107 callsubr
          hintmask 00010110
          -163 382 -64 callsubr
        </CharString>
        <CharString name="adotbelow">
          -50 callsubr
          hstemhm
          58 133 92 172 13 133 hintmask 11110100
          -107 callsubr
          hintmask 00001000
          -13 -337 -100 callgsubr
        </CharString>
        <CharString name="ae">
          -62 callsubr
        </CharString>
        <CharString name="ae.dup">
          -62 callsubr
        </CharString>
        <CharString name="aeacute">
          16 -8 56 6 56 83 51 -47 51 99 56 -3 56 61 callsubr
          71 133 109 134 27 134 315 101 hintmask 0101100000010000
          1024 -51 callsubr
          hintmask 0000010000000000
          44 -54 -64 9 -59 hhcurveto
          -77 -76 -15 -47 -65 hvcurveto
          62 -69 -118 0 -41 hhcurveto
          -72 -148 0 -108 -48 35 -28 40 hvcurveto
          hintmask 0000100000000000
          44 31 32 43 17 -5 16 -9 12 hvcurveto
          hintmask 1110010011110000
          8 37 30 0 18 hhcurveto
          89 53 -34 -79 hvcurveto
          -43 -27 vlineto
          -64 -81 -8 -9 -51 hvcurveto
          -113 -20 -67 -27 -68 vvcurveto
          -120 173 0 69 105 102 4 58 45 vhcurveto
          -52 76 90 -10 66 hhcurveto
          19 73 0 28 56 hvcurveto
          59 30 20 48 12 vvcurveto
          -101 138 rmoveto
          hintmask 1001010010110000
          -315 hlineto
          61 3 24 91 142 hhcurveto
          119 23 -82 -70 4 hvcurveto
          -430 -125 rmoveto
          -70 -116 -5 -52 -78 -43 28 37 60 175 15 24 1 vhcurveto
          hintmask 0010000000000000
          3 33 36 1 5 hhcurveto
          2 -14 2 -8 7 -18 rrcurveto
          3 -10 2 -9 -11 vvcurveto
          hintmask 0000001100000000
          228 505 -106 callgsubr
        </CharString>
        <CharString name="agrave">
          -50 callsubr
          71 -21 194 -103 callgsubr
          -8 362 -89 callsubr
        </CharString>
        <CharString name="ahookabove">
          -50 callsubr
          74 -21 188 -103 callgsubr
          42 412 -107 callgsubr
        </CharString>
        <CharString name="amacron">
          -50 callsubr
          112 71 5 callgsubr
          hintmask 11101100
          -107 callsubr
          hintmask 00010000
          162 348 -33 callgsubr
        </CharString>
        <CharString name="ampersand">
          96 -17 67 327 63 -63 67 211 56 hstemhm
          77 150 11 122 -122 264 -143 264 -83 83 65 264 -144 264 -92 83 hintmask 0010000000100000
          1072 377 rmoveto
          67 vlineto
          hintmask 0100000001000000
          -4 -44 -34 0 -42 hhcurveto
          hintmask 1011101010100000
          -51 -59 3 1 -34 hvcurveto
          -67 63 vlineto
          -94 -107 -53 -60 -97 -68 -32 23 -109 84 -66 108 rrcurveto
          98 64 105 68 74 vvcurveto
          78 -68 70 -95 -103 -119 -67 -128 -65 17 -60 25 -54 vhcurveto
          -103 -62 rlineto
          -44 -27 -56 -35 -69 vvcurveto
          -107 115 -54 147 33 87 1 53 118 vhcurveto
          -44 102 107 -10 69 hhcurveto
          hintmask 1100000001010000
          104 101 35 93 3 hvcurveto
          -83 hlineto
          -56 -3 -73 -5 -41 hhcurveto
          -54 -56 14 37 -65 hvcurveto
          106 73 72 83 105 120 rrcurveto
          hintmask 0101010010100000
          -431 186 rmoveto
          -55 -76 -56 -70 -44 vhcurveto
          -32 69 -2 62 17 vvcurveto
          74 64 25 36 53 27 -51 -41 vhcurveto
          -38 -485 rmoveto
          hintmask 1000100100000000
          -28 -65 -75 0 -3 hhcurveto
          -84 -48 62 60 71 56 31 23 13 hvcurveto
          hintmask 0000001000000000
          50 -82 82 -88 64 -39 rrcurveto
          endchar
        </CharString>
        <CharString name="anglearc">
          96 -212 -21 966 -20 hstem
          805 86 vstem
          1063 43 rmoveto
          20 -14 17 -19 5 vhcurveto
          -150 35 rlineto
          7 43 4 43 44 vvcurveto
          44 -4 43 -7 43 vhcurveto
          150 35 rlineto
          19 5 14 17 20 vvcurveto
          28 -26 20 -27 -6 vhcurveto
          -150 -35 -27 91 -45 86 -60 76 rlinecurve
          10 -8 -12 6 -14 hhcurveto
          -23 -20 -19 -24 -10 4 -9 6 -8 hvcurveto
          52 -65 39 -75 24 -79 -645 -152 rcurveline
          -19 -5 -14 -17 -20 vvcurveto
          -20 14 -17 19 -5 vhcurveto
          645 -152 -24 -79 -39 -75 -52 -65 rlinecurve
          -6 -8 -4 -9 -10 vvcurveto
          -24 20 -19 23 14 12 6 10 8 vhcurveto
          60 76 45 86 27 91 150 -35 rcurveline
          27 -6 26 20 28 vvcurveto
          -258 207 rmoveto
          -37 -3 -37 -6 -36 vhcurveto
          -467 110 467 110 rlineto
          6 -36 3 -37 -37 vvcurveto
          endchar
        </CharString>
        <CharString name="angleleft">
          -468 -228 -21 999 -20 21 -20 hstemhm
          hintmask 00100000
          500 -206 rmoveto
          14 -8 12 -6 11 vhcurveto
          -204 395 -4 7 -7 9 -1 8 rlinecurve
          9 9 12 5 9 vhcurveto
          12 25 14 25 13 25 143 276 rcurveline
          6 13 7 14 7 13 6 10 6 10 2 11 rrcurveto
          5 vlineto
          24 -20 20 -23 vhcurveto
          hintmask 11000000
          -7 -1 -25 -4 -10 -24 -10 -21 rlinecurve
          -214 -412 rlineto
          -7 -12 -7 -11 -14 vvcurveto
          -3 vlineto
          1 -13 7 -12 6 -11 215 -414 rcurveline
          -23 11 12 -25 29 hhcurveto
          24 18 22 21 hvcurveto
          endchar
        </CharString>
        <CharString name="angleright">
          -468 -228 -21 1000 -20 hstem
          420 252 rmoveto
          14 -8 11 -6 12 vhcurveto
          -215 414 rlineto
          22 -10 -12 26 -28 hhcurveto
          -3 -2 0 -1 -3 hvcurveto
          -21 -3 -15 -19 -20 vvcurveto
          -21 18 -26 10 -18 vhcurveto
          49 -95 47 -91 50 -89 44 -92 rlinecurve
          4 -7 8 -10 -8 vvcurveto
          -9 -9 -11 -5 -9 vhcurveto
          -38 -73 -51 -99 -111 -214 -6 -12 -8 -11 -2 -13 rlinecurve
          -5 vlineto
          -24 20 -20 24 vhcurveto
          28 1 11 24 11 22 186 360 rcurveline
          10 18 9 19 10 18 rrcurveto
          6 12 8 12 15 vvcurveto
          endchar
        </CharString>
        <CharString name="aogonek">
          108 callgsubr
          5 callgsubr
          hintmask 00111100
          716 34 rmoveto
          33 -17 0 -21 vhcurveto
          -6 hlineto
          -13 -37 0 10 -21 hvcurveto
          213 vlineto
          80 -63 86 -213 -71 -148 0 -108 -48 35 -28 40 44 31 32 43 17 -5 16 -9 12 vhcurveto
          8 37 30 0 17 hhcurveto
          90 52 -34 -79 hvcurveto
          -19 vlineto
          -13 -1 -103 2 -99 -18 rrcurveto
          -119 -22 -76 -35 -74 vvcurveto
          hintmask 11000000
          -128 193 0 39 98 73 23 45 31 vhcurveto
          3 -19 8 -13 14 -9 rrcurveto
          -44 -34 -42 -54 -45 vvcurveto
          50 callgsubr
          -43 79 61 94 hvcurveto
          hintmask 00100000
          14 14 -1 15 hhcurveto
          64 7 0 34 hvcurveto
          -248 99 rmoveto
          -24 0 -26 -51 -19 vhcurveto
          hintmask 01001100
          -16 -41 -53 0 -6 hhcurveto
          -71 -55 27 46 89 229 8 48 2 hvcurveto
          endchar
        </CharString>
        <CharString name="aogonekacute">
          108 callgsubr
          71 -21 194 -20 5 callgsubr
          hintmask 00110011
          716 34 rmoveto
          33 -17 0 -21 vhcurveto
          -6 hlineto
          -13 -37 0 10 -21 hvcurveto
          213 vlineto
          80 -63 86 -213 -71 -148 0 -108 -48 35 -28 40 44 31 32 43 17 -5 16 -9 12 vhcurveto
          8 37 30 0 17 hhcurveto
          90 52 -34 -79 hvcurveto
          -19 vlineto
          -13 -1 -103 2 -99 -18 rrcurveto
          -119 -22 -76 -35 -74 vvcurveto
          hintmask 11000000
          -128 193 0 39 98 73 23 45 31 vhcurveto
          3 -19 8 -13 14 -9 rrcurveto
          -44 -34 -42 -54 -45 vvcurveto
          50 callgsubr
          -43 79 61 94 hvcurveto
          hintmask 00100000
          14 14 -1 15 hhcurveto
          64 7 0 34 hvcurveto
          -248 99 rmoveto
          -24 0 -26 -51 -19 vhcurveto
          hintmask 01000011
          -16 -41 -53 0 -6 hhcurveto
          -71 -55 27 46 89 229 8 48 2 hvcurveto
          hintmask 00001100
          82 408 -106 callgsubr
        </CharString>
        <CharString name="aring">
          -50 callsubr
          78 47 74 47 116 callgsubr
          hintmask 1110010010000000
          -107 callsubr
          hintmask 0001101100000000
          -27 398 -60 callsubr
        </CharString>
        <CharString name="aringacute">
          -50 callsubr
          78 47 74 47 229 -20 116 callgsubr
          hintmask 1110001001000000
          -107 callsubr
          hintmask 0001110110000000
          -27 398 -83 callsubr
          -25 240 -106 callgsubr
        </CharString>
        <CharString name="asciicircum">
          -509 583 -21 123 59 hstem
          -5 566 vstem
          561 584 rmoveto
          -283 160 -283 -160 11 -22 271 123 272 -123 rlineto
          endchar
        </CharString>
        <CharString name="asciitilde">
          -509 193 43 -25 43 -8 43 -25 43 hstemhm
          hintmask 10010000
          555 290 49 callsubr
          hintmask 01000000
          27 callgsubr
          hintmask 00100000
          20 10 20 11 17 14 rrcurveto
          endchar
        </CharString>
        <CharString name="asciitilde.low">
          -509 0 43 -25 43 -8 43 -25 43 hstemhm
          0 555 hintmask 10010000
          555 97 49 callsubr
          hintmask 01001000
          27 callgsubr
          hintmask 00101000
          20 10 20 11 17 14 rrcurveto
          endchar
        </CharString>
        <CharString name="asterisk">
          327 112 callgsubr
          325 108 vstem
          645 440 rmoveto
          38 -30 8 -11 3 vhcurveto
          -143 39 143 39 rlineto
          11 3 30 8 38 vvcurveto
          33 -26 24 -26 -12 -18 -11 -8 -15 vhcurveto
          -139 -83 22 120 rlineto
          1 3 1 7 3 vvcurveto
          26 -26 20 -28 -28 -26 -20 -26 -3 2 -7 1 -8 vhcurveto
          21 -115 -156 92 rlineto
          8 -14 -3 2 -11 hhcurveto
          -26 -26 -24 -33 -38 30 -8 11 -3 hvcurveto
          143 -39 -143 -39 rlineto
          -11 -3 -30 -8 -38 vvcurveto
          -33 26 -24 26 12 18 11 8 15 vhcurveto
          139 83 -22 -120 rlineto
          -1 -3 -1 -7 -3 vvcurveto
          -26 26 -20 28 28 26 20 26 3 -2 7 -1 8 vhcurveto
          -21 115 156 -92 rlineto
          -8 14 3 -2 11 hhcurveto
          26 26 24 33 hvcurveto
          endchar
        </CharString>
        <CharString name="asterisk.math">
          50 112 callgsubr
          325 108 vstem
          645 164 rmoveto
          41 -36 6 -31 9 vhcurveto
          -37 9 -38 15 -38 6 rrcurveto
          2 vlineto
          38 6 38 15 37 9 rrcurveto
          31 9 36 6 41 vvcurveto
          28 -19 29 -30 1 vhcurveto
          -2 hlineto
          -22 -21 -16 -11 -18 hvcurveto
          -41 -25 -41 -26 -41 -22 5 32 7 31 5 32 rrcurveto
          2 11 4 12 12 vvcurveto
          31 -28 16 -26 -27 -27 -16 -32 -11 3 -10 2 -11 vhcurveto
          6 -32 7 -33 5 -32 -41 22 -41 26 -41 25 rrcurveto
          11 -18 -21 16 -22 hhcurveto
          -2 hlineto
          -30 -1 -19 -29 -28 vvcurveto
          -41 36 -6 31 -9 vhcurveto
          37 -9 38 -15 38 -6 rrcurveto
          -2 vlineto
          -38 -6 -38 -15 -37 -9 rrcurveto
          -31 -9 -36 -6 -41 vvcurveto
          -28 19 -29 30 -1 vhcurveto
          2 hlineto
          22 21 16 11 18 hvcurveto
          41 25 41 26 41 22 -5 -32 -7 -33 -6 -32 rrcurveto
          -2 -11 -3 -10 -11 vvcurveto
          -32 27 -16 27 26 28 16 31 12 -4 12 -2 11 vhcurveto
          -5 32 -7 31 -5 32 41 -22 41 -26 41 -25 rrcurveto
          -11 18 21 -16 22 hhcurveto
          2 hlineto
          30 1 19 29 28 vvcurveto
          endchar
        </CharString>
        <CharString name="at">
          96 -8 56 0 56 -37 56 0 56 336 56 75 56 hstemhm
          98 83 110 133 313 133 110 83 hintmask 0101111111000000
          1063 85 rmoveto
          22 -21 0 -14 vhcurveto
          -33 hlineto
          -15 -2 0 -3 -11 hvcurveto
          -15 -50 -146 -41 -186 hhcurveto
          -313 -91 171 128 149 116 150 283 276 124 -142 -160 -50 -10 -115 -69 -31 0 36 13 hvcurveto
          223 vlineto
          28 -2 8 -35 vhcurveto
          -38 hlineto
          26 -25 -55 58 -136 hhcurveto
          -198 -90 -110 -114 -113 89 -111 199 91 55 27 19 27 hvcurveto
          -42 36 69 -4 31 hhcurveto
          126 49 127 97 167 -133 188 -349 -355 -128 -192 -163 -110 58 -101 91 -59 hvcurveto
          hintmask 1010000001000000
          -71 109 120 -14 109 hhcurveto
          110 149 13 47 163 hvcurveto
          16 4 25 8 5 3 rrcurveto
          6 4 4 7 7 vvcurveto
          -326 168 rmoveto
          hintmask 0001100110000000
          -40 -25 -52 -34 -78 hhcurveto
          -101 -57 69 99 99 57 69 101 79 52 -35 -39 24 hvcurveto
          endchar
        </CharString>
        <CharString name="atilde">
          -50 callsubr
          70 99 -43 99 -105 callgsubr
          hintmask 00001000
          142 418 -87 callgsubr
        </CharString>
        <CharString name="b">
          69 callsubr
          348 56 167 75 hstem
          132 callgsubr
          343 150 vstem
          87 callgsubr
          285 vlineto
          -197 -88 callgsubr
          -580 21 callgsubr
          100 callsubr
        </CharString>
        <CharString name="backslash">
          -490 750 -20 hstem
          510 -219 rmoveto
          6 -1 1 -5 13 vhcurveto
          -377 919 rlineto
          17 -7 -5 13 -21 hhcurveto
          -14 -16 -11 -20 -6 1 -1 5 -13 hvcurveto
          377 -919 rlineto
          -15 6 6 -15 21 hhcurveto
          14 16 11 20 hvcurveto
          endchar
        </CharString>
        <CharString name="baht">
          -8 0 67 262 56 234 67 hstemhm
          206 139 142 66 211 155 -124 164 hintmask 10111100
          959 189 rmoveto
          84 -87 69 -151 17 vhcurveto
          121 22 77 56 74 vvcurveto
          98 -120 77 -188 vhcurveto
          -58 66 hlineto
          18 -14 15 -19 -18 -15 -15 -18 vhcurveto
          -66 -387 19 callsubr
          387 -66 vlineto
          -18 15 -15 18 19 14 15 18 vhcurveto
          66 96 vlineto
          hintmask 01101010
          197 113 86 103 hvcurveto
          -195 321 rmoveto
          -70 -77 -55 -119 vhcurveto
          -15 234 46 hlineto
          hintmask 11111100
          119 46 -58 -51 hvcurveto
          -277 -125 rmoveto
          -142 234 142 hlineto
          308 -428 rmoveto
          -77 -80 -47 -113 vhcurveto
          -49 262 59 hlineto
          hintmask 11011010
          148 35 -85 -53 hvcurveto
          -308 -124 rmoveto
          -142 262 142 hlineto
          endchar
        </CharString>
        <CharString name="bar">
          -746 750 -20 hstem
          129 61 vstem
          190 -206 rmoveto
          18 callgsubr
          endchar
        </CharString>
        <CharString name="bigcircle">
          138 callgsubr
          514 -69 callgsubr
          endchar
        </CharString>
        <CharString name="blanksymbol">
          69 callsubr
          348 56 -33 56 105 56 -28 56 -45 118 callsubr
          27 150 166 150 hintmask 0100101000000000
          87 callgsubr
          100 vlineto
          161 99 rlineto
          hintmask 0001000100000000
          9 6 7 10 12 vvcurveto
          hintmask 0000101000000000
          26 -29 16 -21 -14 vhcurveto
          -127 -78 rlineto
          hintmask 0000011000000000
          108 vlineto
          -197 -8 rlineto
          -67 vlineto
          hintmask 1011001110000000
          64 8 0 -39 hvcurveto
          -70 vlineto
          -56 -35 rlineto
          -10 -6 -6 -10 -12 vvcurveto
          -26 28 -16 22 14 vhcurveto
          22 13 rlineto
          -432 21 callgsubr
          hintmask 0100000010000000
          100 callsubr
        </CharString>
        <CharString name="braceleft">
          78 callsubr
          -232 rmoveto
          13 -5 4 -12 1 vhcurveto
          -84 5 -37 35 -12 36 rrcurveto
          -3 10 0 8 17 vvcurveto
          237 vlineto
          -1 42 -32 51 -86 23 rrcurveto
          119 32 0 69 45 vvcurveto
          210 vlineto
          22 0 29 39 29 vhcurveto
          11 7 29 18 52 3 rrcurveto
          14 1 8 0 17 vvcurveto
          18 -9 0 -22 -142 -90 -50 -77 -1 vhcurveto
          -206 vlineto
          -62 0 -21 -33 -29 vhcurveto
          -23 -21 -35 -14 -41 -2 rrcurveto
          -14 -1 -8 0 -17 vvcurveto
          -13 5 -4 12 -1 vhcurveto
          90 -5 36 -45 9 -36 rrcurveto
          2 -8 0 -2 -37 vvcurveto
          -210 vlineto
          -128 166 -11 67 22 9 0 18 vhcurveto
          endchar
        </CharString>
        <CharString name="braceright">
          78 callsubr
          250 rmoveto
          13 -5 4 -12 1 vhcurveto
          -64 3 -52 26 -17 55 rrcurveto
          -3 8 0 2 39 vvcurveto
          210 vlineto
          123 -152 16 -82 -21 -10 0 -18 -13 5 -4 12 -1 vhcurveto
          81 -4 41 -33 12 -39 rrcurveto
          3 -10 0 -8 -17 vvcurveto
          -237 vlineto
          1 -42 31 -50 87 -24 rrcurveto
          -119 -32 0 -68 -46 vvcurveto
          -210 vlineto
          -23 0 -26 -37 -29 vhcurveto
          -10 -7 -31 -20 -54 -3 rrcurveto
          -14 -1 -8 0 -17 vvcurveto
          -18 10 0 21 150 83 54 73 1 vhcurveto
          206 vlineto
          65 0 17 34 31 vhcurveto
          11 11 33 22 53 3 rrcurveto
          14 1 8 0 17 vvcurveto
          endchar
        </CharString>
        <CharString name="bracketleft">
          -626 -250 86 828 86 hstem
          174 86 vstem
          390 -250 rmoveto
          86 -130 828 130 86 -216 -1000 vlineto
          endchar
        </CharString>
        <CharString name="bracketright">
          -626 -250 86 828 86 hstem
          179 86 vstem
          265 -250 rmoveto
          1000 -216 -86 130 -828 -130 -86 vlineto
          endchar
        </CharString>
        <CharString name="breve">
          512 82 101 -20 hstem
          608 695 -104 callgsubr
          endchar
        </CharString>
        <CharString name="breve.cap">
          509 82 101 -20 hstem
          608 692 -104 callgsubr
          endchar
        </CharString>
        <CharString name="breve.ts1">
          -146 512 82 101 -20 hstem
          150 56 507 56 vstem
          769 695 rmoveto
          -56 hlineto
          -99 -134 -2 -83 vhcurveto
          -73 hlineto
          -85 -132 3 98 hvcurveto
          -56 hlineto
          -156 208 -27 108 122 181 37 146 vhcurveto
          endchar
        </CharString>
        <CharString name="brokenbar">
          -746 750 -20 hstem
          129 61 vstem
          190 341 rmoveto
          365 vlineto
          14 0 30 -30 -31 0 -29 -15 vhcurveto
          -365 vlineto
          -18 13 -15 18 17 13 15 18 vhcurveto
          -547 vmoveto
          365 vlineto
          18 -13 15 -17 -18 -13 -15 -18 vhcurveto
          -365 33 callgsubr
          endchar
        </CharString>
        <CharString name="bullet">
          96 64 300 hstem
          431 300 63 callsubr
          endchar
        </CharString>
        <CharString name="c">
          -31 callsubr
          endchar
        </CharString>
        <CharString name="cacute">
          29 callsubr
          71 -21 194 -60 callgsubr
          hintmask 0001100000000000
          -67 518 -106 callgsubr
        </CharString>
        <CharString name="caron">
          86 callsubr
          556 685 -55 callgsubr
        </CharString>
        <CharString name="caron.cap">
          520 131 callgsubr
          hstem
          554 640 -62 callgsubr
        </CharString>
        <CharString name="caron.ts1">
          -146 566 -21 189 -20 hstem
          736 656 rmoveto
          -30 78 -247 -86 -180 63 -66 23 -30 -78 277 -111 rlineto
          endchar
        </CharString>
        <CharString name="ccaron">
          29 callsubr
          65 -21 207 -60 callgsubr
          hintmask 0001100000000000
          -71 575 -55 callgsubr
        </CharString>
        <CharString name="ccedilla">
          -31 callsubr
          -20 -222 23 callgsubr
          -44 callsubr
          endchar
        </CharString>
        <CharString name="ccircumflex">
          29 callsubr
          65 -21 207 -60 callgsubr
          hintmask 0001101000000000
          -71 412 -65 callgsubr
          endchar
        </CharString>
        <CharString name="cdotaccent">
          29 callsubr
          64 167 119 callsubr
          72 172 -79 150 -142 150 -83 150 hintmask 0110100100000000
          -54 callgsubr
          hintmask 0010100100000000
          108 -149 0 -68 -275 -48 -158 -76 vhcurveto
          hintmask 1000001000000000
          -102 79 -128 236 27 67 0 24 57 vhcurveto
          66 29 24 54 11 vvcurveto
          hintmask 0001010000000000
          -162 493 -100 callgsubr
        </CharString>
        <CharString name="cedilla">
          -387 -215 56 93 56 hstem
          434 133 vstem
          567 -112 23 callgsubr
          -44 callsubr
          endchar
        </CharString>
        <CharString name="cedilla.dup">
          -387 -215 56 93 56 hstem
          434 133 vstem
          567 -112 23 callgsubr
          -44 callsubr
          endchar
        </CharString>
        <CharString name="cent">
          29 callsubr
          119 callsubr
          125 66 49 150 hintmask 01111100
          621 110 rmoveto
          22 -19 0 -23 -29 -3 0 -16 -9 vhcurveto
          -27 -14 -28 -35 -85 hhcurveto
          -5 340 hlineto
          33 -1 18 -2 9 -2 rrcurveto
          -8 -12 -3 -15 -15 vvcurveto
          -43 32 -32 43 41 34 29 47 99 -126 8 -73 1 vhcurveto
          54 vlineto
          19 -15 14 -18 -18 -15 -14 -19 vhcurveto
          -56 vlineto
          -233 -17 -42 -144 -71 vvcurveto
          -96 70 -119 205 -14 vhcurveto
          -59 vlineto
          -18 15 -15 18 18 15 15 18 vhcurveto
          hintmask 10011000
          58 vlineto
          33 1 49 5 43 18 rrcurveto
          66 29 24 54 11 vvcurveto
          -281 -48 rmoveto
          -26 6 -24 10 -20 16 rrcurveto
          -35 26 -20 42 63 vvcurveto
          106 44 47 81 12 vhcurveto
          endchar
        </CharString>
        <CharString name="cent.oldstyle">
          -387 -8 62 0 62 277 62 -61 62 119 callsubr
          63 150 -69 66 -45 150 -75 150 hintmask 0110010010000000
          621 110 rmoveto
          22 -19 0 -23 -29 -3 0 -16 -9 vhcurveto
          -27 -14 -28 -35 -85 hhcurveto
          -24 -24 2 6 -24 hvcurveto
          89 331 20 -1 11 -2 7 -1 rlinecurve
          -8 -12 -3 -15 -15 vvcurveto
          hintmask 0000000100000000
          -43 32 -32 43 vhcurveto
          hintmask 0010001010000000
          41 34 29 47 84 -89 18 -72 5 hvcurveto
          13 47 rlineto
          21 5 -16 20 -21 hhcurveto
          -16 -12 -10 -14 -4 hvcurveto
          hintmask 1001100100000000
          -17 -63 rlineto
          -264 -5 -47 -154 -75 vvcurveto
          -82 50 -98 141 -36 vhcurveto
          -17 -63 rlineto
          -21 -5 15 -21 22 hhcurveto
          15 13 10 14 4 hvcurveto
          18 70 rlineto
          -2 19 19 -1 21 hhcurveto
          27 67 0 24 57 hvcurveto
          66 29 24 54 11 vvcurveto
          -262 283 rmoveto
          hintmask 0000110000000000
          -81 -305 -3 2 -2 2 -3 2 rlinecurve
          -35 26 -20 42 63 vvcurveto
          hintmask 0010001000000000
          114 52 46 92 8 vhcurveto
          endchar
        </CharString>
        <CharString name="centigrade">
          337 -16 68 207 87 18 87 -2 68 84 87 -52 68 -67 68 hstemhm
          17 86 150 86 80 172 628 86 hintmask 1101001001100000
          1305 229 rmoveto
          20 -8 11 -22 vhcurveto
          -6 -7 -1 -6 hhcurveto
          -9 hlineto
          -28 2 -24 -20 -2 hvcurveto
          -125 -15 -158 -38 -102 hhcurveto
          -25 hlineto
          -98 4 -117 25 -62 84 rrcurveto
          -39 52 -12 65 64 vvcurveto
          64 14 69 42 51 vhcurveto
          86 70 126 21 102 hhcurveto
          116 118 -64 -124 29 hvcurveto
          -21 5 3 -11 24 hhcurveto
          40 hlineto
          23 2 17 16 hvcurveto
          223 vlineto
          hintmask 0000010000000000
          15 -3 16 -25 -18 -5 -5 -10 -12 vhcurveto
          -41 -35 rlineto
          -6 -8 -11 -12 -6 hhcurveto
          -5 -13 9 4 -7 hvcurveto
          hintmask 0000001000000000
          40 -76 -84 16 -86 hhcurveto
          hintmask 1000010001100000
          -7 -6 0 -1 -7 hvcurveto
          -28 -4 -29 0 -28 -3 rrcurveto
          -180 -25 -201 -107 -221 vvcurveto
          -92 42 -89 70 -61 vhcurveto
          -92 105 149 -26 135 hhcurveto
          143 194 48 147 40 hvcurveto
          4 16 4 17 17 vvcurveto
          -966 297 rmoveto
          hintmask 0010100110000000
          93 -69 69 -92 vhcurveto
          -5 -5 -1 -5 hhcurveto
          -95 -10 -51 -70 -81 vvcurveto
          -93 68 -69 92 99 63 75 87 vhcurveto
          -86 hmoveto
          -46 -30 -29 -45 vhcurveto
          hintmask 0001100110000000
          -43 -28 26 40 -4 hvcurveto
          9 vlineto
          46 30 29 45 43 28 -26 -40 4 vhcurveto
          endchar
        </CharString>
        <CharString name="circumflex">
          86 callsubr
          556 522 -65 callgsubr
          endchar
        </CharString>
        <CharString name="circumflex.cap">
          520 131 callgsubr
          hstem
          554 523 -55 callsubr
        </CharString>
        <CharString name="circumflex.dup">
          86 callsubr
          556 522 -65 callgsubr
          endchar
        </CharString>
        <CharString name="colon">
          -629 0 172 100 139 callsubr
          358 -38 callgsubr
          -272 vmoveto
          15 callgsubr
        </CharString>
        <CharString name="colonmonetary">
          75 callsubr
          hstem
          98 172 291 66 vstem
          983 230 rmoveto
          28 -16 0 -19 vhcurveto
          -13 hlineto
          -26 -7 -2 -30 -2 hvcurveto
          -7 -108 -121 -67 -145 -1 rrcurveto
          586 vlineto
          42 -1 62 -6 65 -45 73 -52 13 -64 8 -34 rrcurveto
          -18 3 16 0 15 hhcurveto
          24 hlineto
          30 5 5 30 hvcurveto
          217 45 callgsubr
          -14 -2 -1 -10 -12 vhcurveto
          -69 -59 -88 54 -89 12 -52 3 rlinecurve
          50 vlineto
          18 -14 15 -19 -18 -15 -15 -18 vhcurveto
          -50 vlineto
          -320 -10 -143 -175 -174 vvcurveto
          -169 136 -179 327 -11 vhcurveto
          -50 vlineto
          -18 15 -15 18 19 14 15 18 vhcurveto
          50 vlineto
          222 9 134 106 131 vvcurveto
          -422 -177 rmoveto
          -181 16 -110 89 185 vvcurveto
          82 21 91 79 55 vhcurveto
          45 30 60 25 86 7 rrcurveto
          endchar
        </CharString>
        <CharString name="comma">
          -629 -173 -15 callsubr
          172 hstem
          132 188 vstem
          320 38 rmoveto
          74 -40 60 -63 -49 -36 -37 -49 -46 33 -40 53 23 17 8 3 4 vhcurveto
          -11 -76 -43 -48 -38 -26 rrcurveto
          -13 -9 -5 -4 -12 vvcurveto
          -12 16 -18 14 21 117 87 145 vhcurveto
          endchar
        </CharString>
        <CharString name="copyleft">
          -379 0 86 287 86 141 86 hstem
          0 86 514 -69 callgsubr
          -90 hmoveto
          60 -51 59 -113 -12 -38 0 -23 -38 vhcurveto
          -23 20 rlineto
          3 -3 -1 0 -5 hhcurveto
          -10 0 -4 -7 hvcurveto
          -72 vlineto
          -10 2 -2 10 vhcurveto
          8 hlineto
          5 5 0 6 1 hvcurveto
          3 12 4 21 24 17 rrcurveto
          16 23 21 1 14 hhcurveto
          40 25 -9 -12 19 hvcurveto
          26 -19 7 -30 -27 vvcurveto
          -68 -45 -29 -73 -48 -41 22 36 -2 vhcurveto
          10 -1 -2 1 -9 hhcurveto
          -4 hlineto
          -6 -6 0 -9 -46 49 -36 80 117 48 61 58 hvcurveto
          endchar
        </CharString>
        <CharString name="copyright">
          -379 0 86 287 86 141 86 hstem
          0 86 514 -69 callgsubr
          -130 -37 rmoveto
          9 -5 0 -7 vhcurveto
          -4 hlineto
          -9 -2 -1 -10 -1 hvcurveto
          -36 -2 -40 -22 -49 hhcurveto
          -73 -45 29 68 27 7 30 26 19 hvcurveto
          12 19 25 9 40 hhcurveto
          14 21 -1 -16 23 hvcurveto
          24 -17 4 -21 3 -12 rrcurveto
          -6 1 5 0 5 hhcurveto
          8 hlineto
          10 2 2 10 hvcurveto
          72 vlineto
          7 0 5 -10 -5 0 -1 -3 -4 vhcurveto
          -23 -20 rlineto
          24 -38 -38 0 -12 hhcurveto
          -113 -51 -60 -60 -58 48 -61 117 80 49 36 46 hvcurveto
          endchar
        </CharString>
        <CharString name="copyright.alt">
          -107 -257 86 463 86 237 86 hstem
          0 86 786 86 vstem
          958 222 rmoveto
          294 -185 185 -294 -294 -185 -185 -294 -294 185 -185 294 294 185 185 294 vhcurveto
          -86 hmoveto
          -241 -152 -152 -241 -241 -152 152 241 241 152 152 241 241 152 -152 -241 vhcurveto
          -125 -73 rmoveto
          18 -11 0 -12 vhcurveto
          -9 hlineto
          -16 -5 -1 -20 -1 hvcurveto
          -70 -5 -79 -44 -94 hhcurveto
          -142 -88 57 133 53 13 59 51 36 hvcurveto
          24 36 50 18 77 hhcurveto
          27 42 -3 -31 44 hvcurveto
          48 -33 8 -42 5 -22 rrcurveto
          -12 2 11 0 9 hhcurveto
          16 hlineto
          19 4 4 19 hvcurveto
          141 vlineto
          13 0 9 -20 -9 -1 0 -7 -8 vhcurveto
          -45 -38 rlineto
          45 -73 -75 0 -22 hhcurveto
          -222 -99 -116 -117 -113 94 -120 228 156 96 71 89 hvcurveto
          endchar
        </CharString>
        <CharString name="currency">
          96 -68 86 464 86 hstem
          262 86 465 86 vstem
          922 -91 rmoveto
          31 30 -31 31 -7 7 -81 81 rcurveline
          41 53 24 67 72 vvcurveto
          72 -24 67 -41 54 vhcurveto
          80 80 7 7 31 31 -30 30 rlinecurve
          -31 31 -31 -32 -7 -7 -80 -80 rcurveline
          41 -53 -67 24 -72 hhcurveto
          -73 -66 -24 -40 -54 hvcurveto
          -80 80 -7 7 -31 31 -31 -30 rlinecurve
          -30 -31 31 -31 7 -7 80 -80 rcurveline
          -40 -54 -25 -66 -73 vvcurveto
          -72 24 -67 41 -54 vhcurveto
          -80 -80 -7 -7 -31 -31 30 -30 rlinecurve
          31 -31 31 32 7 7 80 80 rcurveline
          -41 53 67 -24 73 hhcurveto
          72 67 24 41 53 hvcurveto
          81 -80 7 -7 31 -32 30 31 rlinecurve
          -109 341 rmoveto
          -128 -104 -104 -128 -129 -104 104 128 128 104 104 129 128 104 -104 -128 vhcurveto
          endchar
        </CharString>
        <CharString name="cwm">
          -1065 endchar
        </CharString>
        <CharString name="cwmascender">
          -1065 endchar
        </CharString>
        <CharString name="cwmcapital">
          -1065 endchar
        </CharString>
        <CharString name="d">
          -226 -8 47 callsubr
          343 125 hintmask 01000101
          42 callsubr
          hintmask 10011011
          -27 callgsubr
          hintmask 00100000
          140 vmoveto
          hintmask 10010010
          -24 callgsubr
          endchar
        </CharString>
        <CharString name="dagger">
          -554 388 111 203 -20 hstemhm
          200 111 -32 111 hintmask 10010000
          447 443 rmoveto
          135 callsubr
          -33 -16 -9 -2 -13 -3 3 28 7 23 9 27 rrcurveto
          hintmask 11100000
          11 36 11 37 33 vvcurveto
          49 -37 10 -18 -22 -34 -13 -46 -33 11 -36 10 -32 vhcurveto
          10 -33 7 -23 3 -27 -10 2 -11 3 -19 9 rrcurveto
          12 -24 -29 14 -27 98 callsubr
          33 16 9 2 13 3 -3 -27 -10 -28 -7 -20 rrcurveto
          -21 -64 0 -15 -43 vvcurveto
          -129 10 -130 16 -128 vhcurveto
          2 -16 4 -28 3 -4 rrcurveto
          -7 3 8 0 9 hhcurveto
          hintmask 00010000
          11 10 0 11 3 hvcurveto
          hintmask 00100000
          2 12 30 208 211 vvcurveto
          46 0 12 -23 70 vhcurveto
          -7 21 -8 25 -3 23 10 -2 11 -3 19 -9 rrcurveto
          hintmask 10010000
          -12 24 29 -14 27 hhcurveto
          41 16 30 25 hvcurveto
          endchar
        </CharString>
        <CharString name="daggerdbl">
          -554 -32 111 323 111 -92 110 171 -20 hstemhm
          200 111 hintmask 00100000
          447 476 rmoveto
          28 -19 27 -37 vhcurveto
          hintmask 01011000
          -18 -23 -6 -12 -24 hvcurveto
          -32 -15 -6 -2 -17 -4 3 18 1 8 13 33 rrcurveto
          13 34 10 31 28 vvcurveto
          44 -34 14 -21 -26 -30 -16 -42 -31 14 -36 10 -27 vhcurveto
          12 -33 1 -6 3 -19 -15 4 -6 1 -19 9 rrcurveto
          hintmask 00101000
          12 -24 -28 13 -28 hhcurveto
          -37 -19 -27 -28 -13 6 -42 51 13 16 0 24 49 hvcurveto
          20 10 5 1 16 4 -3 -18 -1 -8 -13 -33 rrcurveto
          -13 -34 -10 -31 -28 vvcurveto
          -44 34 -14 21 26 30 16 42 vhcurveto
          hintmask 01001000
          31 -14 36 -10 27 vhcurveto
          -12 33 -1 6 -3 19 15 -4 6 -1 19 -9 rrcurveto
          hintmask 10101000
          -21 42 17 -4 20 hhcurveto
          51 6 42 13 hvcurveto
          -453 vmoveto
          135 callsubr
          -28 -13 -12 -4 -14 -4 3 20 1 6 16 44 rrcurveto
          14 36 6 25 21 vvcurveto
          44 -34 14 -21 -26 -30 -16 -42 -28 11 -31 11 -30 vhcurveto
          14 -37 1 -7 3 -19 -13 3 -11 4 -15 8 rrcurveto
          12 -26 -28 13 -26 98 callsubr
          22 10 16 7 16 4 -3 -20 -1 -6 -16 -44 rrcurveto
          -14 -36 -6 -25 -21 vvcurveto
          -44 34 -14 21 26 30 16 42 28 -11 31 -11 30 vhcurveto
          -14 37 -1 7 -3 19 18 -5 15 -7 23 -10 rrcurveto
          -9 18 24 -9 21 hhcurveto
          41 16 30 25 hvcurveto
          endchar
        </CharString>
        <CharString name="dblbracketleft">
          -448 -249 86 828 86 hstem
          174 86 95 86 vstem
          568 -249 rmoveto
          86 -127 828 127 86 -394 -1000 vlineto
          181 86 rmoveto
          -95 828 95 hlineto
          endchar
        </CharString>
        <CharString name="dblbracketright">
          -448 -249 86 828 86 hstem
          176 86 95 86 vstem
          443 -249 rmoveto
          1000 -393 -86 126 -828 -126 -86 vlineto
          307 86 rmoveto
          -95 828 95 hlineto
          endchar
        </CharString>
        <CharString name="dblgrave.ts1">
          538 -21 191 -20 hstem
          324 578 rmoveto
          11 callsubr
          241 hmoveto
          11 callsubr
          endchar
        </CharString>
        <CharString name="dblverticalbar">
          -488 750 -20 hstem
          129 61 197 61 vstem
          190 -206 rmoveto
          18 callgsubr
          258 hmoveto
          18 callgsubr
          endchar
        </CharString>
        <CharString name="dcaron">
          123 callsubr
          113 129 -75 67 -67 75 119 callsubr
          343 125 hintmask 0100001010000000
          42 callsubr
          hintmask 1001010110000000
          -27 callgsubr
          hintmask 0010000000000000
          140 vmoveto
          hintmask 1001001100000000
          -24 callgsubr
          328 281 -45 callgsubr
          vhcurveto
          hintmask 0000100000000000
          -35 24 -30 40 17 13 6 2 3 vhcurveto
          -8 -57 -32 -36 -29 -19 rrcurveto
          -10 -7 -3 -3 -9 vvcurveto
          -9 12 -13 10 16 88 65 109 vhcurveto
          endchar
        </CharString>
        <CharString name="dcroat">
          123 callsubr
          51 66 50 67 -67 75 119 callsubr
          121 150 72 125 hintmask 0100101001000000
          755 64 callgsubr
          397 72 66 -72 125 vlineto
          hintmask 1001110111000000
          -197 -88 callgsubr
          -11 -222 -66 222 -92 vlineto
          21 -40 -61 20 -79 hhcurveto
          -214 -99 -112 -119 -109 87 -120 212 77 63 21 28 46 hvcurveto
          -49 vlineto
          hintmask 0010000000000000
          140 vmoveto
          hintmask 1001000100000000
          -24 callgsubr
          endchar
        </CharString>
        <CharString name="ddotbelow">
          -226 -8 47 callsubr
          118 172 53 125 hintmask 0100010010000000
          42 callsubr
          hintmask 1001101010000000
          -27 callgsubr
          hintmask 0010000000000000
          140 vmoveto
          hintmask 1001001000000000
          -24 callgsubr
          hintmask 0000000100000000
          -45 -430 -100 callgsubr
        </CharString>
        <CharString name="degree">
          -496 283 86 231 86 hstem
          83 86 231 86 vstem
          486 485 rmoveto
          111 -90 90 -112 -111 -90 -90 -111 -111 90 -91 111 112 90 91 111 vhcurveto
          -86 hmoveto
          -64 -52 -52 -64 -63 -52 52 64 63 52 52 63 64 52 -52 -63 vhcurveto
          endchar
        </CharString>
        <CharString name="diameter">
          96 -216 86 760 86 hstem
          115 86 760 86 vstem
          1063 690 rmoveto
          24 -19 19 -24 -12 -11 -5 -8 -7 vhcurveto
          -112 -111 rlineto
          67 -80 -104 40 -113 hhcurveto
          -257 -209 -209 -257 -113 40 -104 67 -81 hvcurveto
          -111 -112 rlineto
          -8 -7 -5 -11 -12 vvcurveto
          105 callsubr
          12 11 5 8 7 vhcurveto
          112 112 rlineto
          -68 81 104 -40 113 hhcurveto
          257 209 209 257 113 -41 104 -67 81 hvcurveto
          111 112 rlineto
          8 7 5 11 12 vvcurveto
          -102 -440 rmoveto
          -210 -170 -170 -210 -89 -83 31 52 -65 vhcurveto
          534 534 rlineto
          52 -65 31 -82 -90 vvcurveto
          -144 298 rmoveto
          -533 -534 rlineto
          -52 64 -31 83 89 vvcurveto
          210 170 170 210 89 82 -31 -51 65 vhcurveto
          endchar
        </CharString>
        <CharString name="died">
          330 94 -93 94 -86 77 hstemhm
          312 132 -126 132 -131 121 -113 104 cntrmask 11100000
          hintmask 11101000
          704 389 rmoveto
          17 -4 19 -22 -22 -22 -3 -1 -22 vhcurveto
          -128 -5 rlineto
          -34 hlineto
          hintmask 11100010
          -6 -7 0 -1 -6 hvcurveto
          hintmask 11110000
          53 8 50 5 52 vhcurveto
          1 5 1 4 5 vvcurveto
          12 -11 11 -11 1 vhcurveto
          -86 hlineto
          -15 -11 -12 -14 hvcurveto
          hintmask 11101000
          -13 5 -16 1 -14 vhcurveto
          hintmask 11100010
          5 -41 4 -41 -41 vvcurveto
          -72 -74 2 6 -71 hvcurveto
          -4 -4 1 -3 hhcurveto
          -18 -9 -14 -17 hvcurveto
          -6 vlineto
          -6 -1 -8 -7 vvcurveto
          -18 4 -19 24 21 22 3 1 21 vhcurveto
          2 55 54 3 55 hhcurveto
          hintmask 11100100
          -8 -232 rlineto
          hintmask 11110000
          -3 -33 -4 -35 -33 vvcurveto
          -20 9 -10 24 vhcurveto
          66 hlineto
          18 17 5 22 hvcurveto
          hintmask 11100100
          27 -3 28 -3 27 vhcurveto
          hintmask 11100010
          -5 85 -4 85 85 vvcurveto
          hintmask 11101000
          -1 6 7 0 6 hhcurveto
          35 hlineto
          60 -4 60 1 59 -5 rrcurveto
          4 3 -1 4 hhcurveto
          13 15 7 22 hvcurveto
          8 vlineto
          7 1 7 8 vvcurveto
          endchar
        </CharString>
        <CharString name="dieresis">
          528 150 hstem
          160 16 callgsubr
          vstem
          -42 callgsubr
          endchar
        </CharString>
        <CharString name="dieresis.cap">
          499 150 hstem
          134 31 callgsubr
          vstem
          -5 callgsubr
          endchar
        </CharString>
        <CharString name="dieresis.dup">
          528 150 hstem
          160 16 callgsubr
          vstem
          -42 callgsubr
          endchar
        </CharString>
        <CharString name="dieresis.ts1">
          541 155 hstem
          162 153 127 154 vstem
          596 619 rmoveto
          36 -25 41 -53 vhcurveto
          -7 hlineto
          -42 -7 -27 -33 -38 vvcurveto
          -41 35 -36 45 vhcurveto
          7 hlineto
          43 8 24 33 37 vvcurveto
          -281 hmoveto
          38 -29 39 -50 vhcurveto
          -7 hlineto
          -43 -8 -24 -33 -37 vvcurveto
          -36 25 -41 53 vhcurveto
          7 hlineto
          45 8 23 33 37 vvcurveto
          endchar
        </CharString>
        <CharString name="discount">
          22 -21 749 -20 21 -20 hstemhm
          hintmask 00100000
          661 707 rmoveto
          23 -20 21 -23 vhcurveto
          hintmask 11000000
          -7 -1 -22 -3 -10 -20 -12 -16 rlinecurve
          -78 -108 -317 -441 -49 -67 rlineto
          -11 -15 -15 -15 -20 vvcurveto
          -23 20 -21 24 vhcurveto
          24 1 12 19 13 18 78 109 rcurveline
          334 464 39 54 rlineto
          8 12 12 13 16 vvcurveto
          -288 -84 57 callsubr
          220 -492 57 callsubr
          endchar
        </CharString>
        <CharString name="divide">
          96 -34 86 155 86 155 86 hstem
          495 172 cntrmask 11100000
          1063 250 14 callsubr
          -396 284 -38 callgsubr
          -568 vmoveto
          15 callgsubr
        </CharString>
        <CharString name="divorced">
          -92 -21 142 95 254 95 141 -20 21 -20 hstemhm
          -272 95 491 130 491 95 cntrmask 00000111
          hintmask 01101111
          265 251 rmoveto
          55 -20 54 -39 40 vhcurveto
          58 -55 -85 15 -76 hhcurveto
          -14 hlineto
          -86 -13 -84 -17 -47 -81 rrcurveto
          -21 -33 -10 -39 -39 vvcurveto
          -55 21 -56 40 -39 vhcurveto
          -53 54 80 -19 75 hhcurveto
          123 144 62 160 hvcurveto
          765 -1 rmoveto
          54 -20 54 -38 40 vhcurveto
          59 -57 -87 16 -77 hhcurveto
          -14 hlineto
          -89 -9 -89 -29 -43 -86 rrcurveto
          -15 -30 -8 -34 -34 vvcurveto
          -150 134 -73 133 107 112 41 113 40 vhcurveto
          7 22 4 23 23 vvcurveto
          -584 -334 rmoveto
          7 -1 7 -1 6 vhcurveto
          -3 31 0 31 -2 31 -7 170 rcurveline
          40 vlineto
          -1 74 rlineto
          83 4 82 8 83 vhcurveto
          1 8 2 9 9 vvcurveto
          24 -17 4 -16 vhcurveto
          -67 hlineto
          hintmask 11110111
          -5 -5 0 -1 -4 hvcurveto
          -14 -6 -17 -10 hvcurveto
          -7 2 -7 -7 vvcurveto
          7 -69 6 -70 -69 vvcurveto
          -103 vlineto
          -105 -7 -105 -6 -105 vhcurveto
          -1 -7 -1 -10 -8 vvcurveto
          -24 17 -4 16 vhcurveto
          67 hlineto
          26 8 11 18 hvcurveto
          -268 341 rmoveto
          -4 -1 -4 -4 vvcurveto
          -108 -9 -92 -13 -74 hhcurveto
          -69 -110 8 119 hvcurveto
          10 vlineto
          104 14 83 13 74 hhcurveto
          77 107 -16 -105 hvcurveto
          757 -6 rmoveto
          -111 -103 -16 -73 -76 -90 10 112 -13 vhcurveto
          7 vlineto
          94 82 31 104 72 88 -15 -103 9 vhcurveto
          endchar
        </CharString>
        <CharString name="dlinebelow">
          -226 -151 71 72 47 callsubr
          343 125 hintmask 0010001010000000
          42 callsubr
          hintmask 0100110110000000
          -27 callgsubr
          hintmask 0001000000000000
          140 vmoveto
          hintmask 0100100100000000
          -24 callgsubr
          hintmask 1000000000000000
          130 -464 -33 callgsubr
        </CharString>
        <CharString name="dollar">
          -35 -21 48 68 61 147 172 141 53 65 51 -20 hstemhm
          98 150 -52 150 0 67 97 150 -98 98 hintmask 1111111011000000
          660 213 rmoveto
          49 -23 136 -224 36 vhcurveto
          200 vlineto
          70 -5 44 -16 27 -30 rrcurveto
          -28 -12 -16 -26 -30 vvcurveto
          -46 34 -29 41 33 42 20 58 156 -168 24 -79 3 vhcurveto
          49 -67 -49 vlineto
          -202 -14 -46 -121 -71 vvcurveto
          -73 45 -47 26 -20 vhcurveto
          57 -44 53 -13 67 -11 rrcurveto
          -227 vlineto
          -64 5 -56 20 -25 38 rrcurveto
          33 13 14 29 28 vvcurveto
          43 -32 32 -43 -36 -39 -23 -55 -183 210 -12 38 -2 vhcurveto
          -49 67 49 vlineto
          187 14 60 117 89 vvcurveto
          -314 233 rmoveto
          hintmask 0000100100000000
          -33 5 -117 17 72 vvcurveto
          42 46 45 104 7 vhcurveto
          216 -466 rmoveto
          hintmask 0100000010100000
          -39 -31 -58 -118 -11 vhcurveto
          216 vlineto
          94 -14 55 -40 -54 vvcurveto
          endchar
        </CharString>
        <CharString name="dollar.oldstyle">
          -146 -6 65 -65 67 -65 65 hstemhm
          97 98 -98 150 86 67 120 67 85 150 -98 98 cntrmask 1110000000000000
          hintmask 1110111100000000
          822 214 rmoveto
          116 -88 54 -147 34 vhcurveto
          213 vlineto
          47 -6 49 -13 33 -28 rrcurveto
          -29 -10 -15 -30 -29 vvcurveto
          -45 35 -29 41 50 24 40 38 137 -125 35 -110 9 vhcurveto
          51 -67 -48 -61 vlineto
          -20 -20 -1 -1 -19 hvcurveto
          50 -67 -58 vlineto
          -140 -25 -96 -68 -104 vvcurveto
          -121 118 -46 118 -25 vhcurveto
          -240 vlineto
          -52 8 -45 17 -35 36 rrcurveto
          30 10 16 30 30 vvcurveto
          39 -31 35 -44 -43 -32 -31 -50 -116 90 -55 146 -17 vhcurveto
          -55 67 49 vlineto
          -1 18 19 0 20 hhcurveto
          22 21 1 2 20 hvcurveto
          -51 67 59 vlineto
          154 30 81 82 98 vvcurveto
          -302 218 rmoveto
          -20 3 -20 4 -21 3 -19 3 -20 3 -20 2 rrcurveto
          184 vlineto
          61 2 rlineto
          11 21 1 -1 27 hvcurveto
          204 -467 rmoveto
          -53 -63 -31 -74 -15 vhcurveto
          189 vlineto
          hintmask 1111011010000000
          74 -16 63 -24 -50 vvcurveto
          -391 291 rmoveto
          -74 13 -64 21 48 vvcurveto
          48 66 24 72 12 vhcurveto
          187 -565 rmoveto
          -2 -20 -19 -1 -19 hhcurveto
          -21 -21 0 1 -20 hvcurveto
          232 vlineto
          54 -9 21 -4 22 -3 23 -3 rlinecurve
          endchar
        </CharString>
        <CharString name="dong">
          -226 -66 66 hstem
          717 35 rmoveto
          63 vlineto
          -61 -7 0 37 hvcurveto
          378 68 62 -68 119 vlineto
          -187 -8 rlineto
          -63 vlineto
          60 8 0 -37 hvcurveto
          -11 -211 -62 211 -88 vlineto
          20 -38 -58 19 -75 hhcurveto
          -203 -94 -106 -113 -104 82 -114 202 73 60 20 27 43 hvcurveto
          -47 vlineto
          195 -60 rmoveto
          18 -15 15 -18 vhcurveto
          -589 48 callgsubr
          589 hlineto
          18 15 15 18 hvcurveto
          -195 193 rmoveto
          -61 -47 -62 -19 -54 hhcurveto
          -155 0 113 51 51 0 116 169 42 48 -11 -32 40 hvcurveto
          19 -16 0 -1 -19 vvcurveto
          endchar
        </CharString>
        <CharString name="dotaccent">
          -629 520 167 64 callsubr
          603 -100 callgsubr
        </CharString>
        <CharString name="dotaccent.alt">
          -629 482 167 64 callsubr
          565 -100 callgsubr
        </CharString>
        <CharString name="dotaccent.cap">
          -629 499 167 64 callsubr
          582 -100 callgsubr
        </CharString>
        <CharString name="dotlessi">
          -14 callsubr
          hstemhm
          105 callgsubr
          hintmask 10110000
          -9 callgsubr
          hintmask 11010000
          -81 callgsubr
          endchar
        </CharString>
        <CharString name="dotlessj">
          32 callsubr
          hstem
          -40 150 119 125 vstem
          -73 callgsubr
          endchar
        </CharString>
        <CharString name="e">
          -54 callsubr
          13 callsubr
          hintmask 10101110
          -102 callsubr
          hintmask 01011110
          -85 callgsubr
          endchar
        </CharString>
        <CharString name="eacute">
          -54 callsubr
          71 -21 194 -90 callgsubr
          -7 380 -106 callgsubr
        </CharString>
        <CharString name="ebreve">
          -54 callsubr
          56 82 101 -90 callgsubr
          41 447 -104 callgsubr
          endchar
        </CharString>
        <CharString name="ecaron">
          -54 callsubr
          65 -21 207 -90 callgsubr
          -11 437 -55 callgsubr
        </CharString>
        <CharString name="ecircumflex">
          -54 callsubr
          65 -21 207 -90 callgsubr
          -11 274 -65 callgsubr
          endchar
        </CharString>
        <CharString name="ecircumflexacute">
          -54 callsubr
          65 -21 394 -90 callgsubr
          70 callsubr
          -23 322 -106 callgsubr
        </CharString>
        <CharString name="ecircumflexdotbelow">
          -54 callsubr
          65 -21 207 -20 97 callsubr
          52 172 102 101 hintmask 1010100101000000
          -102 callsubr
          hintmask 0101111101000000
          -85 callgsubr
          -11 274 -65 callgsubr
          hintmask 0000000010000000
          -71 -617 -100 callgsubr
        </CharString>
        <CharString name="ecircumflexgrave">
          -54 callsubr
          65 -21 165 -90 callgsubr
          -13 276 -71 callgsubr
        </CharString>
        <CharString name="ecircumflexhookabove">
          -54 callsubr
          65 -21 368 -90 callgsubr
          70 callsubr
          123 303 -107 callgsubr
        </CharString>
        <CharString name="ecircumflextilde">
          -54 callsubr
          65 -21 220 99 -43 99 13 callsubr
          hintmask 1010100011000000
          -102 callsubr
          hintmask 0101100011000000
          -85 callgsubr
          hintmask 0000010100000000
          -13 276 -25 callgsubr
          hintmask 0000001000000000
          -20 -23 -45 -36 -45 hhcurveto
          -28 -27 15 11 -17 hvcurveto
          hintmask 0000000100000000
          -90 callsubr
          hintmask 0000001000000000
          37 -43 rlineto
          hintmask 0000000100000000
          20 23 45 36 45 hhcurveto
          28 27 -15 -11 17 hvcurveto
          hintmask 0000001000000000
          -91 callsubr
        </CharString>
        <CharString name="edblgrave">
          -54 callsubr
          71 -21 194 -93 callgsubr
          hintmask 0000011010000000
          320 vmoveto
          -92 callgsubr
        </CharString>
        <CharString name="edieresis">
          -54 callsubr
          72 150 97 callsubr
          -81 16 callgsubr
          -32 101 hintmask 1010101001000000
          -102 callsubr
          hintmask 0101101001000000
          -85 callgsubr
          hintmask 0000010110000000
          -252 354 -64 callsubr
        </CharString>
        <CharString name="edotaccent">
          -54 callsubr
          64 167 97 callsubr
          52 172 102 101 hintmask 1010101010000000
          -102 callsubr
          hintmask 0101101010000000
          -85 callgsubr
          hintmask 0000010100000000
          -102 355 -100 callgsubr
        </CharString>
        <CharString name="edotbelow">
          -54 callsubr
          97 callsubr
          52 172 102 101 hintmask 10101101
          -102 callsubr
          hintmask 01011101
          -85 callgsubr
          hintmask 00000010
          -102 -365 -100 callgsubr
        </CharString>
        <CharString name="egrave">
          -54 callsubr
          71 -21 194 -90 callgsubr
          -97 334 -89 callsubr
        </CharString>
        <CharString name="ehookabove">
          -54 callsubr
          74 -21 188 -90 callgsubr
          -47 384 -107 callgsubr
        </CharString>
        <CharString name="eight">
          -17 61 561 56 hstem
          77 116 372 116 vstem
          681 -25 callsubr
        </CharString>
        <CharString name="eight.oldstyle">
          -247 -17 61 561 56 hstemhm
          107 113 callgsubr
          711 -29 callsubr
        </CharString>
        <CharString name="eight.prop">
          -247 -17 61 561 56 hstem
          107 116 372 116 vstem
          711 -25 callsubr
        </CharString>
        <CharString name="eight.taboldstyle">
          -17 61 561 56 hstemhm
          77 113 callgsubr
          681 -29 callsubr
        </CharString>
        <CharString name="ellipsis">
          -25 0 172 hstem
          140 callsubr
          130 172 130 172 cntrmask 01110000
          304 86 -38 callgsubr
          302 hmoveto
          -57 callgsubr
          302 hmoveto
          15 callgsubr
        </CharString>
        <CharString name="emacron">
          -54 callsubr
          112 71 13 callsubr
          hintmask 10101011
          -102 callsubr
          hintmask 01011011
          -85 callgsubr
          hintmask 00000100
          73 320 -33 callgsubr
        </CharString>
        <CharString name="emdash">
          452 246 56 hstem
          34 1449 vstem
          1483 246 rmoveto
          56 -1449 -56 vlineto
          endchar
        </CharString>
        <CharString name="emdash.alt">
          -32 247 56 hstem
          999 247 rmoveto
          56 -965 -56 vlineto
          endchar
        </CharString>
        <CharString name="endash">
          246 56 hstem
          17 724 vstem
          741 246 rmoveto
          56 -724 -56 vlineto
          endchar
        </CharString>
        <CharString name="eng">
          -294 -211 67 -67 134 -67 67 hstemhm
          169 116 -116 133 92 116 61 133 cntrmask 11100000
          hintmask 11110110
          704 67 rmoveto
          228 vlineto
          148 -120 9 -74 -135 -65 -68 -39 -25 vhcurveto
          107 vlineto
          -188 -8 rlineto
          -67 vlineto
          64 8 0 -39 hvcurveto
          -271 0 callsubr
          vlineto
          hintmask 11101110
          -72 175 hlineto
          122 123 32 62 64 20 -26 -72 vhcurveto
          -231 vlineto
          -69 -15 -71 -39 -34 vhcurveto
          18 -12 -20 12 -24 hhcurveto
          -37 -30 -30 -37 -37 30 -30 37 141 102 130 148 hvcurveto
          endchar
        </CharString>
        <CharString name="eogonek">
          -373 -235 96 131 62 0 56 25 62 0 51 152 56 13 callsubr
          hintmask 11010111
          635 110 rmoveto
          25 -24 0 -14 vhcurveto
          -7 hlineto
          -19 -8 0 -14 -9 hvcurveto
          -19 -10 -28 -48 -106 hhcurveto
          -127 -66 49 94 -9 hvcurveto
          389 hlineto
          20 18 0 32 58 -22 68 -42 38 hvcurveto
          40 -46 -60 23 -99 hhcurveto
          -224 -85 -123 -107 -103 80 -123 228 -8 hvcurveto
          -44 -34 -9 -27 -45 vvcurveto
          50 callgsubr
          -43 78 61 94 hvcurveto
          19 3 20 5 19 8 rrcurveto
          hintmask 00101111
          -85 callgsubr
          endchar
        </CharString>
        <CharString name="eogonekacute">
          -373 -235 96 131 62 0 56 25 62 0 51 152 56 71 -21 194 -20 13 callsubr
          hintmask 1101010011000000
          635 110 rmoveto
          25 -24 0 -14 vhcurveto
          -7 hlineto
          -19 -8 0 -14 -9 hvcurveto
          -19 -10 -28 -48 -106 hhcurveto
          -127 -66 49 94 -9 hvcurveto
          389 hlineto
          20 18 0 32 58 -22 68 -42 38 hvcurveto
          40 -46 -60 23 -99 hhcurveto
          -224 -85 -123 -107 -103 80 -123 228 -8 hvcurveto
          -44 -34 -9 -27 -45 vvcurveto
          50 callgsubr
          -43 78 61 94 hvcurveto
          19 3 20 5 19 8 rrcurveto
          hintmask 0010110011000000
          -85 callgsubr
          hintmask 0000001100000000
          -7 380 -106 callgsubr
        </CharString>
        <CharString name="equal">
          96 73 86 182 86 hstem
          98 965 vstem
          1063 384 14 callsubr
          -268 vmoveto
          43 -42 0 -10 vhcurveto
          -861 133 callgsubr
          849 hlineto
          13 45 0 43 hvcurveto
          endchar
        </CharString>
        <CharString name="ereversed">
          -54 callsubr
          hstemhm
          57 101 326 151 hintmask 10101110
          635 226 rmoveto
          107 -85 123 -224 -99 -60 -23 -40 -46 vhcurveto
          -42 -38 -22 -68 -58 vvcurveto
          -32 18 0 20 vhcurveto
          389 hlineto
          -94 -9 -66 -49 -127 hhcurveto
          -106 -28 48 19 -10 hvcurveto
          14 -9 -8 0 -19 hhcurveto
          -7 hlineto
          hintmask 01000100
          -14 -24 0 -25 -14 26 -53 68 -27 hvcurveto
          hintmask 10011110
          -24 60 69 0 25 hhcurveto
          245 85 128 106 hvcurveto
          -151 22 rmoveto
          -326 hlineto
          67 5 26 85 136 hhcurveto
          156 2 -116 -36 1 hvcurveto
          endchar
        </CharString>
        <CharString name="estimated">
          -40 -7 62 2 56 220 52 196 62 0 56 hstemhm
          820 148 hintmask 11101100
          968 113 rmoveto
          19 -21 4 -12 vhcurveto
          -23 hlineto
          -24 -19 -32 -13 -25 hvcurveto
          -36 -70 -84 0 -77 hhcurveto
          -145 -204 26 207 -30 hvcurveto
          -3 15 0 15 -2 15 rrcurveto
          706 hlineto
          25 8 12 22 110 -53 108 -100 56 hvcurveto
          48 -86 -102 10 -96 hhcurveto
          -200 -274 -84 -267 -117 67 -105 106 -60 hvcurveto
          -55 97 113 -18 109 hhcurveto
          49 hlineto
          101 130 1 63 91 hvcurveto
          19 13 29 21 22 vvcurveto
          -148 272 rmoveto
          -590 hlineto
          12 82 15 66 65 49 rrcurveto
          45 59 74 16 73 hhcurveto
          hintmask 00110100
          74 80 -12 -50 58 hvcurveto
          54 -48 26 -79 -69 vvcurveto
          endchar
        </CharString>
        <CharString name="eth">
          24 callsubr
          hstem
          57 150 344 150 vstem
          701 222 rmoveto
          152 vlineto
          118 -58 81 -33 36 vhcurveto
          -12 13 -12 11 -13 10 102 41 rcurveline
          -25 63 -150 -61 rlineto
          44 -96 -115 7 -95 hhcurveto
          -9 -52 65 -4 66 -17 57 -29 rlinecurve
          -95 -38 26 -63 138 56 58 -47 41 -63 8 -76 rlinecurve
          38 -53 -56 14 -64 hhcurveto
          -220 -99 -120 -119 -101 82 -124 240 215 107 102 128 hvcurveto
          -150 -1 rmoveto
          -77 -21 -90 -151 -168 -4 113 62 52 0 119 171 106 67 -60 -119 vhcurveto
          endchar
        </CharString>
        <CharString name="etilde">
          -54 callsubr
          70 99 -43 99 -96 callsubr
          hintmask 0000001000000000
          53 390 rmoveto
          -37 43 rlineto
          hintmask 0000010000000000
          -20 -23 -45 -36 -45 hhcurveto
          -28 -27 15 11 -17 hvcurveto
          hintmask 0000001000000000
          -90 callsubr
          hintmask 0000010000000000
          37 -43 rlineto
          hintmask 0000001000000000
          20 23 45 36 45 hhcurveto
          28 27 -15 -11 17 hvcurveto
          hintmask 0000010000000000
          -91 callsubr
        </CharString>
        <CharString name="eturned">
          -28 callgsubr
        </CharString>
        <CharString name="exclam">
          -590 0 172 88 -21 472 -20 hstem
          324 631 rmoveto
          49 -43 31 -43 -43 -43 -31 -49 -11 0 -2 2 -15 vhcurveto
          41 -332 rlineto
          -30 4 6 -2 26 hhcurveto
          14 hlineto
          26 6 2 30 4 hvcurveto
          41 332 rlineto
          2 15 0 2 11 vvcurveto
          -545 vmoveto
          15 callgsubr
        </CharString>
        <CharString name="exclamdown">
          -590 -190 -21 472 -20 87 172 hstem
          152 172 vstem
          324 414 -38 callgsubr
          -545 vmoveto
          11 0 2 -2 15 vhcurveto
          -41 332 rlineto
          30 -4 -6 2 -26 hhcurveto
          -14 hlineto
          -26 -6 -2 -30 -4 hvcurveto
          -41 -332 rlineto
          -2 -15 0 -2 -11 vvcurveto
          -49 43 -31 43 43 43 31 49 vhcurveto
          endchar
        </CharString>
        <CharString name="f">
          -23 callsubr
        </CharString>
        <CharString name="f_f">
          -152 115 callgsubr
          229 147 -66 125 27 125 -33 147 cntrmask 11100000
          hintmask 11111000
          982 603 rmoveto
          46 -40 53 -99 -31 -80 -3 -36 -61 vhcurveto
          39 -52 -80 0 -29 hhcurveto
          -131 -223 -27 -141 hvcurveto
          -90 -100 -67 100 -310 -59 callgsubr
          67 -72 310 vlineto
          hintmask 11100100
          310 -310 -72 -67 hlineto
          hintmask 11101000
          -34 callsubr
          vlineto
          hintmask 11100110
          -90 310 152 67 -160 89 hlineto
          16 0 41 35 29 vhcurveto
          27 35 48 0 6 hhcurveto
          12 1 -3 0 hvcurveto
          -1 -3 rlineto
          hintmask 11100101
          -6 -12 -3 50 callsubr
          -391 -159 rmoveto
          -318 86 hlineto
          21 0 41 71 29 vhcurveto
          13 30 43 12 75 hhcurveto
          9 40 0 -9 33 hvcurveto
          -5 -5 -11 -17 -25 vvcurveto
          -22 8 -24 25 -16 vhcurveto
          endchar
        </CharString>
        <CharString name="f_f_i">
          243 0 62 callgsubr
          63 67 1 56 15 56 hstem
          132 callgsubr
          311 125 310 125 vstem
          1224 9 callsubr
          -144 -86 -27 -25 -46 vhcurveto
          52 -50 -87 0 -28 hhcurveto
          -112 -240 -22 -146 hvcurveto
          -90 -100 -67 100 -310 -59 callgsubr
          67 -72 310 311 -310 -59 callgsubr
          67 -72 310 276 vlineto
          28 6 -2 -34 hvcurveto
          -274 -59 callgsubr
          -632 444 rmoveto
          -319 86 hlineto
          21 0 41 71 29 vhcurveto
          19 44 53 6 49 hhcurveto
          17 35 0 -15 34 hvcurveto
          -7 -7 -16 -19 -31 vvcurveto
          -27 11 -26 28 -14 vhcurveto
          endchar
        </CharString>
        <CharString name="f_f_l">
          243 115 callgsubr
          311 125 232 125 -47 125 cntrmask 11100000
          hintmask 11100010
          1224 52 callsubr
          hintmask 11111100
          -78 -5 rlineto
          -5 -1 0 2 -7 hvcurveto
          11 -44 -36 0 -32 hhcurveto
          -72 -107 -5 -43 -90 hvcurveto
          48 -45 -96 0 -29 hhcurveto
          -117 -237 -22 -146 hvcurveto
          -90 -100 -67 100 -310 -59 callgsubr
          67 -72 310 311 -310 -59 callgsubr
          67 -72 310 vlineto
          hintmask 11101010
          38 callgsubr
          -632 444 rmoveto
          -319 86 hlineto
          21 0 41 71 29 vhcurveto
          17 40 48 8 60 hhcurveto
          14 34 0 -9 34 hvcurveto
          -2 -3 -13 -17 -27 vvcurveto
          -26 10 -23 23 -13 vhcurveto
          435 -84 -3 callgsubr
        </CharString>
        <CharString name="f_i">
          -193 0 62 callgsubr
          131 56 15 56 hstem
          132 callgsubr
          310 125 vstem
          788 9 callsubr
          -109 -248 -20 -148 vhcurveto
          -90 -100 -67 100 -310 -59 callgsubr
          67 -72 310 276 vlineto
          28 6 -2 -34 hvcurveto
          -274 -59 callgsubr
          endchar
        </CharString>
        <CharString name="f_k">
          210 81 callsubr
          230 251 cntrmask 11100000
          hintmask 11100110
          1197 36 callgsubr
          67 hlineto
          -3 -38 -27 -1 -43 hhcurveto
          -147 -10 callgsubr
          15 vlineto
          -209 -135 rlineto
          452 11 callgsubr
          hintmask 11100110
          38 callgsubr
          67 -72 77 vlineto
          95 61 110 callsubr
          3 47 65 1 23 hhcurveto
          118 callgsubr
          -606 444 -3 callgsubr
        </CharString>
        <CharString name="f_l">
          -193 81 callsubr
          cntrmask 11100000
          hintmask 11100100
          788 hmoveto
          67 -72 627 11 callgsubr
          hintmask 11100100
          38 callgsubr
          -197 444 -3 callgsubr
        </CharString>
        <CharString name="five">
          -17 25 callsubr
          139 89 callgsubr
          hintmask 0010100100000000
          669 201 -40 callsubr
          hintmask 1101011010000000
          -44 callgsubr
          -4 callsubr
        </CharString>
        <CharString name="five.oldstyle">
          -271 -211 25 callsubr
          107 158 -108 89 callgsubr
          hintmask 0010100010000000
          687 7 -40 callsubr
          hintmask 1101010101000000
          -44 callgsubr
          hintmask 1000001001000000
          -4 callsubr
        </CharString>
</ttFont>
